/* XPM */
static char *_0d347380ac14e60f5003181bc9a4213vn0yKJHIlq1f94JZ[] = {
/* columns rows colors chars-per-pixel */
"50 50 209 2 ",
"   c #010105",
".  c #0C0201",
"X  c #0C0906",
"o  c #03040B",
"O  c #09070C",
"+  c #06090E",
"@  c #0B0A0D",
"#  c #130602",
"$  c #1A0700",
"%  c #150B02",
"&  c #1D0E02",
"*  c #110D0E",
"=  c #1C0D08",
"-  c #1C1401",
";  c #15120C",
":  c #18110C",
">  c #050512",
",  c #090712",
"<  c #060A12",
"1  c #0C0C14",
"2  c #0A0718",
"3  c #0D0E1A",
"4  c #110E15",
"5  c #1A0B10",
"6  c #100F1B",
"7  c #061214",
"8  c #0C1115",
"9  c #07141A",
"0  c #0E121B",
"q  c #131215",
"w  c #1D1412",
"e  c #13131B",
"r  c #19161B",
"t  c #151A1E",
"y  c #1B1B1D",
"u  c #220C02",
"i  c #271609",
"p  c #291916",
"a  c #211C1C",
"s  c #332002",
"d  c #27211D",
"f  c #0E0E21",
"g  c #0C1121",
"h  c #0C1729",
"j  c #131522",
"k  c #1A1625",
"l  c #151A24",
"z  c #1A1C24",
"x  c #17142A",
"c  c #161C2A",
"v  c #1B1D2A",
"b  c #1B1D31",
"n  c #221B22",
"m  c #2E1F26",
"M  c #221E2C",
"N  c #221E34",
"B  c #1C2125",
"V  c #16212E",
"C  c #1D222C",
"Z  c #1E292F",
"A  c #162133",
"S  c #1D2432",
"D  c #1F2539",
"F  c #1E2A39",
"G  c #242325",
"H  c #2B2324",
"J  c #2F2A27",
"K  c #23242C",
"L  c #2B252C",
"P  c #25292D",
"I  c #2B2A2D",
"U  c #30252F",
"Y  c #372E2F",
"T  c #3A332C",
"R  c #232533",
"E  c #2A2532",
"W  c #242A34",
"Q  c #2A2A34",
"!  c #222639",
"~  c #252B3C",
"^  c #2A2D3C",
"/  c #332E35",
"(  c #3A2F35",
")  c #2D3037",
"_  c #2D313D",
"`  c #373336",
"'  c #32333D",
"]  c #3B353C",
"[  c #3B3B3D",
"{  c #403217",
"}  c #453926",
"|  c #503C23",
" . c #483F34",
".. c #423B3B",
"X. c #4F4A2C",
"o. c #5E462A",
"O. c #4A4339",
"+. c #4C433C",
"@. c #50453F",
"#. c #634F2E",
"$. c #7C6434",
"%. c #262E41",
"&. c #292E41",
"*. c #2C3143",
"=. c #2E3548",
"-. c #313442",
";. c #3F3441",
":. c #353944",
">. c #3A3C44",
",. c #383D50",
"<. c #443742",
"1. c #443E41",
"2. c #424246",
"3. c #4C4643",
"4. c #4B4846",
"5. c #454549",
"6. c #474949",
"7. c #4A4A4C",
"8. c #564D41",
"9. c #554E4B",
"0. c #595349",
"q. c #5C524C",
"w. c #4C4E52",
"e. c #535254",
"r. c #55555A",
"t. c #5B585B",
"y. c #66564D",
"u. c #705F4B",
"i. c #645954",
"p. c #7B6249",
"a. c #6A625A",
"s. c #756559",
"d. c #5D5C61",
"f. c #686769",
"g. c #746A62",
"h. c #7D6D62",
"j. c #7C6E6B",
"k. c #6E6E71",
"l. c #6F6E7C",
"z. c #777678",
"x. c #8C744E",
"c. c #836C5A",
"v. c #89765E",
"b. c #877569",
"n. c #937B6B",
"m. c #897E72",
"M. c #968359",
"N. c #AD8E55",
"B. c #9A8569",
"V. c #8B8377",
"C. c #8D837C",
"Z. c #958272",
"A. c #9C8875",
"S. c #A28462",
"D. c #A58D75",
"F. c #A9957A",
"G. c #B2987E",
"H. c #C4A56C",
"J. c #C5A87A",
"K. c #DDA47E",
"L. c #DEA67F",
"P. c #928580",
"I. c #9D8C84",
"U. c #908C90",
"Y. c #A59485",
"T. c #AB998C",
"R. c #B09685",
"E. c #B99983",
"W. c #BBA489",
"Q. c #AAA7A7",
"!. c #BEACA0",
"~. c #AEAEB0",
"^. c #B5B5B5",
"/. c #C09A83",
"(. c #C3A688",
"). c #CCAB8C",
"_. c #DDA682",
"`. c #D5AA86",
"'. c #DFA980",
"]. c #DDAC8B",
"[. c #DBB887",
"{. c #C5AA91",
"}. c #D3AC92",
"|. c #CDB193",
" X c #CFB59D",
".X c #DAB79A",
"XX c #E0AC82",
"oX c #E3B385",
"OX c #E5B887",
"+X c #E5BB8D",
"@X c #E4B994",
"#X c #CCBCA7",
"$X c #DCBFAC",
"%X c #D0BEB4",
"&X c #DAC08F",
"*X c #DBC091",
"=X c #F0D399",
"-X c #CDC2AC",
";X c #DAC4A7",
":X c #E6C7AA",
">X c #EBD4AD",
",X c #E1CDB3",
"<X c #C5C4C2",
"1X c #EEDBC8",
"2X c #EBE2C8",
"3X c #FFECC5",
"4X c #F4EDD6",
"5X c #F8EEE5",
"6X c #EEE8F2",
/* pixels */
"K.K.K.K.K.K.K.K.K.K.K.K.K.K.K.K.K.K.K.K.K.K.K.K.K.K.K.K.K.K.K.K.K.K.K.K.K.K.K.K.K..X$X%X~.Q.<XK.K.K.",
"K.K.K.K.K.n.O @ 1 q   h.XXXXXXXXXXK.K.K.K.K.K.K.K.K.K.K.K.K.K.K.K.XXXXXXXXXXXXXXXX  , o     I K.K.K.",
"K.K.K.K.K.H o L 1.P [ 4.A.`.OXOXOXK.K.K.K.K.K.K.K.K.K.K.K.K.K.K.K.OXOXOXOXOXOX XY.z Q P P o [ K.K.K.",
"K.K.K.K.'.y y z :.>.>.[   a.OXOXOXOXOXOX'.K.K.K.K.K.K.K.K.'.OXOXOXOXOXOXOXOXOX  j ^ R ^ Q   ' K.K.K.",
"K.K.K.K.XXa o z >.-._ _ e.[   D.OXOXOXOXXX'.K.K.K.K.K.K.'.XXOXOXOXOXOXOXOX..e ) R -.Q -.K , 9.K.K.K.",
"K.K.K.OXOXH O v ^ *._ ^ *.^ l t.).OXOXOXOXOXK.K.K.K.K.K.OXOXOXOXOXOXOXOXOXO.I >.' W ^ ' K   q.K.K.K.",
"K.K.K.OXOXT 4 0 R ^ ~ ! ~ *.:.R   o , o     O <     O o O o     >     8 + 9.5.^ W R -.c K e i.K.K.K.",
"K.K.K.OXOXG 1 l C c c =.*.D ,.R 3 v ^ _ _ _ _ ^ _ _ _ _ _ _ _ -.' _ 5.< 0 7.W ~ W S R R K   y.K.K.K.",
"K.XXOXOXOXa r l C A c %.=.%.*.! C W ^ ^ ^ _ _ ^ ^ ^ &.*.^ ^ ^ ^ ^ &.~ S S ~ ^ ! R c R C C 1 8.K.K.K.",
"K.XXOXOXOXH   0 C S b ! %.! *.&.! ~ *.~ %.^ &.~ &.&.&.&.%.%.%.%.&.&.&.&.~ ~ ^ ^ R c l C z   +.oX'.K.",
"K.XXOXOXOXOX|.K 0 C A ! *.~ &.&.*.*.%.%.%.~ %.%.%.%.%.%.%.%.%.%.%.&.&.&.&.~ ~ ~ R R C l z Z.`.OXXXK.",
"K.XXOXOXOXOXOXP.o c S ~ *.&.~ ~ &.%.~ %.%.%.%.%.%.%.%.%.%.%.%.%.=.&.%.&.&.^ ^ ~ c S j < >.OXOXK.K.K.",
"K.XXOXOXOXOX{.G 0 S W S ~ ~ ~ ~ ~ ~ ~ %.&.%.%.&.%.%.%.%.%.%.%.%.&.&.&.~ ^ ^ ^ ^ ^ W R , t g.XXXX'.K.",
"K.XXOXOXOX*   z v W W S S R R R S ! ~ %.&.%.~ ~ &.%.&.%.&.%.&.&.~ ^ ^ ~ R R W W R R C v e   @.OXXXK.",
"K.XXOXOXOXT r y C R W C c c c c c S ~ ~ ^ ~ ^ ~ ^ ^ &.^ &.&.&.^ W W R C C c c C ^ ^ R -.E , b.K.K.K.",
"K.XXOXOXOXr o G W R R z 1 4 4 q 3 l R R W ^ ^ ^ ^ ^ ^ ^ ^ ^ ^ ^ W c 1 4 q q q q j ^ R *.l O R.XXK.K.",
"K.XXOXOXOX1 q v v C L q w i u u * 0 3 l j C Z S W Q B K W R j l l 1 q . & $ $ = n R ^ ! K o E.OXXXK.",
"K.K.K.OXOXq 4 z R K r j.!.F.E.p.. 1 3 , * q z z B B P P C z @ @ + 8 % T.G.S.S.B.j.n E ^ K o (.K.K.K.",
"K.K.K.OXOXO O P z Q d g.-X(.J.x.. r 4 w u u = X z W W B @ % i & ; @ % ,X*XN.H.J.B.p Y G y X (.K.K.K.",
"K.K.K.OXOXq q z W Q ; V.2X;X>XM.% ; % s.$X{.c.p Q R W W q 0.,XW.: X & s $.=X[.&XG.p H L I o E.K.K.K.",
"K.K.K.'.XX4 1 K C P G 4.s.F.3XD.. - . c.:X.Xn.p K ^ S Z n y.;X{.% . # . #.3X Xp.y.m E E R   R.K.K.K.",
"K.K.K.K.K.1 q v W K K y . O.#Xv.} X.{ A.:XD.s.H ^ ! ^ W M +.b.v.} }  .} u.#XY.. 5 L M K K < V.K.K.K.",
"K.K.K.K.K.y @ r t C Q Q ] n . 0.4X2X4X2X-X% : I S ! ! S R n # i W.>X1X1XI.. p ( U / U L q ; s.K.K.K.",
"K.K.K.K.K.K.K.q o l t v E E k ( +.} T 3.0.G B W ! ~ R ^ W K n d | o.u.i...r z E R r r . J @XK.K.K.K.",
"K.K.K.K.K.K.K.).A.8 8 K z Q Q k . . 1 e v Z F F S R P P W R K G . % w y C ! D S c 1 z Q t.K.K.K.K.K.",
"K.K.K.K.].].].]._.'   l K v j R L E R R S V V V V c y y v v v z a a P C c A h g 0   r.5XK.K.K.K.K.K.",
"XXXXXXi.  , ,   , > l t e z t v M M N R C v C C c l t y l c v v v z z z v c j q r . 4.:XK.'.XXXXXXXX",
"OXR.b.] K <./ ] k j j 3 e e 8 t 6 j v v v z v v v v z B v v v v c 0 0 8 e e 1 1 4 @ ` U.Q.oXOXOXOXOX",
"OXb.L 1.4.] ;.<.N v j e 0 8 1 0 0 0 j t r r r t j j j j x x k j l 9 7 + 8 q 3 q e 1 1   v 1XOXOXOXOX",
"OXOXOXh.3 , > > 2 2 3 k l e l c 8 1 3 1 q q q e 3 3 3 3 f f 6 3 0 7 8 8 e l l v z K K + _ 5XOXOXOXOX",
"OXOXOXOXOXOXOXe.@ z r q t c S l c c l j e q 6 3 f g e j j j 0 1 0 0 t r k v v v l t t l R l.U.OXOXOX",
"OXOXOXOXOXOXOXC.  y z z K l c c c c c c c l j j f j l v c l e 1 3 j v v v b v c v B l v v o M 6XOXOX",
"OXOXOXOXOXF.o B K C v l C l 1 C W Z C S R C j 3 C K R K 0 0 P C S D ! ! S v c e l v v W K K K K y +X",
"OXOXOXOXOXs.j K C S R v j q 1 B R W ^ W S c l j C W R C j j W ^ %.%.%.~ R c j 1 q z z Q K K v q   ^.",
"OXOXOXn.r .._ R R c C j 0 1 1 z W ^ R l g l R ^ W W e 0 R ^ Q W ! ! ~ ~ R C l 0 1 q e v v W K < @ ^.",
"OXOXOXG.O q.:.^ *.j 0 3 3 0 1 t j j k k c v R R v R c l R W R R W R R R l e 0 1 1 3 1 e j W W 3   ^.",
"OXOXOXD., ' :.:.:.c j 0 3 q 1 1 3 3 e v R K v l j v R K v v v K K C C v e q q q 1 e 3 j j ^ &.e O ;X",
"OXOXOXA., >._ -._ ^ ^ l , q 4 1 6 , , 1 1 1 1 4 6 > 1 3 1 6 1 O @ + 1 1 1 1 1 1 q l v M v *.^ 6 o +X",
"OXOXOXZ.  9.7.' _ ^ ' l 1 1 4 e n K I I I G P P L G P P K P P P P K P P G z r 1 q v K Q W -.W e o OX",
"OXOXOXh.o O.a.5.>.R K t 4 1 1 z / [ 5.6.6.6.6.6.6.6.7.6.7.w.6.7.6.2.2.2.[ Q z 1 q v M Q ^ -.Q j o OX",
"OXOXOXOXOX[.  q 1   + o @ e 1 1 1 e q e r e 8 q q q t e z e 8 t q r q q t q , 1 , v 1 Q / ` Q     OX",
"OXOXOXOXoXK.W.)./.E.m.>.r O r z e 0 j 0 0 e e t t e 8 1 0 8 e e q e 6 6 e t e q z   z 3...P P T.a.OX",
"OXOXOXK.'.OX'.'.OXXXK.].  4 / Q _ ~ ^ ^ R ) W W _ ^ W _ ^ ^ -.W Q Q R R K P v e , z , o q   a.OXOXOX",
"OXOXOX'.XXOX'.'.OX'.K.K.o z P ' ^ *.! ~ S ~ C c c c c R K C c v K M R Q R R K j j 1 3.OXOXOXOXOXOXOX",
"OXoXK.OXoXK.OXOXK.K.K._.  e ' R *.*.S R R l R R v c c l v v k R l j K Q R R K v l   i.OXOXOXOXOXOXOX",
"'.XXoX'.XXoXXX'.K.K.o 4 t 1 R W c A R W c   >   o   O   O o     e e l c l j j j c e ] OXK.OXOXK.oXOX",
"K.XXOXK.'.OX'.K.K.K.r q l 0 c W C l l l + w.z.z.k.k.k.k.z.k.z.7.O 8 e 0 j l l l j 1 v  X].oXOXK.oXOX",
"OXoXK.OXoXK.K.K.K.K.1 j v R R l C l 1 B o }.OXXXK.OXoXK.OXoXK.}.  q e 0 e v l j v e P   K K.K.OXXXK.",
"XX'.K.XX'.K.K.K.K.K.y   O O q   o o o .XK.K.XX'.K.XX'.K.XX'.K.K._.T.  + o o   o o o   o I K.K.XX'.K.",
"K.K.K.K.K.K.K.K.K.K.g.r.t.w.d.e.r.r.6._.K.K.K.K.K.K.K.K.K.K.K.K.K.].7.f.z.P.I.I.C.d.e.r.f.K.K.K.K.K."
};
