/* XPM */
static char *bc5c307c25f646bbf95496258e0271fd43bqU1iPA12cAxa4[] = {
/* columns rows colors chars-per-pixel */
"50 50 235 2 ",
"   c #0E0300",
".  c #120300",
"X  c #1C0300",
"o  c #1C0D00",
"O  c #170D00",
"+  c #1D1100",
"@  c #240300",
"#  c #230C00",
"$  c #290C01",
"%  c #2A0000",
"&  c #320500",
"*  c #261502",
"=  c #2B1401",
"-  c #2B1B01",
";  c #281607",
":  c #341500",
">  c #331A00",
",  c #381A09",
"<  c #351C17",
"1  c #2F2307",
"2  c #36240B",
"3  c #392814",
"4  c #411A00",
"5  c #422A0E",
"6  c #472C16",
"7  c #4C3115",
"8  c #45341B",
"9  c #4C331A",
"0  c #553718",
"q  c #4E3308",
"w  c #4E3821",
"e  c #573E21",
"r  c #523621",
"t  c #623E28",
"y  c #5B4316",
"u  c #5E441B",
"i  c #7B4A1F",
"p  c #5D4223",
"a  c #5F452E",
"s  c #66482B",
"d  c #7F512D",
"f  c #644434",
"g  c #684D32",
"h  c #6A533B",
"j  c #72523A",
"k  c #74583C",
"l  c #795938",
"z  c #6E4E2F",
"x  c #765A44",
"c  c #6F584A",
"v  c #7E6546",
"b  c #7D654D",
"n  c #7A6856",
"m  c #876949",
"M  c #8F7041",
"N  c #917142",
"B  c #886E55",
"V  c #8C7459",
"C  c #887356",
"Z  c #957D5C",
"A  c #AA7F54",
"S  c #9B7C62",
"D  c #9D8058",
"F  c #B68D58",
"G  c #998665",
"H  c #A3846B",
"J  c #A28665",
"K  c #A3956D",
"L  c #A7956A",
"P  c #BB9C6E",
"I  c #B69667",
"U  c #B78F71",
"Y  c #B88F71",
"T  c #AA9574",
"R  c #B59272",
"E  c #B79975",
"W  c #BC977A",
"Q  c #B59C7A",
"!  c #B9997E",
"~  c #A58B72",
"^  c #BCA378",
"/  c #C5915F",
"(  c #C39668",
")  c #C59C73",
"_  c #C19E7C",
"`  c #CB9D78",
"'  c #DA9D77",
"]  c #D59A6E",
"[  c #C6A26C",
"{  c #DFA56F",
"}  c #D5A36E",
"|  c #C3A474",
" . c #CCA17F",
".. c #CFA87D",
"X. c #D3A174",
"o. c #DBA475",
"O. c #DDAA73",
"+. c #D5A47C",
"@. c #DDA57D",
"#. c #D5A97D",
"$. c #DDAA7D",
"%. c #D1AA73",
"&. c #D9B37C",
"*. c #E3A773",
"=. c #E3AA77",
"-. c #E1A57D",
";. c #E2AC7D",
":. c #E9AC7F",
">. c #E4B47C",
",. c #EAB57D",
"<. c #EBB87F",
"1. c #E1B97E",
"2. c #E2A56F",
"3. c #A09881",
"4. c #B69E82",
"5. c #ADA38C",
"6. c #B1A38C",
"7. c #BCA48B",
"8. c #B5A794",
"9. c #BEB095",
"0. c #C49F83",
"q. c #D99D83",
"w. c #CCA584",
"e. c #CCAA84",
"r. c #C9A788",
"t. c #D5A582",
"y. c #DCA582",
"u. c #D4AA84",
"i. c #DDAC82",
"p. c #D4AD8B",
"a. c #D6A68A",
"s. c #CAB48B",
"d. c #DEB385",
"f. c #D5B28C",
"g. c #DCB28A",
"h. c #DCBA8D",
"j. c #D8B985",
"k. c #CBAB93",
"l. c #D1AC98",
"z. c #D9A894",
"x. c #CBB498",
"c. c #D6B493",
"v. c #DBB593",
"b. c #D4BA95",
"n. c #DDBA93",
"m. c #D5B49C",
"M. c #DBB69A",
"N. c #DBBC99",
"B. c #D4BE99",
"V. c #E0A581",
"C. c #E2AC83",
"Z. c #E9AE85",
"A. c #E2AE89",
"S. c #EBAF8B",
"D. c #E5B587",
"F. c #E7B787",
"G. c #E6B685",
"H. c #E3B384",
"J. c #E9B686",
"K. c #E9B584",
"L. c #E3B987",
"P. c #E3BA86",
"I. c #E2BA87",
"U. c #E2BA86",
"Y. c #E1BA86",
"T. c #E4B986",
"R. c #E4B887",
"E. c #E6B887",
"W. c #E5BA87",
"Q. c #E6B884",
"!. c #E4B985",
"~. c #EABA84",
"^. c #E3B688",
"/. c #E6B789",
"(. c #E5B589",
"). c #E5B689",
"_. c #E9B689",
"`. c #EAB48B",
"'. c #E3B989",
"]. c #E2BA89",
"[. c #E1BA89",
"{. c #E7B988",
"}. c #E5B98A",
"|. c #E7B88A",
" X c #E4B989",
".X c #E4B98A",
"XX c #E8B889",
"oX c #EABA8B",
"OX c #F0BB86",
"+X c #E4B692",
"@X c #E4BC92",
"#X c #EABC91",
"$X c #E6B998",
"%X c #F3BD93",
"&X c #F5BB95",
"*X c #E4A794",
"=X c #D5BCA2",
"-X c #E2BDA0",
";X c #CAC09B",
":X c #DEC294",
">X c #DDC29D",
",X c #E8C18A",
"<X c #ECC293",
"1X c #EDC59B",
"2X c #E6C798",
"3X c #F5CB93",
"4X c #F3C497",
"5X c #F4D39A",
"6X c #F5D195",
"7X c #F6C18D",
"8X c #DDCCB4",
"9X c #D4C7B6",
"0X c #E7C6A0",
"qX c #EED5AC",
"wX c #EDD5A7",
"eX c #F1D6AC",
"rX c #FBDDAC",
"tX c #F5D8A7",
"yX c #EFDCB2",
"uX c #E9D7B8",
"iX c #F4DCB2",
"pX c #F7DEB5",
"aX c #F5C9A4",
"sX c #FAE1AC",
"dX c #EDE3BF",
"fX c #FCE5B6",
"gX c #F6E4BA",
"hX c #EBDBC4",
"jX c #E6D7C2",
"kX c #EDE1CA",
"lX c #FAE6C4",
"zX c #FBE9C6",
"xX c #F7EAC8",
"cX c #FDF2CB",
"vX c #FAEFD7",
/* pixels */
"@.@.@.@.@.@.@.$.$.$.$.$.;.$.$.$.$.$.@.o.o.@.V.V.V.V.@.@.o.o.@.@.o.o.$.$.$.$.$.$.$.$.@.o.@.@.-.-.@.@.",
"@.@.@.@.@.$.$.i.H.H.H.H.H.H.H.H.C.C.$.@.@.@.@.V.V.y.@.@.@.@.$.$.;.;.H.H.H.H.H.H.G.H.C.$.@.@.@.@.@.@.",
"@.@.@.@.$.C.C.H.).).).).)._.K.K.G.H.Z.C.i.@.@.@.y.y.@.@.@.i.C.H.H.H.K.G.XX}.E.G.oXXXG.H.Z.C.@.@.@.@.",
"@.@.@.i.i.H.).).}.}.}.}.XXXX_._._._.).H.C.i.@.@.y.@.@.@.C.H.H.K.G.G.G.E.}.}.E.E.}.).)._.`.Z.C.-.@.@.",
"@.@.$.C.H.^.}.}.}.}.E.E.E.E.G.G.G.G.).).D.C.y.@.y.@.@.i.C.G.).XXG.G.G.E.E.E.H.H.^.).).)._.D.C.C.@.@.",
"@.$.i.H.).}.}.}.'.'.Y.E.E.E.E.E.G.G.).).H.C.i.@.y.@.@.i.H.).}.}.E.E.E.E.E.Y.Y.Y.'.}.}.).).H.i.@.@.@.",
"@.$.i.^.).}.'.'.'.'.Y.Y.Y.Y.E.E.H.H.).G.H.C.i.@.@.@.@.i.G.}.}.H.E.E.E.Y.Y.Y.Y.'.'.}.}.).).H.i.@.@.@.",
"@.$.d.).}.}.'.Y.'.'.Y.Y.Y.Y.E.E.}.E.).G.H.i.@.@.@.@.$.i.).}.E.H.E.E.Y.Y.Y.Y.Y.Y.'.'.'.^.).H.i.$.@.@.",
"$.i.H.}.}.'.Y.Y.Y.Y.Y.Y.Y.Y.E.E.Y.Y.}.).H.i.i.i.@.@.i.).}.E.H.E.E.E.Y.Y.Y.Y.Y.Y.'.'.'.^.^.H.C.C.i.V.",
"$.i.H.}.}.'.Y.Y.Y.Y.Y.Y.Y.Y.E.E.Y.Y.}.E.H.i.i.i.@.$.i.G.}.Y.Y.E.E.E.Y.Y.Y.Y.Y.Y.'.'.'.^.).H.C.C.i.V.",
"$.i.H.}.}.'.Y.Y.Y.Y.Y.Y.Y.Y.E.E.E.E.}.G.H.i.$.i.$.$.i.G.}.E.Y.E.E.E.Y.Y.Y.Y.Y.Y.'.'.}.}.).H.C.C.i.V.",
"$.i.H.}.}.^.Y.Y.Y.Y.Y.Y.Y.Y.E.E.E.E.}.G.H.i.i.$.$.$.C.G.XXE.G.E.E.E.E.Y.Y.Y.Y.Y.'.}.}.}.).H.C.C.i.V.",
"$.C.H.E.E.H.Y.Y.Y.Y.Y.Y.E.E.E.Q.XXE.G.H.H.C.C.$.@.$.C.G.XXE.E.E.E.E.E.Y.Y.Y.Y.Y.'.'.}.).).H.C.C.i.V.",
"$.C.H.XXXXG.H.Y.Y.Y.Y.Y.E.E.E.E.E.G.H.H.C.C.C.$.@.@.C.G._.G.G.E.E.E.E.E.E.Y.Y.Y.'.}.).G.H.C.C.C.V.V.",
"$.;.H.XXXXG.G.E.E.E.E.E.E.E.E.E.G.H.>.;.C.C.C.$.@.@.C.G._.G.G.XXG.E.E.E.E.E.E.E.}.}.G.H.C.C.C.C.V.V.",
"@.C.H.K.XXH.H.'.'.'.'.Y.Y.'.'.}.H.H.;.;.C.C.C.-.@.$.C.K.XXK.G.XXE.E.E.E.'.'.}.}.}.).H.H.C.C.C.Z.V.V.",
"q.`.:.,.<.<.E.d.h.h.:Xs.:Xf.c.$X@X+.G.@.@.@.Z.-.-.-.;.H._.oXXXE.~.>.oXd.'.1Xg.'.#X$.$.K.-.`.Z.A.@.@.",
"q.y.o.OX,.O.oX2Xs.J L K T T ~ r.p.i.i.D.&X%XZ.' -.@.$.C.G.XXE.H.}.{.{.g.n.f.u.1Xi.).oXC.o.Z.Z.@.@.@.",
"*Xy.$.7X~.H.1Xr.V 2 - 1 - - 3 B w.aXi.+.A.y.@.@.@.@.@.i.H.).'.'.^.@Xn.N.N.b.N.c.u.i.i.i.H.H.Z.Z.@.@.",
"z.t.@.H.$.'.M.s w C ;X;Xs.G x g 0  .p.).+XA.y.A.y.y.y.i.g.^.[.h.p.n.m 7 e p e 7 s J p.[.).X.X.$.@.@.",
"a.t.@.$.$.+Xk.$ , 6.vXxXcXK C 0 ,  .v.p. .` +.y.y.t.t.t.u.g.g.f.r.=Xs . - * . * X B p.f.#.$.H.o.@.-.",
"a.y.i.i.i.f.l.= ; 8.kXuXxXK G p > J 0.! W W W U Y U R R R E E Q 7.G h w 3 2 3 3 3 V ! 0Xp.X.o.o.@.-.",
"q.' o.@.#.w.k.= ; 9.xXdXgXgXqXm * 1 2 o o o = = = = = * * * * - > = Z uX8XhXvX9XkXn # m ` H.o.o.-.-.",
"V.A.$.o.i.u.l.@ < n 8.cXyXsXfXb.9.3.8.5.8.5.8.6.6.6.6.6.5.5.5.6.Q Q >XqXuXhX8XjXhXn # H w.i.] :.-.@.",
"@.] -.O.X.t.l.@ $ c T gXtXtXtXrXyXlXlXlXlXlXcXgXzXzXzXzXzXzXzXzXpXzX2XwXiXyXpX8XuXC X S a.y.-.-.-.@.",
"Z.:.=.O.o.` r., , c v fXsX5X5XrXfXqXqXpXqX2XqXpXeXeXeXqXqXqXqXqXtX2XtX5XwX0X>Xx.=XB 6 H a.t.' ' -.$.",
"o.=.{ O.K.#.M.j f , $ fXsX6X3X&.| I I | | e.| I P P P P P P P P ^ I [ I [ rXtX$ $ b 7.m.w.$X&X-.C.C.",
"`.K.>.>.XX#.v.t f : > rX5X,X>.F N l z y q y 0 y u u u u u u u u u y F &.F !.<X@ @ 6 h ! 0.y.S.Z.`.).",
"4X_._.~.&.#.p.: = S r.rX3X!.} ( v 8 . O o +   o .   .   . . . . # X M I } 3XH...r.s . H -X+X`.%XXX}.",
"+Xi.Y.W.!.[.N.$ = 4.gXwX<X1.o.A k h * O + - o * * ; ; ; ; ; ; * = * D ) ( ;.4X#.f.m X H N.@X|.$.).'.",
"$X@XoXj.,X,Xb.= 8 G s.h.j.%.X.i % _ N.0XN.$XM.c.M.M.M.M.M.M.M.m.x.x.0 4 4X/ F ( e.s X G >Xn.'.<XY.'.",
"f.@Xh.&.,Xh.f.5 a =XB.b.:Xe.u.d & i.H.|.H.[.).#X+X+X+X+X+X+X+X$X=Xk.p @ 1X) ) ) e.p > Z >X@Xd.{.}.'.",
"@X'.d.h.@Xn.f.r.B 9 9 9 9 r 6 s ` i.oX|.^.^.|.oX}.}.}.}.).).).[.n.e.R _ : 0 7 7 3 C ^ e.h.#XG.G.).'.",
"W.Y.Y.'.@X@Xv.f.B : X = $ X X a f.^.oX}.}.}.|.}.}.}.}.}.}.}.}.}.}.oXu._ $ X . # # V b.n.'.}.H.K.).}.",
"!.!.E.}.oX|.[.n.R l j j j j x S @XoX}.^.}.|.}.H.}.}.}.}.}.}.}.}.H.}.g.f.l x k v j E 2X[.}.XXK.K.).}.",
"H.Q.~.E.H.H.^.[.p.u.v.w.r.M.M.v.@X}.H.H.}.|.}.'.}.}.}.}.}.}.}.E.H.H.i.+Xw.p.p.f.n.[.d.d.oXXXH.oX).}.",
",.~.~.Q.H.H.G.).|.i.g.g.t.i.g.#X^.H.^.}.}.}.}.}.}.}.}.}.}.}.}.E.H.H.C.i.t.t.t.).<X{.H.XXXXH.H.%X).}.",
"K.K.K.K.K.K.XXoXK.$.@.$.X.` i.oX).}.|.oX}.H.H.}.}.}.}.}.}.}.}.E.H.K.C.$.y.@.i.%X;.~.~.>.H.oXoXG.}.}.",
"K.H.H.Q.XXXXK.K.$.H.H.$.o.;.oXH.XX).}.oXoXG.G.XX).).).).).).).).K.H.@.C.C.-.$.K.~.<.,.>.>.<X<Xd.}.}.",
"E.E.G.G.G.G.>.;.;.;.;.;.o.O.K.H.XXH.H.).XX).).XX).).).).).).).).i.C.C.`.V.@.o.K.OX>.<.~.!.d.^.[.'.}.",
"|.|.|.|.G.H.$.$.$.;.;.$.$.$.H.oX).).).).}.}.).).).).}.XX}.G.H.d.i.C.A.A.@.@.;.K._.<.,.Q.Y.'.h.+X'.}.",
"[.[.[.^.^.d.d.i.i.$.$.$.@.$.C._.G.).).).).).).).).).}.}.).H.H.d.i.C.A.A.y.y.C.H.K.K.,.E.'.h.n.n.|.}.",
"[.[.^.g.g.d.g.H.i.i.i.$.@.@.C.D.G.G.).).).).).).XX).).G.G.H.H.H.C.C.A.y.i.y.i.C.H.H.Y.Y.'.[.N.n.[.}.",
"@X[.H.d.i.i.i.i.i.y.i.@.@.@.C.C.).).).).).).)._.XX).G.H.H.H.H.H.C.i.i.y.y.y.y.$.d.Y.E.Y.|.+X+X[.^.^.",
").^.H.i.i.i.i.C.i.i.y.@.@.@.V.C.).G.).).).).).).).G.H.H.i.i.i.;.;.=.$.@.y.y.t.+.i.Y.E.E.).oX#X).^.^.",
"C.C.;.;.C.C.C.C.y.y.y.@.y.y.V.y.H.G.G.G.G.G.G.G.G.H.H.i.i.i.i.;.=.=.=.$.y.y.y.+.$.H.G.H.H.K._.H.).).",
"=.;.;.;.:.:.Z.Z.@.@.@.@.y.V.V.@.C.H.H.H.H.H.H.H.H.H.H.i.i.i.i.;.*.*.=.-.@.@.y.$.+.>.H.;.;.K.K.C.G.H.",
";.;.:.C.:.;.-.-.@.@.@.-.-.V.V.@.C.$.C.C.C.C.C.C.C.C.C.C.C.C.C.;.{ 2.=.o.@.@.@.@.+.;.H.=.=.;.:.;.H.H.",
"C.$.$.C.C.@.@.@.@.@.@.@.@.@.@.@.@.@.@.@.@.@.@.@.@.C.C.$.C.C.@.V.$.$.$.$.$.@.$.$.$.$.$.$.@.$.-.-.@.@.",
"C.i.i.C.C.@.@.@.@.@.@.@.@.@.@.@.@.@.@.@.@.-.@.V.@.C.C.V.C.C.@.V.@.@.@.@.$.@.@.@.@.@.@.@.@.@.@.-.@.@."
};
