/* XPM */
static char *_49dc97da8d14d64ce9e07adc74fc5e2nadJstW6PNA4OfvL[] = {
/* columns rows colors chars-per-pixel */
"16 16 22 1 ",
"  c black",
". c #1C1030",
"X c None",
"o c #170625",
"O c #77271B",
"+ c #A43E0E",
"@ c #9A3C20",
"# c #BA5125",
"$ c #E88D31",
"% c #CF732D",
"& c #C76429",
"* c #E88D2F",
"= c #F3A940",
"- c #F3A83F",
"; c #E88C2F",
": c #F5CA5C",
"> c #F4A946",
", c #993B1E",
"< c #F9C17B",
"1 c #C57F5D",
"2 c #FFE18F",
"3 c white",
/* pixels */
"                ",
"    oooo        ",
"   oO+OOo       ",
"  o@#$%@Oo      ",
" oO#%##%#o      ",
" o@&*&=&&@o     ",
" o#%-;:>;%o     ",
" o,&%#;=&#@o    ",
" oO##&%;%&Oo    ",
" .oO@@#&&O<1o   ",
"  .ooo@@#@1<1oo ",
"    ..ooooo1<2<o",
"       ...Xo21o ",
"          .o1<o.",
"           .oo. ",
"                "
};
