/* XPM */
static char *acacd4ea8d784b1499bebaa25da8a4efPZtcVOTvOJoD8Bg0[] = {
/* columns rows colors chars-per-pixel */
"50 50 242 2 ",
"   c #374C5E",
".  c #3D5A6E",
"X  c #3A5469",
"o  c #3E5B74",
"O  c #3C5E79",
"+  c #3A5976",
"@  c #324C63",
"#  c #3E617B",
"$  c #45555C",
"%  c #595B5B",
"&  c #52645E",
"*  c #6A665C",
"=  c #445B6D",
"-  c #4B5D6D",
";  c #455867",
":  c #565A64",
">  c #445D73",
",  c #425E7A",
"<  c #4A5F78",
"1  c #555B73",
"2  c #4B616E",
"3  c #53626D",
"4  c #586568",
"5  c #456175",
"6  c #4B6274",
"7  c #45637C",
"8  c #4A647C",
"9  c #4C697E",
"0  c #43687D",
"q  c #526475",
"w  c #52667B",
"e  c #526B7D",
"r  c #586A79",
"t  c #666863",
"y  c #7C7568",
"u  c #6A7574",
"i  c #797678",
"p  c #6D6B6E",
"a  c #7C866D",
"s  c #85837C",
"d  c #968779",
"f  c #84907A",
"g  c #A88F7C",
"h  c #A8917F",
"j  c #D99B7A",
"k  c #C5986E",
"l  c #DCA475",
"z  c #DDA57C",
"x  c #DCAA7B",
"c  c #D5A877",
"v  c #DAB77E",
"b  c #DFAB6F",
"n  c #E2A574",
"m  c #E2A47C",
"M  c #E3AB7C",
"N  c #E9A57E",
"B  c #E7B47E",
"V  c #F7B17E",
"C  c #E3A16F",
"Z  c #385F80",
"A  c #3E6483",
"S  c #3D6988",
"D  c #4A5C86",
"F  c #446582",
"G  c #4B6582",
"H  c #456984",
"J  c #4C6A84",
"K  c #446C8B",
"L  c #4C6C8A",
"P  c #526D83",
"I  c #526E8A",
"U  c #576783",
"Y  c #4D7288",
"T  c #53728C",
"R  c #5B738B",
"E  c #587588",
"W  c #496D92",
"Q  c #4D7496",
"!  c #547594",
"~  c #5A7692",
"^  c #567A94",
"/  c #5B7A94",
"(  c #557B9B",
")  c #5C7D9A",
"_  c #537599",
"`  c #516894",
"'  c #657789",
"]  c #627E96",
"[  c #587BA2",
"{  c #4A77A0",
"}  c #5D829B",
"|  c #78838C",
" . c #63829C",
".. c #6D869B",
"X. c #698397",
"o. c #7B8C9D",
"O. c #778797",
"+. c #738E95",
"@. c #5C83A3",
"#. c #5782A7",
"$. c #5D8AB6",
"%. c #6385A4",
"&. c #648AA6",
"*. c #6B8AA4",
"=. c #6486AA",
"-. c #648AAC",
";. c #6B8DAC",
":. c #6B86A2",
">. c #738BA3",
",. c #788DA5",
"<. c #6E92AC",
"1. c #6490AC",
"2. c #7294AD",
"3. c #7A94AB",
"4. c #7996A9",
"5. c #648CB1",
"6. c #698FB2",
"7. c #628EBA",
"8. c #688CB7",
"9. c #6B94B2",
"0. c #6B96BA",
"q. c #6996B8",
"w. c #7395B4",
"e. c #759AB4",
"r. c #7C9CB5",
"t. c #7295BB",
"y. c #739BBB",
"u. c #7C9DBC",
"i. c #7996B4",
"p. c #7CA1BA",
"a. c #6A9AC4",
"s. c #7A9EC0",
"d. c #7BA2C3",
"f. c #868686",
"g. c #968D88",
"h. c #98978C",
"j. c #848C93",
"k. c #868D95",
"l. c #869398",
"z. c #979796",
"x. c #8E8F8A",
"c. c #A99889",
"v. c #B49A8A",
"b. c #B29D93",
"n. c #9BA299",
"m. c #AAA39A",
"M. c #B8A995",
"N. c #B2A68A",
"B. c #8494A4",
"V. c #989CA2",
"C. c #839CB5",
"Z. c #83A3BD",
"A. c #8BA2B9",
"S. c #95A8B9",
"D. c #9CA2A2",
"F. c #A8A6A5",
"G. c #BAACA3",
"H. c #B4B7B2",
"J. c #CC9C88",
"K. c #CCAB8C",
"L. c #CBA689",
"P. c #D4A483",
"I. c #DEA583",
"U. c #DBAB83",
"Y. c #DBAC8B",
"T. c #D6A889",
"R. c #DDB485",
"E. c #DDBA85",
"W. c #DCB38B",
"Q. c #DCBB8B",
"!. c #D6B589",
"~. c #C6AD96",
"^. c #D6AC93",
"/. c #CBB597",
"(. c #DDBB92",
"). c #DCBD9C",
"_. c #D5B797",
"`. c #C7B287",
"'. c #E1A681",
"]. c #E3AD83",
"[. c #E4AC8A",
"{. c #E7A886",
"}. c #E4B484",
"|. c #EAB683",
" X c #E3BA85",
".X c #ECBA84",
"XX c #E3B48A",
"oX c #E9B58C",
"OX c #E4BB8B",
"+X c #EBBA8C",
"@X c #E2BB93",
"#X c #E7B694",
"$X c #EEAF94",
"%X c #C8B9A7",
"&X c #D4BBA7",
"*X c #E2BFA1",
"=X c #E19F89",
"-X c #DAC297",
";X c #E6C28F",
":X c #DAC2A5",
">X c #D5C8B3",
",X c #E2CAA9",
"<X c #83A6C3",
"1X c #8BABCA",
"2X c #86A8C6",
"3X c #93ADC8",
"4X c #97B3C8",
"5X c #9ABCD5",
"6X c #A6B9C9",
"7X c #9EC0D9",
"8X c #A8C5DA",
"9X c #B4CBDC",
"0X c #B9CDDC",
"qX c #BCD2DE",
"wX c #ABC8E5",
"eX c #B4D1E5",
"rX c #B2D2E9",
"tX c #CFD5D5",
"yX c #C2D4E2",
"uX c #CBDCEB",
"iX c #CAD8E5",
"pX c #D3DDE3",
"aX c #D3DEE9",
"sX c #C6DFF6",
"dX c #CEE1EC",
"fX c #D6E1E6",
"gX c #DAE3E6",
"hX c #D5E3EC",
"jX c #DAE4EB",
"kX c #DFE8ED",
"lX c #CDE3F3",
"zX c #C9E5FA",
"xX c #D4E5F2",
"cX c #DCE7F2",
"vX c #D5E9F5",
"bX c #DBE9F3",
"nX c #D4EAFB",
"mX c #DBEEFE",
"MX c #D8F5FF",
"NX c #E2ECF6",
"BX c #E7F3FE",
"VX c #E1E9ED",
/* pixels */
"z I.m m m {.N m m '.I.U.P.P.K.U.l n M U.K.M.F.V.>.>.>.B.F.G.~.W.M C l P.T.^.T.P.z n n n n x x z z z ",
"z m z z m m m j {.].].].W.W.!.W.x l c L.~.G.z.O.>.*.:.O.k.g.v.L.z M ].[.Y.Y.Y.Y.].M n n n x x z z z ",
"m m z z z z z z oXXXXXXXXXXX}.XXW._.K.M.b.z.k...*.;.;.:.| f.c./.T.XXoXXXXXXXXXXX}.}.].x x x x z z z ",
"n l z x ].}.XXXXOXXXXX}.}.|.|.XX_.%XM.h.f.| ..2.-.8.-.;...j.z.%X&X@X@XXX}.+X+X}.XXXXE.R.U.U.x z z z ",
"n l z M }.XXOXOXE.OXOX X}.|..X@XG.D.j.| | ..*.-.7.7.#.5.:.o.O.V.%X&X).@X.X.X.XB  XQ.(.(.XX}.M m z z ",
"l l x M }. X XOXE.OXOXOXXX+X+X_.x.o...X. .%.-.5.7.$.{ 5.;.2.] k.V.G.&X:XOX XB .XE.Q.(.@X@XXXM M z z ",
"z z x }.}. Xv E.E.Q.Q.(.).).^.N.| *.;.;.&.@.@.5.$.#.W -.%.;.) ,.o.z.F.%X-X!.E. X XE.OXOXXX}.M m z z ",
"I.z x }..X XB  XE.Q._./.&X%Xm.f.3.-.-.-.6.-.( ( [ ( A @.! ) T :.>.| j.F.%X:X_.-XQ. X X X}.}.M m z z ",
"P.XXoX}.|.|.B .XQ.!.,XM.z.j.O...%.5.6.@.@.( F T F 7 o J T J / ) ] ,...| l.h.M.,XQ.OX|.B |..X}.z '.'.",
"Y.Y.XXoX+X.X}. X@X:X>Xz.| >.;.[ ;.6.;.@.) ! F T 5 = X 8 P 9 T ) ! *.;.:...| n.tX:X!.v .X.Xx x oXI.'.",
"T.Y.XXoX+X+XOX@X/.N.m.k.:.=.$.$.=. .%.) ^ T 7 P 2 ;   6 w > P ~ / ) ( @.&.} o.H.~._.OX+XoX}.U.Y.I.'.",
"P.Y.#X@XW.@X)./.c.s | o.;.$.$.7.! T / ! T J 5 8 q ; $ 3 q = 9 I ~ T W #.q.;...o.x.N./._.@X@XW.P.U.'.",
"x W.@X(._.:X%Xh.f.| ..:.=.q.7.[ I G T L J J 7 8 2 ; $ 2 6 . 7 F 7 I ( @.-.-.:.X.' i h.%X:X/.K.W.U.'.",
"x x OX).&X>XH.| o.>.:.9.=.-.-.[ ~ U I L F H 0 9 ; ; $ - 5 > F 7 o J / / ) =.;.%.R ' j.F.G.%X/.(.U.'.",
"b c Q.).%XH.S.,.*.-.@.y.@.^ ) X.R < J K A A A 7 o 5 ; ; > , K A 9 9 9 I / :.=.[ [ ;.2.o.z.m.~.K.U.'.",
"x c ).&Xz.l.4.2._ q.-.;.Y E / e < X G L A F O X 5 w = ; . 7 L F J 5 8 P R ~ _ W 8.5.-.*.O.| g.v.T.U.",
"K./.M.n.l.>.9.y.-.( ! / E P 9 8 5 > 8 X e e r uXuXxXiX' w = , 9 7 9 J 7 9 J J ) ;.-.%.*.>.R ' j.v.Y.",
"~.M.m.l.4.2.q.6.q.} T P 9 5 7 9 J o 8 w - l.yXbXcXaXhXiXA.O.5 8 9 J J 7 J ~ J J T *.*./ ^ ) %.,.g.b.",
"G.m.z.o.3.e.5.#.9.} J 9 8 > 7 9 X X X = ' yXiXaXiXNXaXbXyX9Xe   > . 7 9 9 o o ]  . .) ) =.%.%.*.| k.",
"F.V.l.,.i.y.-.( ( ! J 7 G 8 9 9 P X ; yXuXiXBXjXcXaXNXhXiXnX9Xw > > 8 8 5 o o ~ I J L ) ;.6.-.;.*.,.",
"B.B.3.2.w.8.#.Q A L J 7 J J , . > ' S.mXhXcXiXjXaXbXNXiXBXxXxXyX4XR . 5 R 8 @ 0 7 / %.@.( =.;.%.%. .",
",.3.i.w.5.#._ K A L G 7 8 > o 8 ] mXiXaXcXcXcXfXjXiXaXNXiXiXBXxXmXS.q X > > X 0 7 F ! ! W Q _ Q %.^ ",
"w.y.y.0.q.-.[ Q J J 8 8 8 = P S.nXyXxXBXaXaXaXjXgXBXpXaXcXbXaXaXuXhX6Xq   8 9 , L O Q y.d.s.d.d.2.' ",
"0.0.0.0.y.y.w.;.I J > 8 e > ,.mXxXxXxXhXcXjXjXjXpXVXaXjXbXiXjXbXhXhXvX0XB.5 @ J O H ;.<X2X2X2Xu.*.P ",
"0.0.q.0.y.q.<.e.%. .7 7 E 0XuXxXxXxXcXcXcXjXgXgXgXgXgXgXgXjXjXjXaXfXcXbXlX6X> 7 O &.2X2X2X1Xd.;.F F ",
"Q 0.d.9.9.e.e.2.2.*.J . ..0XxXbXhXhXhXfXfXjXjXjXgXgXgXgXgXgXjXjXNXjXjXdXlX9X~ X L <.2X<X2X1Xw.! F F ",
"K #.1.9.e.2.<.e.<.2.e.*.eXvXvXdXcXjXhXhXhXhXjXgXjXjXjXjXjXjXjXjXjXgXjXhXmXMX9X:.i.Z.1X1X2Xe.) F F F ",
"K H L  .2.2.<.e.e.e.y.<.8X9XqXbXhXfXhXhXcXcXfXfXjXjXjXjXjXjXjXjXgXgXbXaXxXmXnX<X3X2X2X1Xw./ F 7 F F ",
"# H 7 7 X.r.r.<.y.0.6.&.r.C.S.bXfXfXfXhXhXjXhXhXhXhXhXhXjXjXjXjXjXaXbXhXuXsXzX2X2X2X<X2./ 7 7 P 8 8 ",
"7 0 5 8 E X.*.y.q.a.a.d.e.4.B.yXbXbXcXhXhXfXhXjXhXhXhXhXjXjXjXjXgXpXjXbXmXnXeX2X<X1XZ./ , 7 G 8 8 6 ",
"8 8 < e P 7 L 9.0.a.a.a.6.3.B.6XiXhXxXxXhXhXhXxXhXhXhXhXhXhXjXjXjXgXjXhXnXlX3Xr.2XZ.:.J , 9 J 8 8 8 ",
"7 J 8 < < 8 G L $.7.a.0.t.u.3.,.4X8XyXlXxXxXhXxXhXhXhXhXjXjXgXgXpXjXcXuXlXzXZ.3XA.] 5 > 8 J 9 9 6 6 ",
"S H J e 6 q w 8 7 ) 6.0.0.t.w.w.i.r.>.lXmXvXdXfXhXgXgXgXgXgXgXpXVXpXxXlXzXrX2XZ.4.e 2 w 6 9 J 7 - 4 ",
"Y . X 6 q 1 q 8 J Y ( 1.y.t.0.t.;.r.2.rXlXlXvXcXhXjXgXgXgXjXjXkXgXhXlXnXMXrXp.p.E e 2 2 6 6 8 q i s ",
"h.u 4 3 q < G 9 0 0 0 E <.t.t.t.9.y.w.<X4X8XlXnXvXvXbXhXfXfXfXhXvXuXnXmX9X4XZ.^ # 9 5 2 q - 3 f.v.L.",
"_.M.g.u - 8 J F O 9 5 5 ) i.s.t.t.y.9.&.w.r.8X9X9XyXlXnXnXxXlXlXmXzXyX9XA.A.Z.O F F 7 8 q : i M.W.+X",
"+X@X~.d 4 > F F # J 9 > E *.i.t.0.q.y.9.y.*.r.r.Z.4XwXrXzXzXzXnXsXnX4XC.4XA. .F K A 0 q % * v.*XOX|.",
"V |.@X~.s 3 5 0 0 0 7 8 P P ) w.y.q.y.y.d.;.<.<.e.Z.3X5X7X8X8XwXwXwX3XA.A. .F K S # 9 3 % d _.@X}.}.",
"V B +X).M.x.u 2 8 , , G J , 0 } y.9.0.9.w.9.e.e.e.p.<X<X<XZ.<X<X1Xu.1XC.I , A F A 7 q u d K.@XXXOX@X",
"V B }.OX-X%Xh.4 q w G G J F 0 L %.&.9.<.9.e.w.w.w.e.p.<X<X<X2X2Xr.i.w.L O K K F H 6 4 x.&X).R.+X@X(.",
"}.oX+XXXW.).N.y % 3 8 J L F # H F J T ) *.i.e.e.i.e.e.e.r.u.u.Z.] T # K K Z K 0 e $ t M.-XQ. XOXXXOX",
";XR.R.oX#XW.K.v.* t 4 X 0 F W L F 8 G P / )  .} *.:. . ./ T T P 5 P H S S S H 5 $ y c./.!.Q.OX X X}.",
";XE.XX[.'.$X#X^./.N.f & 6 G ` D G 8 8 8 8 9 J J 0 0 0 9 8 9 8 8 = 6 7 O K Y 5 3 * c.:X@XE.E.Q.E. X X",
"v !.XX[.=X$X$XT.!./.N.a & - D D w 8 8 8 5 7 7 7 7 7 9 9 8 8 8 5 q 6 9 5 9 6 $ s g /.;XXXOXOXE.OXXX}.",
";Xc U.#X$X{.{.[.k !.`.N.* t 1 U w 8 8 8 9 0 7 0 J J 9 9 8 8 5 5 6 q r 3 : % * ~.K.@XXX}.+XOXE.OXXXXX",
"}.x x XX[.[.[.].].U.P._.h c.i : < 8 8 9 G F F F , , 7 9 9 8 8 e 7 8 3 : p d g ^.T.oXoXU.}.OXXXR.OXOX",
"m ].}.l c }.|.l {.j j J.^.&Xv.* q 9 7 7 F F F F L J J G 9 8 8 7 G 8 : i v.L.U.j z '.[.[.z ].}.].}.}.",
"{.'.].|.x c x z m j $XJ.T.L.K.y r w 8 7 F F F F F F F 0 9 9 8 8 G q p b.^.P.{.m '.j z [.z z ].}.z z ",
"m m m z x x x x m '.'.'.Y.T.L.M.x.: q 5 9 J H F 0 0 9 8 8 9 9 8 5 r v.J.T.I.I.'.m m z z I.I.z x z z ",
"m m m z x x z z z m '.'.I.P.P.L.g.: q 6 9 J F 7 0 0 8 8 8 8 9 8 e i J.I.].U.U.Y.m m z z I.I.z x z z "
};
