/* XPM */
static char *_ce1aee3e22d44ff8392eedeed24db80jRM4ThFqRTyhEEtT[] = {
/* columns rows colors chars-per-pixel */
"50 50 213 2 ",
"   c #040204",
".  c #060309",
"X  c #09010A",
"o  c #0D0709",
"O  c #150100",
"+  c #1B0300",
"@  c #150C06",
"#  c #1A0C06",
"$  c #12070E",
"%  c #150B0B",
"&  c #1B0D0A",
"*  c #1C110B",
"=  c #1B1009",
"-  c #0F0D12",
";  c #150E13",
":  c #190E14",
">  c #141115",
",  c #1B1112",
"<  c #1A141C",
"1  c #230601",
"2  c #240B04",
"3  c #2B0C03",
"4  c #220D0A",
"5  c #2B0E0B",
"6  c #330E05",
"7  c #330F09",
"8  c #231007",
"9  c #22110C",
"0  c #2F130A",
"q  c #2E1005",
"w  c #331106",
"e  c #3C1405",
"r  c #34140B",
"t  c #3A150D",
"y  c #35180E",
"u  c #3C1A0D",
"i  c #251312",
"p  c #2E1611",
"a  c #2C1914",
"s  c #2D1C1C",
"d  c #251B1C",
"f  c #331612",
"g  c #3A1611",
"h  c #351A12",
"j  c #3B1B13",
"k  c #331D1B",
"l  c #3A1F18",
"z  c #261D20",
"x  c #311E20",
"c  c #232029",
"v  c #3A2D2C",
"b  c #382523",
"n  c #3F312E",
"m  c #282C32",
"M  c #3A2E30",
"N  c #2F3239",
"B  c #333237",
"V  c #3B3334",
"C  c #33333B",
"Z  c #3A373B",
"A  c #421906",
"S  c #401609",
"D  c #441B0C",
"F  c #491E0E",
"G  c #431D13",
"H  c #491E11",
"J  c #46200F",
"K  c #4B230F",
"L  c #432116",
"P  c #4B2213",
"I  c #44231B",
"U  c #4B261C",
"Y  c #4D291D",
"T  c #52251A",
"R  c #542B1D",
"E  c #5B2D1D",
"W  c #552615",
"Q  c #5E321E",
"!  c #57301F",
"~  c #632E1C",
"^  c #63321E",
"/  c #68341F",
"(  c #4D2C22",
")  c #482D29",
"_  c #522D24",
"`  c #5A2E22",
"'  c #512F29",
"]  c #522623",
"[  c #49362D",
"{  c #543024",
"}  c #5D3323",
"|  c #5E3C26",
" . c #54332B",
".. c #5C362B",
"X. c #553A2E",
"o. c #5D392C",
"O. c #4B3234",
"+. c #4A3A36",
"@. c #543533",
"#. c #593730",
"$. c #543B32",
"%. c #5C3A32",
"&. c #5C3E39",
"*. c #612F23",
"=. c #643423",
"-. c #6A3524",
";. c #653925",
":. c #6B3925",
">. c #62362B",
",. c #6B3628",
"<. c #643A2C",
"1. c #6B3B2B",
"2. c #713B27",
"3. c #743E2B",
"4. c #783F2E",
"5. c #623B32",
"6. c #6F3F32",
"7. c #653E39",
"8. c #753F30",
"9. c #4F4134",
"0. c #524233",
"q. c #594137",
"w. c #554438",
"e. c #5B423A",
"r. c #554938",
"t. c #6E412E",
"y. c #62412E",
"u. c #73412D",
"i. c #79422E",
"p. c #634037",
"a. c #6D4132",
"s. c #66473D",
"d. c #744333",
"f. c #7A4632",
"g. c #764835",
"h. c #7D4935",
"j. c #734B3B",
"k. c #7D4D3A",
"l. c #77473B",
"z. c #7E503B",
"x. c #373640",
"c. c #6B4B42",
"v. c #7D5C4B",
"b. c #765645",
"n. c #6C5146",
"m. c #7C604A",
"M. c #804733",
"N. c #814A35",
"B. c #814E39",
"V. c #895236",
"C. c #82513C",
"Z. c #8C563A",
"A. c #8E5A3D",
"S. c #935C3E",
"D. c #995E3E",
"F. c #825D4E",
"G. c #8C5C47",
"H. c #925B41",
"J. c #825E50",
"K. c #83634D",
"L. c #88664E",
"P. c #866D4F",
"I. c #8C644A",
"U. c #926146",
"Y. c #94634B",
"T. c #9D6648",
"R. c #9A724F",
"E. c #856352",
"W. c #896752",
"Q. c #866B52",
"!. c #8A6D52",
"~. c #866959",
"^. c #9C6D54",
"/. c #897154",
"(. c #9F7559",
"). c #A26C4C",
"_. c #A6714D",
"`. c #A06D52",
"'. c #A57458",
"]. c #8D7460",
"[. c #A07B60",
"{. c #DDA57D",
"}. c #DDAA7E",
"|. c #E1A37E",
" X c #E1AD7E",
".X c #D4A786",
"XX c #DCA681",
"oX c #D6AA87",
"OX c #DEAB81",
"+X c #D2A78B",
"@X c #D4AB8B",
"#X c #DAAD8B",
"$X c #D9A68B",
"%X c #D7B28E",
"&X c #DAB28D",
"*X c #DDB98E",
"=X c #DFB084",
"-X c #D3A990",
";X c #DCB593",
":X c #DCBA95",
">X c #DDBA9A",
",X c #E0A581",
"<X c #E2AC83",
"1X c #E4AE88",
"2X c #E4B485",
"3X c #E8B686",
"4X c #E4B986",
"5X c #E5B58A",
"6X c #E9B68A",
"7X c #E4B98A",
"8X c #E9B98B",
"9X c #E0BB93",
"0X c #E3B792",
/* pixels */
"}.{.{.|.|.|.|.XXoXv.o .             . . . . . . .         . . .   . . . X X     . X X O.+XOX{.{.{.{.",
"{.{.{.{.|.|.{.{.&XE.& ; % @ @ @ @ @ & & & & & @ @ @ # & & & & & @ & & # & & & & @ $ ; +.+X{.{.{.{.{.",
"{.{.{.{.XXOX<XOX;X~., ; d k e.n.b.b.b.v.v.F.F.J.K.K.K.K.E.E.E.K.Q.m.Q.W.E.~.].X.$.i & $.#X{.{.|.{.{.",
"|.|.{.{.OX2X5X5X:XQ.& & b I c.F.G.U.U.U.Y.Y.^.^.^.^.^.^.^.^.^.^.(.R.'.'.'.(.[.| s.8 # q.;X}.{.|.{.{.",
"|.{.{.OX2X5X8X7X:XQ.= & ) H l.G.H.S.S.S.H.U.T.T.T.).).).).).).)._.)._.).'.`.'.;.y.1 4 q.;X<X<X{.{.{.",
"{.{.}.<X5X7X5X7X:XP.# & 7.>.k.N.V.V.V.V.V.Z.Z.Z.Z.Z.H.H.S.A.A.A.A.S.D.S.H.H.Y.;.5.3 = 0.;X5X1X{.{.{.",
"{.{. X2X7X7X5X5X;X!.= # 7.>.=.-.-.=.=.=.=.=.=.^ =.=.=.=.=.=.Q Q Q =.^ ~ =.E =.;. .1 & w.:X2X<XXX{.{.",
"{.{.}.2X7X5X5X7X9X!.# & s.1.E =.>.<.>.>.<.<.<.>.<.<.>.>.>.o.o.o.o...>.<.>.>.>.<.%.9 @ 0.:X=XOX{.{.{.",
"{.<X2X4X4X7X5X5X9XQ.= & f t E } Y w w 3 w w q w w 7 t t w 0 r r 0 w r 7 t r 6 o.$.8 @ 0.:X7X2X}.,X{.",
"{.<X2X4X4X7X5X5X9XQ.= % k j ! | { h h y j y y g j f f r h f h f h h g g j g r %.X.2 @ r.;X}. X<X|.{.",
"{.<X2X4X4X7X7X7X;XQ.* ; b l { o.' j w r w r u w w t g t g t w r y t t g j g r o.%.1 @ r.:X<X}.1X<X,X",
"|.<X2X4X4X7X7X7X9X/.= > V [ o...( f r p.5.o.....5.o.G G U %...o.<.<.>...( j w >.o.5 @ 0.;X6X2XOX,X{.",
",X<X2X4X4X7X7X*X*X!.* > Z ) ..>. .y 3 7.o.| } >.....t u U 5.| >.;.>.=...( y 6 5.#.2 & w.;X2X1X<X{.{.",
",X<X2X4X4X4X7X7X:X!.& ; Z n ..>.{ g w >.<.>.=.E | o.D u Y <.;.;.=.=.*.} ( y 7 5.%.2 @ w.;XOXOX1XOX,X",
"XX<X2X4X3X4X7X7X*X!.i ; V v ..<._ t 6 a.1.=.^ =.1.<.D D } g.u.-.=.-.;.>.( y 7 5...5 & $.&X2X2X}.{.{.",
"XX<X2X4X2X4X7X7X:X!.9 ; +.) o.>._ j e d.1.:.^ -.1.1.D F Q k.h.3.=.1.1.<.( y w 5.#.2 @ 0.&X2X2XOX{.{.",
"{.<X2X4X2X4X4X7X9X/.= , a y } >._ g e a.t.1.=.~ i.f.A D } k.h.2.-.,.:.<.( r r 5.%.2 @ 0.&X}.OX<X<XOX",
"{.OX<X2X7X2X2X7X*X/.= % h w ` <. .g e 1.t.:.=.~ M.h.A D } z.h.2.,.1.:.1._ r 6 %.%.2 # 0.%X2X1X<X{.{.",
"{.{.}.2X8X2X5X7X9X/.* * e.{ 1.1.' t e 1.d.1.-.~ N.N.D D } z.h.2.,.1.1.<.( r w %.@.2 # $.&X2X<X{.{.{.",
"|.{.{.2X6X6X2X5X*XP.= & c.5.1.1. .u e 1.1.=.=.~ N.h.D J =.z.h.:.-.1.;.<.( r w %.%.2 # 0.&X}.}.{.{.{.",
"|.{.{.<X2X2X1X<X0X!.9 & s.1.1.1. .u e d.d.d.d.f.M.h.D P =.C.h.1.-.1.:.<.( r w %.%.1 # 0.#X}.{.{.{.{.",
"|.|.{.{.<X<X<XOX&XL.4 & 5.;.1.1...j e g.d.f.h.N.N.h.D F =.B.h.1.-.1.:.<.( r w 5...2 # 0.@X{.{.{.{.{.",
"|.|.{.{.{.XXXXXX#XW.9 # ..E :.u...u e g.d.f.f.i.N.h.D F ^ B.h.1.-.,.:.1._ r 6 5...2 # $.+XXXXX{.{.{.",
"|.{.{.{.{.{.{.XX.XL.& & %.E :.1...u S d.f.2.:.~ N.h.D F =.B.h.:.*.>.;.<.( t 7 5.o.2 # $.-XXXXXXX{.{.",
"|.{.{.{.{.{.{.XXoXK.& & %.=.:.u...u e g.f.:./ ~ h.h.A F =.C.d.1.} o.o.p.) h q %...2 # $.+XXXXX{.{.{.",
"{.{.}.}.{.{.{.XX.XK.& & %.} :.u.o.j S d.u.:./ ~ h.k.D F =.C.g.R y f f l i 4 1 %.%.2 # $.+X{.{.{.{.{.",
"<X<XOXOXOX{.{.XX.XK.& &  .E -.1.{ u S d.f.i.i.3.f.k.D H =.k.l.u # @ @ & ; & + &.$.2 & $.+X}. X X<X<X",
"3X2X5X4X2X<XOXXXoXL.= &  .E :.u...j A 6.u.u.i.2.^ 1.D H =.C.g.1 @ > - ; - $ O $.X.1 # $.#X2X2X3X3X5X",
"3X4X7X7X4X4X2X2XoXK.& &  .` :.u...u S 6.u.u.3.u.^ } G G =.z.j.1 $ m C B c ; O $.$.2 # 0.;X5X4X4X7X7X",
"2X4X4X7X4X5X5X5X#XL.= & #.` 1.1.o.j D d.d.3.3.3.=.>.G G =.k.j.1 $ m N C c ; O &.$.2 & 0.:X7X4X4X4X4X",
"4X4X4X4X4X5X5X5X&XQ.* & %.=.1.6...u D d.4.3.3.3.Q } G P ;.z.j.+ $ m Z Z c $ O &.$.2 # w.>X7X7X4X4X4X",
"4X4X4X4X7X7X5X5XoXK.& & %.} 1.8.o.j G d.8.i.3.3.:.t.G L >.k.j.1 @ $   X $ $ O &.$.2 & w.>X7X4X4X4X4X",
"7X4X4X4X3X2X4X*X&XK.= & $.{ 1.8...t G 6.4.4.8.u.u.1.D P } l.d.6 # & & & % & + &.$.1 # 0.:X5X4X4X4X4X",
"7X4X4X4X3X2X4X7X*XW.# @ $...1.3...u G a.4.4.d.d.u.u.A P =.l.d.S g p p p a i 2 &.$.1 # 0.:X4X4X4X4X4X",
"7X4X4X4X2X4X4X7X%XQ.& % b j =.1.o.u J a.u.i.u.u.u.u.A K } h.u.T G G G I l f 3 %.#.2 & w.>X7X7X7X4X4X",
"7X4X7X7X4X2X4X5X@XL.* ; , 2 ` 8.| u D a.u.:.^ ^ u.u.A K ^ g.u.:.1.<.<.>.( y 7 %.o.2 & 0.>X7X7X7X4X4X",
"4X4X4X7X7X7X5X5X;XQ.& ; z a >.1...D H d.i.:.~ W u.u.A P ^ f.3.:.;.1.1.<.U r 6 5.%.2 # 0.:X7X7X4X4X4X",
"7X4X7X7X7X7X7X7X&XQ.& ; B v >.d...D D d.f.:.~ E d.u.D P =.f.3.-.;.;.;.;.U r 6 o.%.2 # 0.:X7X4X7X4X4X",
"4X4X7X7X7X7X5X2X@XW.& ; Z v o.d.o.G D a.d.-.E E d.t.D H E g.d.1.:.;.;.<.U y 6 o.%.2 @ 0.:X4X4X4X4X4X",
"4X4X7X7X7X4X<XXX;XW.* - x.V o.t...G S a.d.=.} E =.;.P P } d.u.-.=.=.;.<.Y r 3 %.%.2 # 0.:X4X4X4X4X4X",
"4X4X7X7X4X2X<X<X#XL.* ; x.M o.u.<.G t a.d.;.=.E ;.=.P H =.d.u.-.~ / -.;.Y r 6 o. .2 @ 9.:X7X5X4X7X7X",
"4X2X4X4X2X2X<X<X#XL.& - < i ..d.>.G t a.a.=.E } >.>.H G E d.d.=.~ -.-.;.T t 7 5.o.2 @ 0.>X7X4X7X4X4X",
"2X2X2XOX}.2X<XOX5XL.* ; ; 4 { 1.>.G t >.a.;.{ ..<.>.G U } d.g.;.=.;.;.>.Y t 6 5.%.2 @ 0.:X7X2X7X7X7X",
"5X5X2X}.}. X<X<X#XL.& ; i 5 R } Y u u Y U U U ( Y { G L Y a.a.>.` { ..` I g 6 5.%.2 @ 0.:X7X2X2X2X4X",
"5X2X2X2X2X<X<X<X#XK.& , O._ T W U j j j u u j j j j h h r u u L L G L L j h r 5.X.2 # 0.;X4X3X2X2X4X",
"OXOX2XOXOX<X<XOX.XK., $ O.] T E U g y u u u j r y y j h r j u j G G G G j j u %.o.2 # 0.%X2X2X2X2X2X",
"XXOX<X}.OX<X X{..XK.* % @.` R T ` _ _ _ R R _ ( ' ( ( ( ` ` R ` ` R R R _ _ T 5.o.3 & 0.@XOX2X<X2X2X",
"2X<X<X2X2X}.{.XX.Xv.& > @.' .._  .( ' ( _ (  .( ( '  .' ' _  ._ _ _ _  .'  ._ %.$.2 & $.+X{.OX<XOX}.",
"<XOX<X<X}.{.{.XX$XK.& > d s s s s s s s s s s s s s s x s k k k s s s s s s s s d , % $.@X{.{.<X<X{.",
"OX{.{.{.{.{.{.XX$XE.@ - > > ; ; ; ; ; ; ; ; ; ; ; ; ; : ; : : : ; ; ; ; ; ; ; ; < ; % $.oX{.{.XX,X{."
};
