/* XPM */
static char *result[] = {
/* columns rows colors chars-per-pixel */
"112 83 9 1 ",
"  c #3A5267",
". c #446078",
"X c #49657D",
"o c #567895",
"O c #678BAA",
"+ c #6F97B8",
"@ c #82A9CA",
"# c #D7E3ED",
"$ c None",
/* pixels */
"$$$$$$$$$$$$$$$$$$$$$$$$$$$$$$$$$$$$$$$$$$$$$$$$$$$$$$$$$$$$$$$$$$$$$$$$$$$$$$$$$$$$$$$$$$$$$$$$$$$$$$$$$$$$$$$$",
"$$$$$$$$$$$$$$$$$$$$$$$$$$$$$$$$$$$$$$$$$$$$$$$$$$$OOOOOOOOOOOO$$$$$$$$$$$$$$$$$$$$$$$$$$$$$$$$$$$$$$$$$$$$$$$$$",
"$$$$$$$$$$$$$$$$$$$$$$$$$$$$$$$$$$$$$$$$$$$$$$$$$OOOOOOOOOOOOOOOOO$$$$$$$$$$$$$$$$$$$$$$$$$$$$$$$$$$$$$$$$$$$$$$",
"$$$$$$$$$$$$$$$$$$$$$$$$$$$$$$$$$$$$$$$$$$$$$$$$$OOOOOOOOOOOOOOOOO$$$$$$$$$$$$$$$$$$$$$$$$$$$$$$$$$$$$$$$$$$$$$$",
"$$$$$$$$$$$$$$$$$$$$$$$$$$$$$$$$$$$$$$$$$$$$$$OOOOOOOOOOOOOO.OOOOOOO$$$$$$$$$$$$$$$$$$$$$$$$$$$$$$$$$$$$$$$$$$$$",
"$$$$$$$$$$$$$$$$$$$$$$$$$$$$$$$$$$$$$$$$$$$OOOOOOOOOOOOOOOOO.OOOOOOOO$$$$$$$$$$$$$$$$$$$$$$$$$$$$$$$$$$$$$$$$$$$",
"$$$$$$$$$$$$$$$$$$$$$$$$$$$$$$$$$$$$$$$$$OOOOOOOOOOOOOOOOOOO.OOOOOOOO$$$$$$$$$$$$$$$$$$$$$$$$$$$$$$$$$$$$$$$$$$$",
"$$$$$$$$$$$$$$$$$$$$$$$$$$$$$$$$$$$$$$$OOOOOOOOOOOOOOOOOOOOO.OOOOOOOOOO$$$$$$$$$$$$$$$$$$$$$$$$$$$$$$$$$$$$$$$$$",
"$$$$$$$$$$$$$$$$$$$$$$$$$$$$$$$$$$$$$OOOOOOOOOO.OOOOOOOOOOO.OOOOOOOOOOOOO$$$$$$$$$$$$$$$$$$$$$$$$$$$$$$$$$$$$$$$",
"$$$$$$$$$$$$$$$$$$$$$$$$$$$$$$$$$$$$$OOOOOOOOOO.OOOOOOOOOOO.OOOOOOOOOOOOOO$$$$$$$$$$$$$$$$$$$$$$$$$$$$$$$$$$$$$$",
"$$$$$$$$$$$$$$$$$$$$$$$$$$$$$$$$$$$$OOOOOOOOOOOO.OOOOOOOOOO.OOOOOOOOO.OOOOO$$$$$$$$$$$$$$$$$$$$$$$$$$$$$$$$$$$$$",
"$$$$$$$$$$$$$$$$$$$$$$$$$$$$$$$$$$OOOOOOOOOOOOOOO.Ooooooooo.ooooOOOOO.OOOOOOOO$$$$$$$$$$$$$$$$$$$$$$$$$$$$$$$$$$",
"$$$$$$$$$$$$$$$$$$$$$$$$$$$$$$$$OOOOOOOOOOOOOOOOO.ooooooooo.ooooooOO.OOOOOOOOOOOO$$$$$$$$$$$$$$$$$$$$$$$$$$$$$$$",
"$$$$$$$$$$$$$$$$$$$$$$$$$$$$$OOOOOOOOOOOOOOOOOOoo..oooooo...oooooo..OOOOOOOOOOOOOOOO$$$$$$$$$$$$$$$$$$$$$$$$$$$$",
"$$$$$$$$$$$$$$$$$$$$$$$$$$$OOOOOOOO.OOOOOOOOOOoooo.oooXXX   XXXXoo.ooooooOOOOOOOOOOOO$$$$$$$$$$$$$$$$$$$$$$$$$$$",
"$$$$$$$$$$$$$$$$$$$$$$$$$$$OOOOOOOO.OOOOOOOOOOoooo.oooXXX   XXXXoo.ooooooOOOOOOOOOOOO$$$$$$$$$$$$$$$$$$$$$$$$$$$",
"$$$$$$$$$$$$$$$$$$$$$$$$OOOOOOOOOOOO.OOOOOOooooooo.XXXXXX   XXXXXX.ooooooooOOOOOOOOOOOOO$$$$$$$$$$$$$$$$$$$$$$$$",
"$$$$$$$$$$$$$$$$$$$$$OOOOOOOOOOOOOOOO.OOOOoooooooXXXXXXXX   XXXXXX XXoooooooOO..OOOOOOOOO$$$$$$$$$$$$$$$$$$$$$$$",
"$$$$$$$$$$$$$$$$$$$$OOOOOOOOOOOOOOOOOO.OOoooooooXXXXXXXXX   XXXXXX XXooooooo..OOOOOOOOOOOOO$$$$$$$$$$$$$$$$$$$$$",
"$$$$$$$$$$$$$$$$$$$OOOOOOOOOOOOOOOOOoo..ooooooXXXXXXXXXXX   XXXXXX XXXXXXoo.ooOOOOOOOOOOOOOOOO$$$$$$$$$$$$$$$$$$",
"$$$$$$$$$$$$$$$$$$OOOOOOOOOOOOOOOOOOoo..ooooooXXXXXXXXXXX   XXXXXX XXXXXXoo.ooOOOOOOOOOOOOOOOOOO$$$$$$$$$$$$$$$$",
"$$$$$$$$$$$$$$$$$OOOOOOOOOOOOOOOOOOoooo.oooXXXXXXXXXXXXXX   XXXX   XXXXXXXo.ooooOOOOOOOOOOO..OOO$$$$$$$$$$$$$$$$",
"$$$$$$$$$$$$$$$$OOOOOOOOOOOOOOOOOoooooo.ooXXXXXXXXXXXXXXX   XXXX  XXXXXXXX.oooooooOOOOOOOO.OOOOOO$$$$$$$$$$$$$$$",
"$$$$$$$$$$$$$$+OOOOOOOOOOOOOOOooooooooo.oXXXXXXXXXXXXXXXX   XXX   XXXXXXXXXXXoooooooOOOOO.OOOOOOOOOOO$$$$$$$$$$$",
"$$$$$$$$$$$$$+++OOOOOOOOOOOOooooooooooo. XXXXXXXXXXXXX       XX XXXXXXXXXXXXXXoooooooOOO.OOOOOOOOOOOOOO$$$$$$$$$",
"$$$$$$$$$$$+++++++O.OOOOOOOoooooooooXXX  XXXXXXXXX              XXXXXXXXXXXXXXXXXooooooo.OOOOOOOOOOOOOOOOO$$$$$$",
"$$$$$$$$$$+++++++++O.OOOOOOoooooooooXXX  XXXXXXXXX      ###     XXXXXXXXXXXXXXXXXooooooo.OOOOOOOOOOOOOOOOOO$$$$$",
"$$$$$$$$++++++++++++O.OOooooooXXXXXXXXX  XXXXXXX    #########      XXXXXXXXXXXXXXXXXooo..OOOOOOOOOOOOO...OOO$$$$",
"$$$$$$$+++++++++++++++..ooooXXXXXXXXXXX  XXXXX    #############     XXXXXXXXXXXXXXXXXoo.ooOOOOOOOOOOO.OOOOOOO$$$",
"$$$$$$+++++++++++++++oo...oXXXXXXXXXXXX  XXX    ##################    XXXXXXXXXXXXXXX...ooooooOOOO...OOOOOOOOO$$",
"$$$$$++++++++..+O+++ooooXXXXXXXXXXXXXXX        ####################      XXXXXXXXXXXX  ooooooooOO.OOOOOOOOOOOOO$",
"$$$$+++++++++++.O+++ooooXXXXXXXXXXXXXXX      #######################     XXXXXXXXXXXX  ooooooooOO.OOOOOOOOOOOOO$",
"$$++++++++++++++...ooooXXXXXXXXXXXXXXXX    ###########################     XXXXXXXXXX  ooooooo...OOOOOOOOOOOOOO$",
"$++++++++++++++oo...oXXXXXXXXXXXXXXX      ##############################    XXXXXXXXX  XXXXoo..OOOOOOOOOOOOOOOO$",
"$+++++++++++++ooooo.XXXXXXXXXXXXXXX     ##################################    XXXXXXX  XXXXXX.OOOOOOOOOOOOOOOOO$",
"$+++++++++++....oXXXXXXXXXXXXXXXX     #####################################     XXXXX  XXXXXX.oOO............OO$",
"$+++++++++..++++.XXXXXXXXXXXXXXX    #########################################     XXX  XXXXXXXo...@@@@@@@@@@@XX$",
"$+++++++++++++++.XXXXXXXXXXXXXXX  #############################################   XXX  XXXXXXXo..@@@@@@@@@@@@XX$",
"$++++++++++++++++XXXXXXXXXXXXX   ###############################################       XXXXXXX..@@@@@@@@@@@@@XX$",
"$++++++++++++++++++XXXXXXXXXX   ##################################################     XXXXXX @@@@@@@@@@@@@@XXX$",
"$+++++++++++++++++++XXXXXXX   ######################################################    XXX  @@@@@@@@@@@@@@XXXX$",
"$++++++++++++++++++++++XXX   ########################################################      @@@@@@@@@@@@@@@XXXXX$",
"$X+++++++++++++++++++++XXX   #########################################################     @@@@@@@@@@@@@@XXXXXX$",
"$XX+++++++++++++++++++++++ ############################################################   @@@@@@@@@@@@@@XXXXXXX$",
"$XXXX++++++++++++++++++++++#############################################################@@@@@@@@@@@@@@XXXXXXXXX$",
"$XXXXXX+++++++++++++++++++++############################################################@@@@@@@@@@@@@XXXXXXXXXX$",
"$XXXXXXXX+++++++++++++++++++++#########################################################@@@@@@@@@@@@@XXXXXXXXXXX$",
"$XXXXXXXXX+++++++++++++++++++++++######################################################@@@@@@@@@@@@XXXXXXXXXXXX$",
"$XXXXXXXXXX++++++++++++++++++++++######################################################@@@@@@@@@@XXXXXXXXXXXXXX$",
"$XXXXXXXXXXXX+++++++++++++++++++++###################################################@@@@@@@@@@@XXXXXXXXXXXXXXX$",
"$XXXXXXXXXXXXXX++++++++++++++++++++##################################################@@@@@@@@@@XXXXXXXXXXXXXXXX$",
"$XXXXXXXXXXXXXXX++++++++++++++++++++#################################################@@@@@@@@@XXXXXXXXXXXXXXXXX$",
"$XXXXXXXXXXXXXXXXXX++++++++++++++++++++##############################################@@@@@@@XXXXXXXXXXXXXXXXXXX$",
"$XXXXXXXXXXXXXXXXXXXX+++++++++++++++++++++##########################################@@@@@@@XXXXXXXXXXXXXXXXXXXX$",
"$XXXXXXXXXXXXXXXXXXXXX++++++++++++++++++++##########################################@@@@@@@XXXXXXXXXXXXXXXXXXXX$",
"$XXXXXXXXXXXXXXXXXXXXXX++++++++++++++++++++#########################################@@@@@@XXXXXXXXXXXXXXXXXXXX$$",
"$$XXXXXXXXXXXXXXXXXXXXXXXX++++++++++++++++++++#####################################@@@@@@XXXXXXXXXXXXXXXXXXXX$$$",
"$$$$XXXXXXXXXXXXXXXXXXXXXXX+++++++++++++++++++++##################################@@@@@@XXXXXXXXXXXXXXXXXXXX$$$$",
"$$$$$XXXXXXXXXXXXXXXXXXXXXXX++++++++++++++++++++++###############################@@@@@@@XXXXXXXXXXXXXXXXXXX$$$$$",
"$$$$$$XXXXXXXXXXXXXXXXXXXXXX++++++++++++++++++++++###############################@@@@@@XXXXXXXXXXXXXXXXXXX$$$$$$",
"$$$$$$$XXXXXXXXXXXXXXXXXXXXXX++++++++++++++++++++++++@@@@@@##################@@@@@@@@@XXXXXXXXXXXXXXXXXX$$$$$$$$",
"$$$$$$$$$XXXXXXXXXXXXXXXXXXXXXX++++++++++++++++++++++++@@@@@@@@@############@@@@@@@@XXXXXXXXXXXXXXXXXXX$$$$$$$$$",
"$$$$$$$$$$XXXXXXXXXXXXXXXXXXXXXXX+++++++++++++++++++++++@@@@@@@@@@@@@@@@@@@@@@@@@@@XXXXXXXXXXXXXXXXXXX$$$$$$$$$$",
"$$$$$$$$$$$$XXXXXXXXXXXXXXXXXXXXXX+++++++++++++++++++++++@@@@@@@@@@@@@@@@@@@@@@@@XXXXXXXXXXXXXXXXXXXX$$$$$$$$$$$",
"$$$$$$$$$$$$$XXXXXXXXXXXXXXXXXXXXXX++++++++++++++++++++++++@@@@@@@@@@@@@@@@@@@@@XXXXXXXXXXXXXXXXXXXX$$$$$$$$$$$$",
"$$$$$$$$$$$$$$XXXXXXXXXXXXXXXXXXXXXX+++++++++++++++++++++++@@@@@@@@@@@@@@@@@@@@XXXXXXXXXXXXXXXXXXXX$$$$$$$$$$$$$",
"$$$$$$$$$$$$$$$XXXXXXXXXXXXXXXXXXXXXXXX+++++++++++++++++++++++@@@@@@@@@@@@@@XXXXXXXXXXXXXXXXXXXXX$$$$$$$$$$$$$$$",
"$$$$$$$$$$$$$$$$$XXXXXXXXXXXXXXXXXXXXXXXXXXX+++++++++++++++++++++++@@@@XXXXXXXXXXXXXXXXXXXXXXXXX$$$$$$$$$$$$$$$$",
"$$$$$$$$$$$$$$$$$$$XXXXXXXXXXXXXXXXXXXXXXXXXXXXX++++++++++++++++XXXXXXXXXXXXXXXXXXXXXXXXXXXXXX$$$$$$$$$$$$$$$$$$",
"$$$$$$$$$$$$$$$$$$$$$XXXXXXXXXXXXXXXXXXXXXXXXXXXXXXXXXXXXXXXXXXXXXXXXXXXXXXXXXXXXXXXXXXXXXXXX$$$$$$$$$$$$$$$$$$$",
"$$$$$$$$$$$$$$$$$$$$$$XXXXXXXXXXXXXXXXXXXXXXXXXXXXXXXXXXXXXXXXXXXXXXXXXXXXXXXXXXXXXXXXXXXXXX$$$$$$$$$$$$$$$$$$$$",
"$$$$$$$$$$$$$$$$$$$$$$$$XXXXXXXXXXXXXXXXXXXXXXXXXXXXXXXXXXXXXXXXXXXXXXXXXXXXXXXXXXXXXXXXXXX$$$$$$$$$$$$$$$$$$$$$",
"$$$$$$$$$$$$$$$$$$$$$$$$$$$XXXXXXXXXXXXXXXXXXXXXXXXXXXXXXXXXXXXXXXXXXXXXXXXXXXXXXXXXXXXXX$$$$$$$$$$$$$$$$$$$$$$$",
"$$$$$$$$$$$$$$$$$$$$$$$$$$$$XXXXXXXXXXXXXXXXXXXXXXXXXXXXXXXXXXXXXXXXXXXXXXXXXXXXXXXXXXX$$$$$$$$$$$$$$$$$$$$$$$$$",
"$$$$$$$$$$$$$$$$$$$$$$$$$$$$$$XXXXXXXXXXXXXXXXXXXXXXXXXXXXXXXXXXXXXXXXXXXXXXXXXXXXXXX$$$$$$$$$$$$$$$$$$$$$$$$$$$",
"$$$$$$$$$$$$$$$$$$$$$$$$$$$$$$$$XXXXXXXXXXXXXXXXXXXXXXXXXXXXXXXXXXXXXXXXXXXXXXXXXXX$$$$$$$$$$$$$$$$$$$$$$$$$$$$$",
"$$$$$$$$$$$$$$$$$$$$$$$$$$$$$$$$$XXXXXXXXXXXXXXXXXXXXXXXXXXXXXXXXXXXXXXXXXXXXXXXX$$$$$$$$$$$$$$$$$$$$$$$$$$$$$$$",
"$$$$$$$$$$$$$$$$$$$$$$$$$$$$$$$$$$XXXXXXXXXXXXXXXXXXXXXXXXXXXXXXXXXXXXXXXXXXXXXX$$$$$$$$$$$$$$$$$$$$$$$$$$$$$$$$",
"$$$$$$$$$$$$$$$$$$$$$$$$$$$$$$$$$$$XXXXXXXXXXXXXXXXXXXXXXXXXXXXXXXXXXXXXXXXXXXX$$$$$$$$$$$$$$$$$$$$$$$$$$$$$$$$$",
"$$$$$$$$$$$$$$$$$$$$$$$$$$$$$$$$$$$$XXXXXXXXXXXXXXXXXXXXXXXXXXXXXXXXXXXXXXXXX$$$$$$$$$$$$$$$$$$$$$$$$$$$$$$$$$$$",
"$$$$$$$$$$$$$$$$$$$$$$$$$$$$$$$$$$$$$$XXXXXXXXXXXXXXXXXXXXXXXXXXXXXXXXXXXXXX$$$$$$$$$$$$$$$$$$$$$$$$$$$$$$$$$$$$",
"$$$$$$$$$$$$$$$$$$$$$$$$$$$$$$$$$$$$$$$XXXXXXXXXXXXXXXXXXXXXXXXXXXXXXXXXXX$$$$$$$$$$$$$$$$$$$$$$$$$$$$$$$$$$$$$$",
"$$$$$$$$$$$$$$$$$$$$$$$$$$$$$$$$$$$$$$$$$XXXXXXXXXXXXXXXXXXXXXXXXXXXXXXX$$$$$$$$$$$$$$$$$$$$$$$$$$$$$$$$$$$$$$$$"
};
