/* XPM */
static char *c68971defdee43f59d6f2fffa12922c70ll79apcVBQt6ykY[] = {
/* columns rows colors chars-per-pixel */
"50 50 256 2 ",
"   c #0D0401",
".  c #090701",
"X  c #140401",
"o  c #1A0402",
"O  c #130A03",
"+  c #1C0B02",
"@  c #170B0A",
"#  c #191309",
"$  c #1D1412",
"%  c #191916",
"&  c #170D12",
"*  c #240402",
"=  c #2C0504",
"-  c #230C03",
";  c #2A0B02",
":  c #270C0C",
">  c #330403",
",  c #380908",
"<  c #2C1B0E",
"1  c #271508",
"2  c #371909",
"3  c #390C11",
"4  c #231512",
"5  c #2A1B15",
"6  c #281A17",
"7  c #371916",
"8  c #240E12",
"9  c #3C260C",
"0  c #29231B",
"q  c #332215",
"w  c #33231B",
"e  c #3A2819",
"r  c #2B1C21",
"t  c #391F22",
"y  c #292725",
"u  c #3B2B2D",
"i  c #372925",
"p  c #3B342A",
"a  c #393633",
"s  c #30322F",
"d  c #0B2824",
"f  c #430809",
"g  c #461A07",
"h  c #400F11",
"j  c #471A18",
"k  c #551B18",
"l  c #58130C",
"z  c #671C18",
"x  c #731011",
"c  c #462606",
"v  c #452617",
"b  c #572819",
"n  c #49341D",
"m  c #593517",
"M  c #5A2E0C",
"N  c #682716",
"B  c #792916",
"V  c #723116",
"C  c #571921",
"Z  c #461D24",
"A  c #701B2B",
"S  c #442B25",
"D  c #492626",
"F  c #582827",
"G  c #4A332C",
"H  c #463729",
"J  c #57372A",
"K  c #592A32",
"L  c #483934",
"P  c #593936",
"I  c #492C32",
"U  c #662729",
"Y  c #782628",
"T  c #653926",
"R  c #662833",
"E  c #663737",
"W  c #783632",
"Q  c #384638",
"!  c #58442A",
"~  c #484638",
"^  c #594639",
"/  c #4B4831",
"(  c #68462B",
")  c #674736",
"_  c #754838",
"`  c #685338",
"'  c #785537",
"]  c #7B4829",
"[  c #5D421A",
"{  c #643A40",
"}  c #285D5B",
"|  c #3A5957",
" . c #304D4A",
".. c #31615E",
"X. c #345C60",
"o. c #2A6767",
"O. c #386668",
"+. c #3A6E73",
"@. c #564A44",
"#. c #44575B",
"$. c #4E504C",
"%. c #644743",
"&. c #764A46",
"*. c #675649",
"=. c #775745",
"-. c #695957",
";. c #755B56",
":. c #7A664B",
">. c #796759",
",. c #6C6555",
"<. c #576B65",
"1. c #496D71",
"2. c #7A6C6A",
"3. c #70706A",
"4. c #40605F",
"5. c #881210",
"6. c #852B17",
"7. c #87331B",
"8. c #95341C",
"9. c #892A26",
"0. c #973527",
"q. c #8C332E",
"w. c #A73726",
"e. c #AD3334",
"r. c #A53C1F",
"t. c #C3333C",
"y. c #86462B",
"u. c #864834",
"i. c #895938",
"p. c #96553C",
"a. c #96492D",
"s. c #B7593B",
"d. c #A85135",
"f. c #946938",
"g. c #886235",
"h. c #B06636",
"j. c #C2683D",
"k. c #C0453D",
"l. c #962F44",
"z. c #AB3B4A",
"x. c #C83C49",
"c. c #CF3D4F",
"v. c #865547",
"b. c #955845",
"n. c #8A5B54",
"m. c #8C4748",
"M. c #AD504E",
"N. c #8A6648",
"B. c #866856",
"V. c #966A57",
"C. c #89735B",
"Z. c #987758",
"A. c #986F49",
"S. c #B67849",
"D. c #A37958",
"F. c #AE6B4E",
"G. c #876863",
"H. c #877965",
"J. c #987966",
"K. c #937574",
"L. c #B77E64",
"P. c #AC6D6F",
"I. c #B14B61",
"U. c #C64344",
"Y. c #C97254",
"T. c #C07D63",
"R. c #9C8258",
"E. c #A5835B",
"W. c #B88657",
"Q. c #998368",
"!. c #978577",
"~. c #928A79",
"^. c #A98866",
"/. c #B28969",
"(. c #B59466",
"). c #A88A75",
"_. c #B58B73",
"`. c #AA957B",
"'. c #B69677",
"]. c #AB946A",
"[. c #BCA278",
"{. c #C4834C",
"}. c #D08A5A",
"|. c #C7876A",
" X c #D98568",
".X c #C79A77",
"XX c #D59D79",
"oX c #CE9073",
"OX c #E99569",
"+X c #EB9472",
"@X c #D5A47E",
"#X c #DCA57D",
"$X c #DEA97D",
"%X c #D7A679",
"&X c #C6AB7E",
"*X c #E1A37D",
"=X c #E2AA7E",
"-X c #F1A971",
";X c #E28E5F",
":X c #567E86",
">X c #C97C8C",
",X c #6D9393",
"<X c #6E9AA1",
"1X c #939088",
"2X c #A99784",
"3X c #B59886",
"4X c #B1948F",
"5X c #ACA399",
"6X c #B7A998",
"7X c #BAA289",
"8X c #AEA2A3",
"9X c #B7AAA6",
"0X c #B8B3A7",
"qX c #8EA9AC",
"wX c #C89E85",
"eX c #D2898D",
"rX c #C9A688",
"tX c #D5A583",
"yX c #DCA582",
"uX c #DDAB83",
"iX c #D5AA8B",
"pX c #DAAC8B",
"aX c #D5A987",
"sX c #DCB58C",
"dX c #DDB98C",
"fX c #DBB486",
"gX c #CBA995",
"hX c #D5AB92",
"jX c #DCB493",
"kX c #DEB992",
"lX c #D7B598",
"zX c #CBB393",
"xX c #E1A482",
"cX c #E2AD83",
"vX c #E4AB8A",
"bX c #F9A485",
"nX c #E3B485",
"mX c #E4B985",
"MX c #E4B58A",
"NX c #EAB68B",
"BX c #E4BA8B",
"VX c #E9B989",
"CX c #E9B786",
"ZX c #E3B894",
"AX c #EEA998",
"SX c #CEB7A9",
"DX c #E1B7A1",
"FX c #E8C997",
"GX c #E5C28D",
"HX c #D6C7B1",
"JX c #E6CBA6",
"KX c #ECD6B2",
"LX c #DBC299",
"PX c #8FBEC6",
"IX c #ADD0D1",
"UX c #93C4C0",
/* pixels */
"%X$XyXyXxXxXxX#XuX@XyXtX.XaXyXyX#X#X#XxX#X*X*X*X*XxXxXxX*X*X*X*X*X*X#X#X#X$X#X#XyXyXyX$X#X%X@XyX#X#X",
"=X%XyXyXyXvXvXvXpXpXiX.X_ wXaXpX@XyXyX@XcX#X%X*X*XxX#X#XxX#X#XxX#X#XcXcXcXcXuXuXuXcXcX$X=X=XcX%X#X#X",
"%X#X#XvXjXjXlX/._.wXD.V.( J.).wXrXrXaX@X@XuX#X#X#X#X#X#X#X#XuX@XyX#XcXNXNXnXVXCXMXVXCXVXnX=XuXyX#X#X",
"CXNXcXsXhXN.J ! J 2 _ _ J v 2 ; 2 m D.aXyX#X#X#X#X%X#X#X$X#X#XNXNXMXNXBXCXVXmXmXmXBXmXVXmXVXNXMXMXnX",
"nXNX@X/.).*.< 1 1 7 K P v j 7 7 7 2 c ^..XpXyX#X#X%X$X#X#X$XuXMXBXMXBXmXMXBXnXVXmXfXmXmXBXmXCXCXCXnX",
"VXCXMX'.B.@.p a a y r 7 v P ) P ) ( /.sXZXpXXX@XyXuXtXtXfXMXZXBXZXBX@XBXMXBXMXMXBXBXmXBXfXBXmXmXVXMX",
"mXmXZX/.>.$.Q $. .s % 6 7 ) _ V.B.=./.fXpXpXb.A./.aXhXgXlXkXlXlXhX_.[ dXsXdXBXBXfXGXfXdXfXsXBXBXmXnX",
"mXBXdX'.>.y Q | | #.#.-.7 J ( N.v.N.(.aXpXg XXXXL.T 2 j g g c c g g /.sXfXg.D.aXBXmXmXBX@XD..XBXBXmX",
"mXBXdX).,.y <.,X,XO.1.3.w ) ( N.=.' /.pXjXg |.L.i.f , 3 > > > > > > D./.D.' /.pXVXBXmXBX'.M A.BXBXmX",
"mXBXsX`.,.s ,XIXUX1.<XqXa P ( v._ J V._._.l F.F.u.N C C l l z l z l p.F.F.L.pXAXNXMXBXdX(.c A.dXMXCX",
"BXBXkX).*.s qXIXIX:XqXIXL P ) V.F f > f f V F.d.a.B Y x 5.x 5.x x x 0.M.F.AXoXB L.NXNXsX^.c A.BXmXnX",
"BXdX(.B.~.<.4.1.1.O.O.| y S G J k l k N B 7.OXOXY.8.0.0.e.U.x.x.c.x.M.e.e.9.9.9.a.p.i.kXE.c A.dXBXCX",
"fXdX[.H.1X<.1.,X,X,X+.| % 6 e F k z Y 9.9.6.+XOX}.h.s.8.e.U.x.c.c.x.x.z.e.0.0.6.a.a.i.ZX^.c A.ZXMXCX",
"mXGX'.,.<.X.<XPXPX<X1.O.y @ = f Y 9.q.9.9.9.+XOX-X-X-Xs.d.k.x.t.t.t.e.e.e.w.0.8.h.XXtX.X'.m D.BXMXnX",
"mXBX3X*. .O.o.+.+.o.} | r D F m.M.z.l.l.e.q.d.d.h.-X-Xj.j.w.w.5.5.5.5.5.5.5.0.Y.XXNXiX2 ^.lXBXcXuXuX",
"CXBX3X$.| } o.o.o.}  . .r F R q.z.I.I.I.M.q.q.a.h.}.OX{.Y.s.s.w.r.w.0.8.0.0.d.}.|.E.Q.2 7XlXMXcXcXuX",
"CXZX`.$. .} o.o.o. .d % Z R A A P.>XeX>X>Xm._ W ] A.W.}.}.}. XOX;XOXOX}.}.OXXX%XN.1 # # !.gXaXnXnXcX",
"VXkX`.$. .} o.o.O. .% @ Z C A l.P.eXP.P.P.4XJ.B.' ' i.F.S.S.S.W.S.{.S.{.{.}.W.R.` O . O ~ 7XiXpXuXcX",
"BXkX`.~ | ..o.o.X. .r : k A A 9.P.eXn.K E SXK.G.` 2 2 c M f.f.g.f.f.f.f.f.A.g.c 1 O # . O + :.lXuX$X",
"VXkX`.~ | } O.X.#.y 7 k z x Y Y W m.v.B.G.!.%.^ ^ :.:.N.^.E.E.(.(.(.(.(.(.[.'.Q.>.,.-.& X 1 B.hXMXcX",
"MXkX!.Q | | X.#.$.: k z x x x x z N v.J.J.G.e e @.2XSXKXJXJXJXJXFXFXFXFXFXJXKXJXSX6X5X$ X o =.jXuX$X",
"uXjXQ.a  .| | #.@.D b.M.+XbXbXxXoXD.N.=.` < 6X9X~.L i H ! ! :.LXFXGX(.R.E.Z.^.7XC.0 % ~ 5XSXlXpXuXyX",
"yXiX!.a  .|  .a G E b.d.Y. X X|.L.L.N.` ` / 2X1X2.a u @.*.H =.zX&X&X^.R.^.J.Q.J.,.0 % ~ 1XSXDXaXyX#X",
"xXaX!.a $.$.y + 2 v.y.0.6.B B B T..X' 9 9 6XL L u y @.9X2.X e C.C.Z.Z.Z.Z.).C.S e H p . # < :.gXaXyX",
"yXaXK.4 & @ 7 m ] NXbXbXs.7.6.B p.A.( ! ! HXH p y & & $ $ X w >.! v 2 2 2 2 v v P ) *.e 1 + 1 J i.tX",
"uXaXJ.< o o v N 7.*X-XbXd.0.0.7.p.Z.( [ ! KX/ H w @ .   O X w >.^ q < 1 1 2 2 b T =.=.S 5 X O - b tX",
"yXaXJ.v F F b N B a.a.8.s.Y.Y.Y.y.m ' R.R.KXzX6XQ.w #   w p H H H v S S G F J E _ v.v.&.P ; o o c rX",
"yXaXJ.v F b N B B 7.6.6.F. XY. XV c ( R.].KXKXKX2Xe 1   p @./ 1 q G P %.E E E &.n.n.n.n.E = o o g rX",
"MXBX^._ V.b.b.p.M.F.7.B 7.F.F.|.T c ' ].'.JXrXrX2X>.*.H e < q H G G j 3 3 j j j F E &.G.%.* o X c iX",
"mXBXsX_.D._ ] u.u.p.a.q.y.F.F.L.T 2 ( Z.^.JX'.).Q.H.*.H e w e L G G k U U F F 3 j P P n.P o o X 9 lX",
"VXmXkX/.=.2 > > > k u.F.F.|.|.wX( 9 n ) ` '.Q.J.H.:.^ - < L L G J E R m.m.m.W , : S S %.G X   O v zX",
"mXmXkXJ.J J G.=.) , N V V V V g ; - v ! ) =.J H e q q w w i i S v j U W q.m.E > * o * : + X ^ 6XlXkX",
"CXmXkXQ.) J K.;.&.b V ] y.N k > - + w G J %.< e q 1 5 0 w 5 6 w 7 7 D F U W R 3 = = * * - ; B.lXdXdX",
"=XmXkX^.=.J P 7 J wXXX#XXXb.n.b ; o * : : G u i i 5 # O O O o o o o = > , f C E { D Z = ) 3XrXdXBXmX",
"mXBXkX).=.^ J.3X_.i.u.i.p.u.W F 3 ; 2 7 7 w 4 6 % % % 0 % $ 4 8 8 8 : = , h j K K E E j 4XgXhXkXBXmX",
"nXBXsX^.` ) `.lX'.2 g g M N F F , > j D S X X @ . % y s y s u u u S 7 3 h F D > j K R K K j N.ZXBXmX",
"BXBXBXtX'.'.7XgX).2 g g b F K K f , F K I X O O . # % y y s u u u i 7 3 h F F > 3 R E F D * =.jXBXBX",
"MXCXBXmXsXiXB.9 9 J J G F 7 3 , k F R R K * 8 5 4 0 0 # 0 i u u D D D C C F F , j &.&.B.) ; :.lXBXBX",
"NXBXCXnXfXrXC.q w H G P L 7 7 * U U Y Y U f G.>.H.~.H.H u I P K K R R U U U F > h K J D 2 ; =.lXkXBX",
"MXMXuXyXiXzX*.5 5 H L I L i 6 ; T W q.Y Y l 3X3XgXSX6X*.P I K K K K R R U R K > h F J ; ; - =.lXkXdX",
"MXuXuXD.! 1   O O @ 6 i i 4 4 1 Z.oXvXeXeXN k b ;.7X4X*.S 1 : : : : 7 D D D D : %.4X4XgX9X0X5XH c aX",
"cXuXMXZ.J # & $ $ 4 $ $ 4 # X 1 N.W.|.oXoXv.j j =.4X2X*.-.,.2.2.2.2.G.K.K.K.2.-.;.;.>.SXHXHX0Xn c fX",
"nXcXuXZ.J i 6 6 6 6 $ O O   O 1 ` N.V.D.P.J.; 7 @.5X5X-.2.9X9X8X8X9X8X8X5X5X1X1X@.5 1 HX0X0X5X/ m aX",
"cXcXpXpXhXSX^ # @ @ 6 6 i w 0 w e 9 v v v e - + L K.K.*.@.u u u u a a L a p s y %   X e H p H >.^.dX",
"cXcXcXvXuXaX`.;.*.# 6 w i w i w 5 X X X + X O 5 @.1XK.-.I 8 @ @ @ .     X O X   w G J n + + ! rXkXBX",
"=XcXcX#X#XyXiXgX).o - - - 4 4 u 0 i 4 X + + 2.2.;.P P K P I t o   . $ 6 1 1 5 + J.gXrXrXhXhXlXsXpXuX",
"nXcXcX#XxX@XtXiX).* o o - : 8 L i i 5 - ; + !.!.>.S 7 { { P S o X X + 5 < + - o J.hXtXyXpXpXMXnXuXnX",
"#X$X%X#X#XyXyXtX_.g B.K.!.@.P X 1 ! ).gXgXlX) 2 ; ; = = > , ; ; - o e !.!.6X!.< J.gXtXyX#X#X#X#X#X#X",
"#X#X#X#X#X#X#XyX_.2 S G G 5 4 7 3XrXpXpXtXaXjXjXjXZXZXjXZXDXlXlX!.v < H H ^ L + *.`.'.tXyX#X#X#X#X#X",
"*X#X#X#X#X#XyXaX_.; ; + + X o q gXaXyX#X#XuXyXtXyXpXpXaXaXpXpXiX).P + O + - O   $ q v aXyX#X%X*X#X#X"
};
