/* XPM */
static char *_9d0b51476564a98b3eadbf2d904c052fn0szt0DMRlyXCJO[] = {
/* columns rows colors chars-per-pixel */
"50 50 254 2 ",
"   c #0B0805",
".  c #140402",
"X  c #1C0401",
"o  c #150902",
"O  c #1C0B02",
"+  c #1C0C0C",
"@  c #140B0A",
"#  c #191109",
"$  c #071716",
"%  c #171817",
"&  c #0C100E",
"*  c #220101",
"=  c #230B02",
"-  c #2B0C03",
";  c #220B09",
":  c #290304",
">  c #370A06",
",  c #231104",
"<  c #291509",
"1  c #351708",
"2  c #281814",
"3  c #331C14",
"4  c #371C17",
"5  c #3F0E14",
"6  c #14211D",
"7  c #39230B",
"8  c #2D221A",
"9  c #34231A",
"0  c #3B241B",
"q  c #392516",
"w  c #111E23",
"e  c #0C2828",
"r  c #172627",
"t  c #1B3937",
"y  c #0C3030",
"u  c #2B2826",
"i  c #3C2C24",
"p  c #3C2B2A",
"a  c #372625",
"s  c #2A312B",
"d  c #263736",
"f  c #363432",
"g  c #383129",
"h  c #451A05",
"j  c #471A18",
"k  c #561819",
"l  c #4E0B10",
"z  c #6A151C",
"x  c #771818",
"c  c #78170E",
"v  c #4B260A",
"b  c #542A0B",
"n  c #542709",
"m  c #43251C",
"M  c #4B2B1C",
"N  c #472719",
"B  c #552A19",
"V  c #54311D",
"C  c #62251D",
"Z  c #7C261A",
"A  c #70381D",
"S  c #591921",
"D  c #6B1922",
"F  c #791A24",
"G  c #720F25",
"H  c #4B2C22",
"J  c #452A28",
"K  c #572923",
"L  c #4B3223",
"P  c #49342A",
"I  c #573729",
"U  c #473435",
"Y  c #573934",
"T  c #522D31",
"R  c #682726",
"E  c #792527",
"W  c #643827",
"Q  c #792A32",
"!  c #643E34",
"~  c #793935",
"^  c #78312D",
"/  c #27413E",
"(  c #584439",
")  c #58513F",
"_  c #6C4B3C",
"`  c #664636",
"'  c #764B37",
"]  c #76533A",
"[  c #6C4A32",
"{  c #6B401D",
"}  c #253E42",
"|  c #254245",
" . c #2B4749",
".. c #2B5B5C",
"X. c #255758",
"o. c #335C5B",
"O. c #35585A",
"+. c #355050",
"@. c #2C615F",
"#. c #275E62",
"$. c #246464",
"%. c #2B6364",
"&. c #236966",
"*. c #246B6B",
"=. c #27696A",
"-. c #366766",
";. c #327274",
":. c #1F6461",
">. c #544F46",
",. c #725348",
"<. c #7D654C",
"1. c #4A7172",
"2. c #7F7462",
"3. c #87181A",
"4. c #961B1B",
"5. c #841E0E",
"6. c #AE1E1D",
"7. c #B01E1F",
"8. c #962616",
"9. c #8D2A15",
"0. c #AB371E",
"q. c #A22D1C",
"w. c #871825",
"e. c #981A25",
"r. c #AB1E24",
"t. c #AA1E2A",
"y. c #87282A",
"u. c #982427",
"i. c #8A342A",
"p. c #963A27",
"a. c #9B2731",
"s. c #8A3C35",
"d. c #973937",
"f. c #A8292A",
"g. c #B82D2D",
"h. c #A83527",
"j. c #A32A36",
"k. c #B22E35",
"l. c #BA2F33",
"z. c #A8343A",
"x. c #B53438",
"c. c #B5352C",
"v. c #C7373A",
"b. c #D53B3D",
"n. c #9B4628",
"m. c #964938",
"M. c #86563A",
"N. c #95583B",
"B. c #894635",
"V. c #AC4D3A",
"C. c #A34937",
"Z. c #B3493C",
"A. c #A95539",
"S. c #AA4F2F",
"D. c #9F6439",
"F. c #A46A38",
"G. c #B86936",
"H. c #C8443E",
"J. c #C05F3C",
"K. c #B13846",
"L. c #9A3A45",
"P. c #C43B43",
"I. c #C73C45",
"U. c #DC3E43",
"Y. c #D33D41",
"T. c #8A5948",
"R. c #995347",
"E. c #94534E",
"W. c #A84545",
"Q. c #BA5A44",
"!. c #B45C43",
"~. c #AA594D",
"^. c #94775E",
"/. c #8F6951",
"(. c #AF6E4F",
"). c #987767",
"_. c #AF756C",
"`. c #C84346",
"'. c #D44343",
"]. c #D74447",
"[. c #C45751",
"{. c #D87944",
"}. c #C47A53",
"|. c #CD734C",
" X c #E17F5C",
".X c #4E807D",
"XX c #A78668",
"oX c #A98974",
"OX c #B48975",
"+X c #BA997D",
"@X c #AD9174",
"#X c #D98C55",
"$X c #DE9657",
"%X c #CF854B",
"&X c #E58B58",
"*X c #E49356",
"=X c #E39657",
"-X c #F19854",
";X c #E29149",
":X c #E3A050",
">X c #C6997B",
",X c #D18A6F",
"<X c #CDA27C",
"1X c #DDA47D",
"2X c #DCAB7D",
"3X c #D7A67B",
"4X c #E1A47C",
"5X c #E1AD7E",
"6X c #E1A277",
"7X c #E1B37F",
"8X c #E58C60",
"9X c #548785",
"0X c #7BA9A7",
"qX c #B79284",
"wX c #BEA689",
"eX c #BBA795",
"rX c #90B4B5",
"tX c #9C9686",
"yX c #C69D87",
"uX c #CC9985",
"iX c #E7988D",
"pX c #CAA488",
"aX c #D4A585",
"sX c #DCA581",
"dX c #DCAA82",
"fX c #D4AA8A",
"gX c #D6AA89",
"hX c #DDB384",
"jX c #DCB38B",
"kX c #D9B689",
"lX c #CBAA95",
"zX c #D3AC92",
"xX c #DBB593",
"cX c #D8B897",
"vX c #CEB29A",
"bX c #E1A681",
"nX c #E2AC83",
"mX c #E5AC8A",
"MX c #E3B485",
"NX c #E4B986",
"BX c #E4B58A",
"VX c #E9B58A",
"CX c #E4B98A",
"ZX c #E9BA8B",
"AX c #EAB786",
"SX c #E3BB92",
"DX c #E1BA98",
"FX c #F3A497",
"GX c #EC9EA2",
"HX c #D9B7A2",
"JX c #F0A1A7",
"KX c #9EC2BE",
"LX c #BAD9DB",
"PX c #9FC2C6",
/* pixels */
"lXqX,.i i ( <.H ! lXfXaX3X2X1X4X6X4X1XsXsXsXbX1X1X1XsXsXsX1X1X1X1XsXbXbX3X2X1X4XsXsX1XbX1X4X6X6X1X1X",
"oX^.) P P I Y Y _ oXOXOXgXjXdXdX5X2X3X1X1XsX1X4X1X1XsXsXsX1X1X3XdXdXbXmXMX2XnXnXnXnX1X1X1XbX4X6X1X1X",
"m P Y Y I M M ! ! H 0 q wXcXcXDXkX3X3X3X1X4X1X1X1X1X1X1X6X1X3X3X<XBXMXAXMXMXMXMXMXhX2X3X1X1X1X3X1X1X",
". 2 p i 0 4 m I H 3 3 P M 1 1 v kXkXCXBX1X3XdX1XsXsXsXsX1XdXMXCXCXMXCXMXNXNXCXCXCXNXMXNXVXnXdX3X1X1X",
"  % r d f f p P P 3 9 I M 1 = 1 zXCXBXVXnXdXaXaXpXpXuXuXaXfXgXxXjXjXCXCXCXBXZXBXNXNXNXNXVXmXdX3X1X1X",
"$ t |  .+.| r s s g 9 P I I P 1 zXSXZXVXZXSX<XXX_._._.OXOXOXOXOXOX>X<XSXjXSXBXBXCXCXNXNXZXZXMX3X1X1X",
"% d X.....X.y y d d s a ( ,.Y 1 cXSXjXSXkXjXOXB C C C R R R R R C A [ xXDXcXCXZXCXCXNXMXAXMXmX1X1X1X",
"r } ..=.$.#.......+.+.s 4 1 3 q zXxXDXjX{ h (.~.y.E F F F F F F x s.~.h /.pXCXCXCXNXCXZXAX2X1X1X1X1X",
"r } X.$.$.=.$.$.$.%.O.w 4 m 3 3 zXDXzXOX' Z [.[.x.x.k.k.k.k.k.k.k.Z.Q.y.N._.SXCXNXCXMXNXNXZXmXnXbX1X",
"r | X.$.=.$.=.&.*.&...$ 3 M q 3 vXcXoXB s.W.`.].].].U.U.U.U.].].'.'.`.Q.s.l DXxXCXCXZXMXNXMXdXmXnXbX",
"r } X.$.*.*.$.&.&.=...r I ! I = Y ` ` K y.a.v.].U.U.U.U.U.U.U.U.U.].`.u.y.R [ <.fXkXNXZXMX2X3XVXnXbX",
"r } X.$.=.=.;.9X;.%.o.s I ` Y X . O j R y.a.l.Y.b.b.b.b.b.b.b.b.Y.v.x.w.y.Q > M pXxXMXMXVXVXZX1XdX1X",
"e / X.$.%.-.rXLXPX1.O.$ 8 m 4 . o X j R F x u.x.g.g.g.g.g.l.g.g.g.l.x.u.y.Q > m +XxXCXBXVXnXdXdXdX1X",
"w t X.%.%.-.rXLXrX1.O.$ < 1 2 O . O j R z x u.h.h.h.h.h.h.h.h.f.f.h.h.9.Z E > 1 Y qXDXBXAX2X2XBXnX1X",
"r | X.=.$.%.1.1.1.-.o.r I ' Y X O X K ~ m.C.V.Q.Q.Q.Q.Q.Q.Q.Q.Q.Q.Q.!.C.A.R.j X ; m fXjX2X5XMX2XdX1X",
"w | X.$.$.%.1.9X1...O.s [ M._ * > 5 R s.m.C.W.V.V.V.V.V.V.V.V.V.Z.Z.C.m.m.m.k > ; = +XkX2X5XnX2X2X1X",
"e | X.#.#.-.rXKX0X-.O.u [ N.` * k Q Q w.x x 3.e.4.4.8.4.4.4.4.4.4.4.4.3.3.x D S j - yXfXMX2X5XnXnX4X",
"e t X.$.$.X.-.-.-...o.s [ M.` * k G G w.F x a.I.P.P.P.P.P.P.P.P.I.P.P.z.j.w.F D S > yXxXaXdXVX1X4X1X",
"e } X.$.$.$.$.&.:.$...r ( _ Y * l D G w.F 3.j.I.I.I.P.v.I.v.v.v.I.P.I.k.j.w.w.G k > qXHXvXxXBXbX1X1X",
"e | ..&.$.*.:.&.*.&...$ . O O * l D G w.3.3.e.t.r.7.r.6.7.7.6.6.6.f.f.r.e.w.w.F D S > * X N aX1X1X1X",
"e | X.$.*.*.*.*.*.$.o.$ < 4 1 : k d.a.j.3.4.f.v.v.v.v.v.v.v.v.v.v.v.v.v.k.e.e.j.u.F k > X q aX1X1X1X",
"% | #.=.*.*.*.*.*.&...$ 9 I M : D W.K.z.e.e.l.].].'.'.'.'.'.'.'.'.'.].`.x.e.t.K.K.y.D j O q aX1X1X1X",
"r | ..*.*.*.=.*.&.=.o.6 m I V > R L.L.z.w.e.k.`.`.H.H.H.H.H.H.H.H.`.`.v.x.u.j.K.x.u.z l O q fXsX1X1X",
"r | #.*.*.*.*.*.*.%.o.s ( ] ` K D z x x x 5.8.c.h.0.0.0.0.0.0.0.0.h.0.q.8.u.u.u.e.w.F S * 9 pX<XsX1X",
"r  ...=.*.*.*.*.&.&.o.d J H H K ^ ^ m.C.!.G.{.-X-X-X-X-X;X{.&X*X*X&X{.{.{. Xp.3.w.w.w.R : O P ^.>XsX",
"r d ..%.=.*.*.*.&.@.o.s i L L K R ~ m.A.F.G.%X$X:X:X:X:X;X;X=X$X$X=X%X%X%X%Xp.Z y.y.i.R > + 2 _ >X1X",
"# s +.o.%.%.%.%.%.o. .& I T._ h ' (.(./.~.F.D.F.F.F.F.F.F.F.F.F.F.(.F.F.F.F.N.R.N.~.~.N.h 3 . P +XgX",
"eXtX>.r e y y y e e r . W T.' v v B b v v b n b n b b b b b b b b n b n n v b v A N.D.M.{ P . P pXSX",
"cXwX) & & & &       . = W T.' V 3 X . O X X X X O O O X * * * * * = X X X X . , N ] M.M.W I ; P +XSX",
"SXfX^._ ) ) >.9 O 3 1 - W T.] L 3   @ @ + + . + + + + + ; ; ; ; ; + ; + + @ % % 9 L V B v j - H oXcX",
"CXCXxXxXkXcXvX^.1 ' M.1 ` /.<.P 8   6 f u 8 a a u u a a a a a p p a p u u u d f u O = : > > k j 3 ( ",
"BXBXCXCXCXCXcX^.h M.M.: - < < ; #   % s p U U U U U U U U U U U U U U U f f % & % 8 J W ~ ~ R S < >.",
"BXCXNXNXNXCXxXXX1 ' ] - = = = . @ @ 2 a J J T T T Y T Y T T Y U T Y T T T J + @ % 4 H W s.d.E k 3 ( ",
"CXCXNXNXNXCXxXXX- 1 3 M H M H O + . 2 J J N B K K K K B B V K V W W R C C B < . 2 a M W R.~.Q R 1 ( ",
"BXZXCXMXCXCXDXoXX O ; P Y ` ,.= o O 4 K B.N.(.(.n.n.!.!.}.}.%X%X%X}.}.A.m.B.1 O ; a J m j S j N _ ^.",
"NXNXNXNXCXCXcXXXO 2 2 J K ! _ = O O j R R.~.(.#XS.S.|.|. X&X&X&X&X8X&XJ.V.m.h X 2 a a 3 * X 3 I qXcX",
"NXhXCXNXMXCXDXXX, p J J j 1 - O O O K B.x c c c 5.5.8.8.8.8.8.8.8.8.8.8.9.c > = 2 a i 8 . , <.^.fXSX",
"NXhXNXNXNXCXjXXX< J J J a 3 2 < O O B ^ Z c c 5.5.5.8.8.9.9.8.8.8.8.8.8.9.Z > O 2 p J 3 O 7 wXpXkXCX",
"NXNXNXNX7XMXSXxX+XI 3 4 a a p 2 2 O ' (.(.G.|.$X#X&X*X*X*X*X*X*X&X&X&XG.G.(.N X 2 i i ,.HXxXSXhXCXCX",
"NXNXNXNXZXMX3XdXpX/.,.Y 3 a 9 2 2 1 M.(.(.|.%X#X#X#X=X$X$X=X=X=X*X%X#XG.G.(.I 3 3 9 ,.^.DXBXCXNXCXCX",
"CXCXCXZXMXnXnXnXmXmXzX^., , # # i ` ' B.p.p.p.p.i.9.p.p.p.n.n.n.n.n.n.S.n.A ' ( 9 O qXDXMXCXCXNXCXCX",
"CXCXCXBXMX2XnXMXbXmXmX>XoXoX2.o < H ~ m.d.i.i.d.y.i.d.d.z.d.C.p.p.p.n.A.C.m.W 0 < O +XCXNXMXZXhXCXBX",
"AXBXCXdXdXMX5X5XMXdXsXsXaXpXeXO . . ! R.i.Z i.d.y.y.W.W.W.W.V.9.p.C.V.A.V.R.N . . o +XkXNXNXhXCXCXMX",
"AXMXhXhXhXMX5X2XdXdX4X1XbXgXpX, 2 p - > R.~.~.~._._.GXJXGXGXFXFXFXFXFXiX_.k m i u O +XkXhXNXNXCXCXCX",
"MX7X3XBXMX3XnXVXsX1X4XbX1XaXpX= 2 a 3 1 ,.T.T.T././.qXqXqXOXOXOXOXuX>X_.E.j i u u O +XSXCXCXZXZXNXNX",
"2X2XMXdX5XMXnXnX1XnX1X4XbXaXpX= 2 a i q M I V I 0 0 P P L L L L I I W W K m i f u O wXjXdXBXMX2XMXMX",
"sXnXVX2X2XZXnX1XsX1X1X3X1XgXyX1 0 q q 7 v h h 1 = X < < 1 - < O = 3 h h v 1 9 0 H 7 +XjX3XMXVXnXMXMX",
"mXmX1XMXMX1XsXsX1X1X2X1X1XaXgXlXoXN /.XXXXXX/.I < i eXlXcXcXvX( O 9 I _ ] ^.` _ lXfXaXsX2X1X2XMXnXdX",
"mXdX1XnXnX1X1X1X1X1X1X1X1X1XsXaXpXoX^._ ] ] Y q , 0 yXgXjXgXzXY o 2 0 L L ` ).+XaXsXsX1X1X1X1XnXnXdX",
"2X1X3X1XsX1X1X1X1X1X1X1X1X1X1X1XaXgX^.- - - = O # q >X1XdXdXfXI # O < , , < pXfXsX1X1X1X1X1X1XsXbX1X"
};
