/* XPM */
static char *_cdf7c2167674eb5cfbb49e1b9355fe4HG9DakHvb1kfClXQ[] = {
/* columns rows colors chars-per-pixel */
"24 16 18 1 ",
"  c None",
". c #180C0A",
"X c #555555",
"o c #222728",
"O c #120907",
"+ c #3F3F3F",
"@ c #343339",
"# c #0F0909",
"$ c #0B0706",
"% c #1D1A19",
"& c #2E1D1B",
"* c #48261E",
"= c #667679",
"- c #5F5355",
"; c white",
": c #D2CEE5",
"> c black",
", c #6F371D",
/* pixels */
"                .&&     ",
"               .&*&     ",
"==X            &**&&&   ",
"-;=o          &**:;**-  ",
"-::=O     &&&&&*:;>;*-+ ",
"@>&*&&&&&&,,*&=:;;;;;;- ",
" >&&&*,,,,,,**=:;;;;;>- ",
" #>&&*,,,,,***:=;;;;>>- ",
"  $>&*,,,,,***::;;;;--  ",
"   >&*,,,,,,***:;;==    ",
"   >&*,*,,,,,**:::-     ",
"   ->*&****,*::;::-     ",
"   -->*;;***&::;:-      ",
"   ---:;% &&&=:;--@     ",
"   ---:;     =:;--      ",
"      :;       ---      "
};
