/* XPM */
static char *b68de68948aa4706c3b05621473ca23495uCSdTTodNnluGK[] = {
/* columns rows colors chars-per-pixel */
"24 19 19 1 ",
"  c None",
". c #180C0A",
"X c #555555",
"o c #3F3F3F",
"O c #120907",
"+ c #222728",
"@ c #343339",
"# c #0F0909",
"$ c #0B0706",
"% c #1D1A19",
"& c #2A292D",
"* c #2E1D1B",
"= c #48261E",
"- c #5F5355",
"; c white",
": c #D2CEE5",
"> c #667679",
", c black",
"< c #6F371D",
/* pixels */
"                        ",
"  .** **.               ",
"  *=* *=*.              ",
"  *=***==*              ",
"  -;==;:=*           X>>",
" o-,=;,;=**        O+>;-",
" -;;;;;;:>********* >::-",
" -;,;;;;:>==<<<<<<=*=*,@",
" -;,,;;;>:==<<<<<<=***, ",
" X-;;;;;::==<<<<<<=*,,# ",
"  o->>;;:===<<<<<<=*,$  ",
"    -:::==<<<<<==<=*,   ",
"    -::;;:<<====*==*,   ",
"     -:;;::===*--;;=,   ",
"    @---;::***%->>;:-   ",
"     ->>;:>&   ->>;:-   ",
"     ->>;:>&   ->>;:-   ",
"     ->>;:>    ->>;:-   ",
"                        "
};
