/* XPM */
static char *_ad14e55011d40a9d3701994df32ca3czHzgZpldmUHOWbDS[] = {
/* columns rows colors chars-per-pixel */
"24 20 19 1 ",
"  c None",
". c #180C0A",
"X c #555555",
"o c #222728",
"O c #120907",
"+ c #3F3F3F",
"@ c #343339",
"# c #0F0909",
"$ c #0B0706",
"% c #1D1A19",
"& c #2A292D",
"* c #2E1D1B",
"= c #48261E",
"- c #667679",
"; c #D2CEE5",
": c white",
"> c #5F5355",
", c black",
"< c #6F371D",
/* pixels */
"                        ",
"                .** **. ",
"               .*=* *=* ",
"               *==***=* ",
" --X           *=;:==:> ",
" >:-oO        **=:,:=,>+",
" >;;- *********-;::::::>",
" @,*=*=<<<<<<==-;::::,:>",
"  ,***=<<<<<<==;-:::,,:>",
"  #,,*=<<<<<<==;;:::::>X",
"   $,*=<<<<<<===;::-->+ ",
"    ,*=<==<<<<<==;;;>   ",
"    ,*==*====<<;::;;>   ",
"    ,=::>>*===;;::;>    ",
"    >;:-->%***;;:>>>@   ",
"    >;:-->   &-;:-->    ",
"    >;:-->   &-;:-->    ",
"    >;:-->    -;:-->    ",
"                        ",
"                        "
};
