/* XPM */
static char *result[] = {
/* columns rows colors chars-per-pixel */
"50 50 116 2 ",
"   c #A4432F",
".  c #AC442F",
"X  c #B4452F",
"o  c #BA452F",
"O  c #B6492F",
"+  c #BD492F",
"@  c #AA4631",
"#  c #A44936",
"$  c #AC4B36",
"%  c #AA4D38",
"&  c #B04731",
"*  c #BA4630",
"=  c #B54B35",
"-  c #BC4A33",
";  c #A4513E",
":  c #AC523F",
">  c #BD5037",
",  c #B6513E",
"<  c #BD563E",
"1  c #C24D2E",
"2  c #C6502D",
"3  c #C9532C",
"4  c #C35435",
"5  c #C75834",
"6  c #C95934",
"7  c #C0533A",
"8  c #A65542",
"9  c #AB5642",
"0  c #AE5842",
"q  c #A65C4A",
"w  c #AC5D4B",
"e  c #B65542",
"r  c #B55B43",
"t  c #BA5942",
"y  c #B55E4C",
"u  c #AB614F",
"i  c #B5624E",
"p  c #BB634C",
"a  c #A66554",
"s  c #AB6453",
"d  c #A66D5D",
"f  c #AB6A5A",
"g  c #B46454",
"h  c #B96550",
"j  c #B66955",
"k  c #BA6B54",
"l  c #B46B5B",
"z  c #BA6C5A",
"x  c #AD705F",
"c  c #BE7053",
"v  c #B5715F",
"b  c #BB735E",
"n  c #B36F60",
"m  c #AA7364",
"M  c #AC7768",
"N  c #AA7A6C",
"B  c #B47463",
"V  c #B87663",
"C  c #B37866",
"Z  c #BD7A63",
"A  c #B97768",
"S  c #B37C6C",
"D  c #B87E6C",
"F  c #AC7E71",
"G  c #B47E70",
"H  c #C15E43",
"J  c #C56241",
"K  c #C1654A",
"L  c #C46A4B",
"P  c #C16D52",
"I  c #C27256",
"U  c #C1755A",
"Y  c #C0795E",
"T  c #C27C61",
"R  c #BB846E",
"E  c #A68376",
"W  c #AD8274",
"Q  c #AC867A",
"!  c #AE897D",
"~  c #B48273",
"^  c #BB8672",
"/  c #B58873",
"(  c #BD8A76",
")  c #B28779",
"_  c #B38B7D",
"`  c #B98D7B",
"'  c #B6907F",
"]  c #BE907C",
"[  c #C18069",
"{  c #C18973",
"}  c #AC8D80",
"|  c #B48E81",
" . c #B98F82",
".. c #AD9286",
"X. c #AB968A",
"o. c #AD998D",
"O. c #B39386",
"+. c #BB9183",
"@. c #B2968A",
"#. c #BB9588",
"$. c #B3998E",
"%. c #BB998C",
"&. c #AC9D92",
"*. c #B39D92",
"=. c #B99E92",
"-. c #ABA095",
";. c #ADA49A",
":. c #B2A095",
">. c #BAA397",
",. c #B2A49A",
"<. c #BAA59A",
"1. c #B2A89F",
"2. c #B3ACA3",
"3. c #B9A9A0",
"4. c #B7B1A8",
"5. c #B9B3AB",
/* pixels */
"- 1 * 1 * 1 2 3 3 3 6 Y #.,.G y o o 1 + + 1 * O o o o o o o * 1 3 3 K R ,.O.l = * * 1 1 2 + + + + + ",
"1 * 1 + 1 1 2 3 3 3 6 Y #.,.G y o O * + + + + + o o o o o o o 1 1 3 L R ,.O.B = * * 1 * + + + + 1 + ",
"* * * X o + 1 2 3 2 6 Z @.;./ r X X 1 * 1 + + + o o o o o o 1 1 1 3 p R ,.O.b - * * 1 1 + + 2 + + + ",
"& & & X . * 1 2 1 2 4 b #.,.W w . X * 1 + + + + o o o + 1 1 1 1 3 3 p / 1.O.B - 1 1 1 1 2 2 2 + + + ",
"@ @ @ .   X O 1 1 1 > b O.,.W q . X O + + + + + o + + + 1 1 2 1 2 + p R ,.O.v > 1 1 2 3 3 3 2 + + + ",
"# # @   . . O + + + > v O.,.W w @ o + + - 1 + + 1 + + + + 1 1 1 + + p ~ ;.O.v , + 1 3 3 3 3 2 + + + ",
"& & X . . X O 1 O O $ v O.,.~ i O + 1 1 1 1 + + * o o + + O + O X X i ~ ,.O.x = & O + + + 1 + + O & ",
"* + & o X o * - O & % x O.,.^ p 1 1 2 2 2 + + - * * + o O O X . . . w W ,...x # @ . . O O 1 + O @ @ ",
"1 7 - - = = > > = # 8 x X.,.^ L 6 6 6 6 4 7 1 7 - - = = = $ @ # # # a E -.X.m ; # # # % = > = = # # ",
"t H y g g j z z l a d F &.;.' Z P I U I I I n n z n z z z f d a a a m } ;.o.E d a a a s f z l f a f ",
"I I Z A F ) _ _ _ E E ..&.;.o.| / `  .`  . . . . . . . .| | } F E E } X.;.&.X.E E E E E ) ` | Q Q Q ",
"T Y ^ O.o.&.*.*.&.X.X.&.&.&.&.o.o.X.=.=.=.<.<.<.<.3.3.3.3.2.*.*.o.X.o.&.-.&.o.X.X.X.X.o.o.,.*.*.:.-.",
"U U / O.;.&.@.O.} | } } | } ! } } | ..O.%.$.=.%.=.=.3.4.2.*.=.@...! ! ! ! ' ! ' ! ..! ..O.+.O.O.O.O.",
"K K A | ;...~ n B B v v v v B l n n B V A A A A A G O.,.*.O.A A B B v B x v v b b b v b Z T Z Z V V ",
"7 7 z ! ;.Q l e , t t < t t < e e e e e e e e e e g G &.@.S g t e , , < p H H J J t r H H J H H t p ",
"1 * z ) -.E s X O + + + + + O o o o o * o o * * * e C X...n H * O O O O + + 2 2 2 2 + + 2 2 1 1 + + ",
"- - g ) ;.F u . o * 1 * + o o o o X X X o o o o + e B X...B < O o . X O O 1 1 1 1 1 o 1 1 1 1 1 + + ",
"o 1 n | 2.Q u @ X O * 1 * o o o o o o o o + + o o t C X...B < O O . . . o o o o * o o o + 1 1 1 + 1 ",
"o 1 P  .2.Q u   . O o o o o o o o o o o + + + + + < C X...B < O .   . . X o o o o o o o + + 1 1 1 1 ",
"- - n | 2.} a   . O * o o o * * o o o o + + + - O e M X...v < O . .   @ . X X o o o o * 1 1 1 1 1 1 ",
"- - I  .4.} u   . * o o * * * 1 1 1 1 * * 1 * & . 9 M X...B < O .     @ . X & * * * * 1 1 1 3 2 1 2 ",
"1 - U #.5...s # $ = - = - > > 7 4 1 > 7 > > > = % q N X...C t > = # # # # $ = > - 7 1 7 4 6 6 6 6 6 ",
"H H T #.5.$.M u w u y y y y p K K K p K p h p g w f Q &.@.~ c h g u u q q q y y y p h K K L L L L L ",
"K P { =.5.*.| F F G G G G G D ^ { D G G G G G G F Q ..;.,.@.` / ~ Q F N M M S M D D G ~ ^ ^ R R R R ",
"U U  .<.5.3.<.%.*.&.*.*.*.*.*.*.*.*.:.$.$.*.*.*.&.*.,.,.2.1.<.<.<.<.*.&.X.X...X.X.$.$.*.=.=.*.=.=.$.",
"T T { %.<.<.=.=.*.%.*.*.1.2.,.*.$.=.*.=.*.=.$.*.*.*.:.%.*.>.>.<.>.>.<.,.;.&.&...X.$.*.=.&.$.$.$.*.*.",
"z H U T  .T G G ~ ~ / O.&.2.@._ R R R R R R [ ^ R R R R { { { { ( ( ` *.1.&.} M G G G G G G G G G G ",
"H H H K P P K h p p p S @.&._ n p p L L L L L K L L L L L L L L L p A | ;.@.G g y y h h y y y y y y ",
"7 1 2 2 6 7 7 7 - > < v ' &.~ i > 4 4 6 5 5 5 5 6 6 3 4 6 5 6 5 7 > h ~ ,.O.n e - - > > - = = = = = ",
"o - 1 1 1 1 + o + + > b ..&.N i + + 2 3 1 1 1 2 1 1 1 1 3 3 3 1 - * y G ,. .n = o 1 1 1 1 o o o * * ",
"- o + + + o o o + + > b O.-.W 0 . O + + 1 1 1 o 1 1 1 1 1 + + + o . y F ,.O.n - * 1 1 1 1 * o o o o ",
"- - + + o o o o O + > v O.;.W u @ O + + o o o o o o o o O + 1 O & @ q F ,.O.n = 1 1 2 1 1 1 * o o o ",
"1 o o o o o X o X X e n | ,.F y & O O + + o o o o o o o O O O X .   q F ;.O.l = * 1 1 2 1 1 1 1 - + ",
"o 1 - 1 o o . . . . # n ..,.G y + + O O o o o O + o o + O o X . .   q N -.| l = O - * 1 1 2 1 1 1 1 ",
"- o o 1 - o @       @ n ..3.^ K 1 + * * + + + + * 1 + + * & @       q N &.} j - o o o 1 2 3 2 2 3 3 ",
"7 7 7 H y e 8 8 8 8 q N X.*. .U J t t e t e < t t t t t r r 9 8 8 8 a E &...M y e e e H 7 J J H J J ",
"H H z U Y A d d d d m Q &.;.@.^ T B n l B n n B A A A A B B m m d d N } -.X.Q m n B B A T Z Z Z Z Z ",
"U U T (  .....! } } } X.&.;.&.%.+.@.| } } } | | O.O.O.O.O...O.} ..} ..o.-.&.X.! } | O.O.#.#.#.@.#.#.",
"T T { =.2.,.&.$.X.X.X.o.o.&.&.*.*.X.o.X.X.X.X.&.*.*.,.,.1.,.*.&.o.X.o.o.&.&.X.X.o.&.$.*.:.&.:.*.=.*.",
"I I { =.4.:...G / Q / ~ ) F ) ) _ Q ~ ) W W G | _ | *.2.1.$.| ) Q W Q ~ W / Q / ~ ) ` _ _ ` ` ] ` ` ",
"H H A %.5.%.^ P c c c k j j l g l g g g g g g g z A  .,.:.! n g j j k k I k k k k z k z k z z I I I ",
"7 1 V #.5.] U 6 5 5 6 4 - = = = - - = = - = = - - y G :.$.G e = - - 4 5 6 5 4 - > > > 7 > > 4 5 6 6 ",
"o o I +.4.{ P 2 2 2 2 1 o o * o * o o o * * * 1 - H G =.$.A , o - O + 1 3 1 1 + + 1 + 1 1 1 1 2 1 2 ",
"- 1 n +.4.` g 1 1 2 + + o o o O o o 1 o * * * 1 - H A :.$.A , o o O + + + + o o + 1 1 1 2 1 2 1 1 1 ",
"- o P  .2.) g * 1 * * 1 o o * o + + + + + - 1 1 2 J T <.$.A , o o o o o o o o o + 2 3 3 2 3 2 1 1 1 ",
"- o P  .2.) y o o * 1 o o o o o + + + o - * * * 1 H T =.*.n , . X X o X X X X X O + + 2 2 3 2 1 1 * ",
"- - n  .2.F w . o o o o o o o o o o + O o X & - - e G ,.$.M , . . . . . . X . . O O O + 1 2 1 1 * 1 ",
"- o z  .3.} w . . . o o o o o o o o o X X . @ . . 9 G *.$.m :   .   . . .   . .   @ . O + + 1 + 1 * ",
"o o z  .3.Q u   . . o o o o o o . o o . .         : M &.$.m ;                           . o * 1 * 1 ",
"- 1 P  .1.Q a   . . o o o o o . o o o o .         # M *.&.m ;                           X 1 1 o 1 * "
};
