/* XPM */
static char *result[] = {
/* columns rows colors chars-per-pixel */
"50 50 19 1 ",
"  c #E5B887",
". c #DDA47E",
"X c #E0AC82",
"o c #DFA980",
"O c #E0AB81",
"+ c #DEA67F",
"@ c #E4B686",
"# c #E2B184",
"$ c #E4B485",
"% c #E3B385",
"& c #DEA880",
"* c #DDA57E",
"= c #E1AE82",
"- c #DFAA81",
"; c #E2B083",
": c #E3B284",
"> c #E1AD82",
", c #E5B787",
"< c #DEA77F",
/* pixels */
"..................................................",
".......*XXXXXXXXX*..............*XXXXXXXXX*.......",
".......+         +..............+         +.......",
"....o               o........o               o....",
"...o>               >o......o>               >o...",
"...                   ......                   ...",
"...                 X&......                 X&...",
".*+                 O+....*+                 O+...",
".X                    ....X                    ...",
".X                  =O#-..X                  =O#-.",
".X                  o. X..X                  o. X.",
".X                    ....X                    ...",
".X                  #==o..X                  #==o.",
".X                  o. X..X                  o. X.",
".X                $.% ....X                $.% ...",
".X               :;O;#O<..X               :;O;#O<.",
".X               +& o. X..X               +& o. X.",
".*+            :+$%+:@+*..*+            :+$%+:@+*.",
"...           $;&%:&#$......           $;&%:&#$...",
"...           .O +& o.......           .O +& o....",
"...o> XO =o #o%;o:#o+.......o> XO =o #o%;o:#o+....",
"....o &+ O. =. #.@$..........o &+ O. =. #.@$......",
".........# .= .O +................# .= .O +.......",
".........-X.oX.<X*................-X.oX.<X*.......",
"..................................................",
"..................................................",
"XXXX-...............-XXXXXXXX-...............-XXXX",
"    %...............%        %...............%    ",
"       @.........@              @.........@       ",
"       @o+.....+o@              @o+.....+o@       ",
"         O.....O                  O.....O         ",
"       @&*.....O                @&*.....O         ",
"       @+*....+X                @+*....+X         ",
"         O....                    O....           ",
"       ,O=#...                  ,O=#...           ",
"       @.# ...                  @.# ...           ",
"         O....                    O....           ",
"       ,===...                  ,===...           ",
"       @.# ...                  @.# ...           ",
"      &+ O....                 &+ O....           ",
"    @#XO#>O...               @#XO#>O...           ",
"    %.$@.# ...               %.$@.# ...           ",
"   +-@o&@O+...+X            +-@o&@O+...+X         ",
" @$oO$-o$-.....O          @$oO$-o$-.....O         ",
" ;. %.$@.......O          ;. %.$@.......O         ",
"o>%oO%Oo.......+o@@o$ o: o>%oO%Oo.......+o@@o$ o: ",
".X *o &..........@$.:,.; .X *o &..........@$.:,.; ",
" ;. %................. X. ;. %................. X.",
"Xo.X-.................X&.Xo.X-.................X&.",
".................................................."
};
