/* XPM */
static char *_38bf7489ef848efac8a2726ff3170f8gHRzSIbCitxOXZ61[] = {
/* columns rows colors chars-per-pixel */
"50 50 255 2 ",
"   c #060303",
".  c #0A0503",
"X  c #0D0906",
"o  c #090409",
"O  c #0C0B0A",
"+  c #130504",
"@  c #130906",
"#  c #1C0806",
"$  c #130C0B",
"%  c #1B0C0B",
"&  c #14110E",
"*  c #1B120E",
"=  c #160E11",
"-  c #0E1217",
";  c #151212",
":  c #1C1213",
">  c #1A1918",
",  c #280C0B",
"<  c #24130E",
"1  c #2A160E",
"2  c #330D12",
"3  c #251512",
"4  c #2A1412",
"5  c #241A15",
"6  c #2A1A14",
"7  c #281718",
"8  c #241D1A",
"9  c #2B1D1A",
"0  c #361A17",
"q  c #2D2117",
"w  c #26211C",
"e  c #2C221D",
"r  c #33231C",
"t  c #3A251C",
"y  c #1B1B22",
"u  c #261D21",
"i  c #311E21",
"p  c #1A2929",
"a  c #192A35",
"s  c #2C2423",
"d  c #282726",
"f  c #2E2D24",
"g  c #342422",
"h  c #332B24",
"j  c #3B2B24",
"k  c #392A28",
"l  c #3A322B",
"z  c #273236",
"x  c #383735",
"c  c #45171A",
"v  c #531316",
"b  c #6A101C",
"n  c #46261D",
"m  c #512A1C",
"M  c #6F221E",
"N  c #4D1A23",
"B  c #581A23",
"V  c #710F22",
"C  c #6A1826",
"Z  c #761929",
"A  c #442C22",
"S  c #492825",
"D  c #562826",
"F  c #4B3225",
"G  c #43342A",
"H  c #4A3529",
"J  c #4B392C",
"K  c #57372A",
"L  c #483C35",
"P  c #533B34",
"I  c #67292A",
"U  c #76252A",
"Y  c #683829",
"T  c #75322F",
"R  c #7A2833",
"E  c #683B34",
"W  c #4F4026",
"Q  c #58432D",
"!  c #474239",
"~  c #49413E",
"^  c #594537",
"/  c #66432E",
"(  c #674938",
")  c #714E30",
"_  c #764A36",
"`  c #79563B",
"'  c #7B6638",
"]  c #343F41",
"[  c #314C4F",
"{  c #27585A",
"}  c #255E5F",
"|  c #1E6263",
" . c #2A6263",
".. c #23666A",
"X. c #266669",
"o. c #376F72",
"O. c #4B4544",
"+. c #4B4947",
"@. c #584B46",
"#. c #5B504E",
"$. c #674C47",
"%. c #6A5646",
"&. c #755344",
"*. c #775B47",
"=. c #6C5A53",
"-. c #7A624D",
";. c #6A655E",
":. c #7C6653",
">. c #426E6F",
",. c #45787A",
"<. c #76696E",
"1. c #7B7168",
"2. c #851929",
"3. c #961A2A",
"4. c #881D33",
"5. c #981E31",
"6. c #A21E2D",
"7. c #872426",
"8. c #93262A",
"9. c #88352C",
"0. c #97392B",
"q. c #862633",
"w. c #9D2834",
"e. c #883734",
"r. c #963A35",
"t. c #A62532",
"y. c #AB2F32",
"u. c #C43B2D",
"i. c #C93839",
"p. c #DB363E",
"a. c #E1343E",
"s. c #88472B",
"d. c #994736",
"f. c #89563B",
"g. c #955036",
"h. c #A74A36",
"j. c #A65638",
"k. c #B15430",
"l. c #B35B39",
"z. c #8A633A",
"x. c #956A3B",
"c. c #AE6F39",
"v. c #BB673A",
"b. c #C94835",
"n. c #E5563F",
"m. c #C3753C",
"M. c #883646",
"N. c #AE3749",
"B. c #C43742",
"V. c #DA3842",
"C. c #904F4A",
"Z. c #855947",
"A. c #AB4645",
"S. c #87654B",
"D. c #9A6749",
"F. c #967448",
"G. c #846B56",
"H. c #9A6B52",
"J. c #8C725A",
"K. c #977657",
"L. c #A56744",
"P. c #A6794B",
"I. c #BB7343",
"U. c #A57E56",
"Y. c #A8536D",
"T. c #877A6A",
"R. c #90716A",
"E. c #A47E62",
"W. c #C84844",
"Q. c #E65941",
"!. c #CD7047",
"~. c #C67A47",
"^. c #E16844",
"/. c #CA833E",
"(. c #BC844A",
"). c #AE8852",
"_. c #A78759",
"`. c #958570",
"'. c #988A7A",
"]. c #A88868",
"[. c #B09269",
"{. c #A8967A",
"}. c #BC9879",
"|. c #BEA17A",
" X c #C68945",
".X c #D8874A",
"XX c #D99348",
"oX c #D09353",
"OX c #E2964B",
"+X c #E49E57",
"@X c #CFA95C",
"#X c #F7BB48",
"$X c #E6A657",
"%X c #EDAA55",
"&X c #F5B458",
"*X c #C79A7A",
"=X c #D49E7A",
"-X c #D7AF66",
";X c #C8A57C",
":X c #DCA67E",
">X c #D9A97E",
",X c #EDB263",
"<X c #E1A37E",
"1X c #F8C253",
"2X c #DAC87C",
"3X c #F7C668",
"4X c #F8D36A",
"5X c #FAD46C",
"6X c #EDCE7A",
"7X c #F9D671",
"8X c #FCDA71",
"9X c #41799E",
"0X c #94708B",
"qX c #B16E89",
"wX c #658E99",
"eX c #6E9092",
"rX c #459BD6",
"tX c #47A1DE",
"yX c #6AABC8",
"uX c #918F8F",
"iX c #B08F87",
"pX c #A89787",
"aX c #B6A68F",
"sX c #88A9A9",
"dX c #B0B1AC",
"fX c #C89F82",
"gX c #CCA383",
"hX c #CCA984",
"jX c #DBA683",
"kX c #D3AA82",
"lX c #D4A987",
"zX c #DDAC82",
"xX c #D6B489",
"cX c #CBB490",
"vX c #E1AD82",
"bX c #E3A984",
"nX c #E3B385",
"mX c #E5B987",
"MX c #E4B48A",
"NX c #E4B98A",
"BX c #E9B98A",
"VX c #E4B990",
"CX c #C88AAD",
"ZX c #C8BCA7",
"AX c #C3B7B8",
"SX c #DAC59D",
"DX c #E6C899",
"FX c #DCCBAA",
"GX c #EDD4A7",
"HX c #F5DBA9",
"JX c #CEA8C4",
"KX c #B6CBCA",
"LX c #D6CCC7",
"PX c #CDD8D4",
"IX c #E0D4CA",
/* pixels */
"bX<X<X:XE.:.^ e ; O : : O O O       o o o o o o o         o o o o o o - 9XrXa o o     o o o u =.fXjX",
"<X<X=X*X@.k k k u : k k : % 8 3 5 5 3 3 3 3 3 3 5 3 5 5 5 6 6 6 3 5 3 [ rXtX9X' F.F.' W 5 $ i =.gXjX",
"bX=X^ A E E S A 7 % K E D S 9 5 5 e ( &.&.&.&.&.&.&.&.&.&.*.*.*.&.*.*.wXtXtXyX6X8X8X8X4X@X) g -.gXzX",
"bX;Xr # Y T S 0 < # K T I D 4 @ + @ J ^ Z.H.H.H.H.H.H.H.H.H.H.H.H.H._.sXtXtXyX6X7X8X8X8X8X7X).G.lXzX",
"nXgXr % K Y 4 + % < S K n n 0 0 % + @ & ` D.D.D.D.D.D.L.D.D.D.D.D.P.-X6XdXdX2X8X8X8X5X5X8X8X8X-XlXnX",
"BXzXJ.*.P H z z f g k g n n Y / 0 @ A K _ f.) / ` f.f.f.f.f.f.f.f.).8X8X8X5X#X4X8X8X3X#X8X8X8X7XNXMX",
"NXNXBXlXP g [  .[ x s & r n g.l.m $ K Y Y Y 9 * K Y Y Y Y Y Y Y / @X8X5X4X#X#X8X8X8X5X#X1X4X7X8X6XnX",
"NXNXBXlXl ; [ X. . .[ [ d , s.k.m $ F K n 3 ( F.( 4 3 3 3 3 < < r -X8X4X#X1X5X8X8X8X8X5X1X#X5X8X6XnX",
"NXNXBXlXh O  .,.o.X.o.>.d # s.k.m @ 0 0 9 # f.oX_ # % % # # + + 4 -X8X8X8X8X5X,X+X+X,X7X8X7X8X8X6XMX",
"mXNXBXlXh ; dXPX,. .sXdX+.# s.k.m + @ # B Z d.v.d.U Z C C C C C C oX8X8X8X3X!.b.u.u.b..X4X8X8X8X6XzX",
"mXzX].T.z p eXsXo.X.eXsXx # _ j.n # , 2 C 2.k./.h.5.5.3.5.t.6.6.5.!.7X8X5X!.u.b.b.b.i.u..X8X8X7XmXnX",
"mXkX~ z {  . .X.X.X.X. .p + Y s.c , C Z 4.3.!.&Xv.7.8.t.y.V.V.V.p.V.%X8X,XQ.Q.Q.Q.Q.Q.n.^.4X8X-XlXMX",
"mXkXO.z { X.wXeXsXsX,. .p + 0 n B C 4.3.5.3.!.&XXX~.I.y.i.p.a.a.a.p.W.$X5X3X3X3X3X3X3X3X3X4X_.J.lXMX",
"mXkX~ z { X.sXKXKXKXwX .p + # , Z w.w.5.5.3.~.%X&X&XOXh.i.p.p.p.V.V.i.i.!.,X5X8X8X8X8X7X6X` e G.lXnX",
"mXkX~ z { ..o.,.,.,.X. .p + D 7.t.y.t.t.t.t.h.j./.&X$Xv.b.b.t.3.3.3.3.3.3.8.l.+X$X3X-X/ J 6 e -.lXnX",
"mXkX~ z { ..........{ [ d , Z 3.N.N.N.N.N.t.r.s.c.&X$Xv.m.v.0.7.7.7.7.7.7.7.d.m.c.oX_.* : 3 q -.hXnX",
"mXkX~ z { | ...... .p $ N C V Z Y.CXCXCXY.q.R I s. XXXOXXXXXXXOXOXOXOXXXOXOX$X&XP.6 : X : 3 r -.hXzX",
"NXkX~ z { ........ .- + B V Z Z qXJX0X<.0XqXH.Z.` ` z.x.c.(././. X X X X XXX(.F.^ X   . O : e :.hXnX",
"BXkX~ z { ...... .{ > # C Z 2.4.qXJX#.y uXJXiX].$.5 8 9 H z.z.z.x.x.x.x.x.P.` 5 * $ O O O & d :.hXnX",
"BXkXO.z { .... .a 8 B C 2.2.2.2.M.M.Z.G.R.T.@.G #.T.'.aX|.;X;XkXkXxXkX;X>XxXcXaX{.`.1.> & ; d :.gXzX",
"nXgX~ z { | .. .> # Z 8.8.8.7.7.U U D.U.G.%.L l =.pXaXFXSXxXDXHXHXHXGXDXDXGXGXHXSXpX'.w ; ; s :.gXjX",
"vX=X~ z { } X. .8 c j.v.oX$X$X$Xv.j.D.S.G > T.ZX`.x [ ! ^ &.[.GXDXDXkX_._._.[.xX`.f f x l 3 r -.gXjX",
"jX*XL z { } [ ] D 7.h.j.!.~.~.~. X X` ^ @.@.T.pX;.y [ =.@.G G.;X;X;X[.K.U._.K.K.=.8 w f s * 9 -.gXjX",
":X*XL z { { > + e.W.y.8.2.Z Z M  X,XQ @ T.cX1.x f & ;.ZX1.  J F.F.K.K.K.K.].J.0 r L l X   O 8 :.gXjX",
":X*XL d p p 7 c L.OX.X~.y.8.2.Z L. XK 3 '.FXT.l d O l #.x   J K.S.Q Q P ^ ( Q t A ^ P 9 7 @ ; j %.*X",
":X*XL 8 @ + c M  X,X,X,Xk.y.8.7.g.L.K r {.HX`.l s         . L J.*.6 < < 1 1 1 F K &.( D S $ . . 8 }.",
"zX*XL i D C C 2.0.h.r.0.l.m.~.~./ t *.S.cXHXSXcXT.8 ;   s J G t A F F D D I I ( _ Z.C.A.C.3     8 }.",
"nX;Xx 0 U 7.7.7.0.y.8.7.l.v..XOXK O -._.xXHXGXGX{.G w $ l P j 1 t H K K I U T ( ( *.C.W.A.4     8 *X",
"mX;Xl 0 g.j.l.l.m.!.8.2.2.7.I.XXK $ G.[.xXHXxX|.[.`.*.J j 1 t J H F t , , c 0 6 r ^ _ W.A.4     8 *X",
"NXzX-.( _ _ _ ) f.x.d.0.0.0.~.XXK $ *.K.|.xX;X[.].].%.j j r A K H F S B C U D % 5 L E A.C.< . X w ;X",
"NXNXBX;Xe . @ @ @ < L.I.m.~.$X,XQ $ P ) K.].].K.J.G.L + q J K K K D T N.B.B.e.+ $ h G ( P %   o 8 gX",
"NXNXmX;Xw * S.*.& % I 9.0.9./ Q 5 @ H Q *.G.%.Q J j r 9 r j A A S n M w.y.y.q.+ X ; : 8 5 X ; L :.lX",
"mXmXNX;Xw 5 P.F.j F T 9.9.T 1 X @ @ j H ( %.J r 5 + 5 j r r r r 0 0 c R 8.w.R , $ @ X   .   8 G.xXNX",
"mXmXmX;Xw 5 ^ < F.,X%X%X,X-X) F *   % : j J G j h e : @ O O X X X X @ # , , c r.q.U D + O % q :.xXNX",
"mXmXmX;Xe 5 *./ S.(.I.~. XI.T Y 3 . 4 0 r h s e e 8 > & & & & & & & $ X % 2 N R q.q.U 2 4 3 r :.xXNX",
"mXmXmX;Xe 5 oX-XK c v b V Z U I 4 + B R ,   X X X   w l h h f f h k e 3 c U B + , U U C B # 5 G.xXNX",
"NXNXNXxXK.:.*.` F n S D D D c c c 2 Z q.,           ; 8 w f f f f f g c B Z N . 3 e.r.r.e.< 5 :.xXNX",
"NXNXNXNXVX}.l 5 G J J J H G * + N Z q.q.2 . . X O O O O > h h h h h S C C Z N . 4 g.j.I.L.4 > :.xXNX",
"NXNXBXMXMX}.l 9 G J J J J G : + I q.4.2.v c $.1.'.dX1.l G D I I I I Z Z 4.4.B . , I D t q X : :.xXNX",
"NXMXnXkX].J.g 5 k l G H H G : @ T h.d.r.Z b C.R.iXIXpX^ P S B C C C C Z Z R B . 4 _ / G l l L -.}.xX",
"nXnXnX*Xs X . . X @ 9 g j k % @ P.%X%X,Xg.b b B R.LX'.^ J + . . + + , c c c 2 . j fX;X;X;X;X{.f k gX",
"nXnXvX*Xe   $ $ $ = 5 9 9 8 @ @ F.OXOX$Xj.9.I 2 <.LX'.^ @.O.O.O.O.O.@.$.$.$.@.x O.T.`.hXcXcXaXw 8 ;X",
"zXvXvX*Xw O u s s s % . .     @ ` c.I.(.(.(.(   ;.LXuX@.1.AXAXAXAXAXAXAXAXdXdXuX<.: l dXLXLXdXd 8 ;X",
"zXzXvX:XE.G.8 % = : 7 7 9 9 6 9 j F F H H H 9   @.aXT.@.#.@.+.+.O.O.O.O.O.O.L x f X : +.@.@.+.! :.kX",
"nXvXvXvXnX}.k $ . X e g g g t g *       . . @ % @.pXG.$.P < $           .       . $ % % + . % :.xXNX",
"zXvXvXvXjX*X-.j %   $ % % < 9 l h s &   . . ^ P.S.H I R R I N @ X X @ 5 7 3 :   : n K F 1 % q -.hXMX",
"zXvXvX:XjX*XS.k ; . r t n t r g g s 5 * * % ( F.( # c U U I N @ X . * F K K j X 5 D Y K 0 , r -.gXzX",
"vXzX:X:XjX*XZ.g & % F.oX(.U.A . . $ A S n S g $ $   . + + + + X X   0 P. X,X_.@ 5 F K S 4 % r *.gXjX",
":X:X:X:XjX*XS.j & X J / Q Q 5 X : : 9 9 9 9 9 : : : : : : : : : : O 5 ` z.F.( X @ : 9 g 3 % r *.gXjX",
":X:X:X:XjX*XS.g ; . . . . .   $ u : : : : : : : : : : : : : : : 8 $ X X X X .     . ; u ; = e *.fXjX"
};
