/* XPM */
static char *_ff995c2c57a4f1be00b0a0386b3c24b8PiUQIf5sPFtpRrv[] = {
/* columns rows colors chars-per-pixel */
"50 50 180 2 ",
"   c #0F0402",
".  c #0E0C0F",
"X  c #140604",
"o  c #1A0703",
"O  c #140906",
"+  c #1A0B05",
"@  c #15060A",
"#  c #140D0D",
"$  c #1C0C0A",
"%  c #15100E",
"&  c #1A100E",
"*  c #0F0E11",
"=  c #120D12",
"-  c #180D11",
";  c #100D18",
":  c #121114",
">  c #191314",
",  c #161817",
"<  c #1A1917",
"1  c #15141A",
"2  c #1C171B",
"3  c #1C191D",
"4  c #210D06",
"5  c #210C0B",
"6  c #26130E",
"7  c #2E1308",
"8  c #361204",
"9  c #3D160C",
"0  c #3E190D",
"q  c #251412",
"w  c #291612",
"e  c #261817",
"r  c #2E1915",
"t  c #2D1C1B",
"y  c #331610",
"u  c #351C16",
"i  c #3B1C14",
"p  c #341E1A",
"a  c #3A1D1A",
"s  c #2F2019",
"d  c #362015",
"f  c #3A2013",
"g  c #34211C",
"h  c #3B221C",
"j  c #1E1920",
"k  c #341D20",
"l  c #352422",
"z  c #3A2521",
"x  c #3A2824",
"c  c #362128",
"v  c #382E2D",
"b  c #3A302F",
"n  c #2F2D30",
"m  c #302E31",
"M  c #333135",
"N  c #38373C",
"B  c #4A1E05",
"V  c #42170E",
"C  c #42190E",
"Z  c #4B1D0B",
"A  c #531B09",
"S  c #431E13",
"D  c #4A1E15",
"F  c #4B1E18",
"G  c #54210E",
"H  c #442115",
"J  c #4A2214",
"K  c #41241D",
"L  c #482018",
"P  c #522615",
"I  c #5A2415",
"U  c #542817",
"Y  c #5C2916",
"T  c #522518",
"R  c #582218",
"E  c #552818",
"W  c #642714",
"Q  c #412521",
"!  c #462922",
"~  c #4A2B23",
"^  c #493125",
"/  c #45352B",
"(  c #49372C",
")  c #45392C",
"_  c #4B392C",
"`  c #5F3525",
"'  c #4D3C33",
"]  c #513E33",
"[  c #553E38",
"{  c #673E26",
"}  c #693C27",
"|  c #643C2B",
" . c #6C3D2C",
".. c #713827",
"X. c #723B2B",
"o. c #6F3F32",
"O. c #753F33",
"+. c #50412E",
"@. c #4E4133",
"#. c #514134",
"$. c #53413A",
"%. c #58403C",
"&. c #664126",
"*. c #65412A",
"=. c #6B402D",
"-. c #624235",
";. c #6D4232",
":. c #654038",
">. c #724133",
",. c #60514C",
"<. c #8C4F3A",
"1. c #865235",
"2. c #895435",
"3. c #82523B",
"4. c #8B513D",
"5. c #8E5F3D",
"6. c #92573E",
"7. c #925B3E",
"8. c #825747",
"9. c #8D5B43",
"0. c #8D5D4F",
"q. c #915940",
"w. c #916253",
"e. c #DDA57E",
"r. c #DDAA7E",
"t. c #E0A37F",
"y. c #E0AC7E",
"u. c #D0A787",
"i. c #DEA680",
"p. c #DEAB81",
"a. c #D2A78B",
"s. c #D3AA8A",
"d. c #D9AF8F",
"f. c #DFB084",
"g. c #D5B18E",
"h. c #D8B28E",
"j. c #D4AC90",
"k. c #DCAE96",
"l. c #D6B291",
"z. c #DBB593",
"x. c #DCBA95",
"c. c #DFB79D",
"v. c #DCBB9A",
"b. c #E0A580",
"n. c #E0AB81",
"m. c #E0AD82",
"M. c #E1AE83",
"N. c #E1AD82",
"B. c #E2AF84",
"V. c #E2AD83",
"C. c #E3AF8A",
"Z. c #E0B082",
"A. c #E3B085",
"S. c #E3B385",
"D. c #E5B286",
"F. c #E3B786",
"G. c #E5B587",
"H. c #E4B486",
"J. c #E7B487",
"K. c #E3B485",
"L. c #E9B686",
"P. c #E4B887",
"I. c #E6B887",
"U. c #E4B887",
"Y. c #E4B288",
"T. c #E6B789",
"R. c #E7B789",
"E. c #E6B68A",
"W. c #E6B58E",
"Q. c #E6B689",
"!. c #E9B589",
"~. c #E5B989",
"^. c #E4BA88",
"/. c #E7B88A",
"(. c #E4B989",
"). c #E8B88A",
"_. c #E9B98A",
"`. c #E1B696",
"'. c #E0B895",
"]. c #E0B49B",
/* pixels */
"e.e.e.e.i.a.' , , : , : : : : 1 : : 1 1 1 1 > > > < : : , 1 ; ,.a.e.r.e.r.r.r.e.e.e.e.e.e.e.t.e.e.e.",
"i.i.b.e.i.j.' % # # O # O + O $ o o + # O O X o X X O O = = = / s.p.N.N.N.N.N.N.N.n.e.e.e.e.e.e.e.e.",
"e.e.e.e.i.k.[ $ 5 p y :.|  .} } { &.*.*.| | } { =.| -.7 p 5 $ ^ h.D.G.G.G.G.G.G.G.D.p.p.r.e.e.e.e.e.",
"e.e.e.e.p.].[ $ 5 ~ S w.9.6.6.7.7.5.5.9.9.9.q.7.7.9.w.8 ! 6 X _ z.E.).~.E.E.).E.E.E.Y.D.D.p.p.e.e.e.",
"e.e.e.p.C.c.$.$ o Q S 8.3.1.1.2.1.1.3.3.3.3.4.<.4.4.0.8 K w # _ x.E.P.P.P.P.P.F.E.~.E.).!.V.p.e.e.e.",
"e.e.p.Y.`.c.$.# 5 a i J Z B B B Z Z Z C Z Z A A W ..>.S K w # / x.E.F.F.P.~.P.P.~.~.E.~.E.D.N.r.e.e.",
"e.e.p.W.W.v.@.# $ h ! i H K H H S S H S H H P G I X. .C K 6 # _ x.P.P.~.~.~.~.~.F.P.G.E.G.Z.N.r.e.e.",
"t.b.p.E.(.x.@.# $ g h p p p g p a a p g g h H J Y X.>.C ! 6 $ _ x.P.~.~.U.U.U.U.P.P.E.E.G.p.r.e.e.e.",
"b.n.E.~.(.x.@.+ 4 p h o + $ # # $ # # # + X f J E  .>.C Q w % ) x.P.P.P.P.P.U.U.P.~.~.G.G.E.D.r.i.e.",
"e.n.G.~.(.x.+.+ 4 p l o $ # # # # # % . # X p H E  .>.S Q q # ) x.P.P.P.P.P.U.U.P.F.P._.G.r.r.N.p.b.",
"e.y.G.U.U.x.#.+ 5 p l O # # * * # # ; * # X i J I X.>.V K w # ) x.P.P.P.P.P.P.P.~.G.P.).G.Z.N.N.n.b.",
"r.y.F.U.U.x.] $ 5 p l @ # # * * = = * ; - O i D R X.O.V K w # ) x.P.P.P.P.P.P.P.P.P.P.G.!.!.D.r.e.e.",
"r.y.F.U.(.x.] $ 5 k c @ # - = ; = ; ; ; = @ a F R X.>.V K w # ) x.P.P.P.P.P.P.P.P.F.E.~.E.D.N.N.i.e.",
"r.N.G.U.(.x.] $ 5 k l @ # - = = = = * ; - O a L E  .>.C K w # ) x.P.P.P.P.P.P.P.~.F.E.~.D.p.N.N.n.b.",
"e.N.G.(.(.x.] $ $ p l O # # # # # # = = # X p H U  .;.0 K 6 $ ( x.P.P.P.U.U.U.U.~.~.E.D.Z.D.D.p.e.e.",
"i.n.E.~.(.x.#.# + s l O # # # # # # # . # X d H U  .;.0 K 6 $ _ x.P.P.P.U.U.U.U.P.P.F.f.p.D.D.N.i.e.",
"e.V.D.E.E.x.#.# + g l O # = = # # # = = # X p H P  .>.C K 6 # _ x.U.P.P.F.F.P.P.G.G.r.r.D.N.r.D.n.i.",
"e.e.N.G.).x.#.# $ g l O # ; = = - # ; = # X i S P  .>.C Q w # ( x.~.P.U.~.P.F.P.K.r.D.D.p.D.E.e.e.e.",
"e.e.r.G.).x.#.# $ g l O # = = = - # = = # X p S P  .>.C K 6 # ( x.G.P.~.G.P.E.Z.f.Z.D.N.N.D.Y.e.e.e.",
"e.e.r.D.!.z.#.# 5 g z O # = = = # # = * # X i S U  .>.9 K 6 # ( x.G.P.~.G.G.G.p.p.D.N.r.B.n.e.p.e.e.",
"e.e.e.n.B.z.#.# $ g z O # * = = # # = * # X p S E  .>.9 h 6 # ( g.E.D.p.E.D.p.D.N.N.V.B.V.e.e.e.e.e.",
"e.e.e.e.r.d.] # $ p z O # * = = - = = * # X i S U  .>.9 K 6 # / s.Z.N.r.Z.V.p.V.V.N.B.B.e.e.i.e.e.e.",
"b.e.e.e.e.s.' # $ p z O # * # # # = ; * # X p S P  .>.9 K 6 # / s.r.V.B.n.V.Y.n.V.B.n.e.e.t.t.b.e.e.",
"e.e.e.e.e.s.' $ $ p z O # = # # # = ; * # X i S P  .>.9 h 6 # ( u.e.n.n.e.p.n.e.p.p.e.e.e.e.e.e.e.e.",
"e.b.e.e.e.s.' $ $ p z X # = # # = : * : # X p S P  .>.9 K w # / s.e.e.e.e.e.e.e.e.b.e.e.e.e.e.e.e.e.",
"e.e.e.r.e.u.' $ $ p z X # * # # # = ; = =   a S P  .o.9 K w # / a.e.e.e.e.e.e.e.e.e.e.e.e.e.e.e.e.e.",
"N.N.p.N.r.u.( # $ p z X # * # # = . = ; -   u H P  .o.9 K w # / s.e.e.e.e.e.e.e.e.e.e.e.e.r.N.N.y.r.",
"!.!.G.E.Z.s.' # $ p z X # * # # # = = 1 : q a S T  .o.C K w # ( s.e.e.e.e.e.e.e.e.e.e.r.r.Z.~.~.E.E.",
"E.E.~.P.G.z.] # $ p z X # * # # # # * N M v a L T  .>.C K w # ( d.n.e.e.e.e.e.e.e.r.V.D.D.G.).P.G.G.",
"E.F.~.F.E.x.#.# $ p z X # = # # # = * N m b a S T  .>.C K w # _ `.B.r.e.e.e.e.e.r.N.E.~.P.P.~.F.~.~.",
"~.F.~.U.P.x.@.# $ p z X - = = = # = = M n t u S T  .;.C K 6 # _ `.B.r.e.e.e.e.e.N.Y.E.E.P.P.U.U.U.U.",
"~.F.P.P.P.x.' # $ g l O - = = = # = . * = X a S P } ;.C K 6 + _ `.N.e.e.e.e.e.e.N.E.E.F.~.P.U.U.U.U.",
"P.G.P.P.P.x.@.$ $ g l O # ; = : * * * : # X p S P  .;.C K 6 # _ '.r.e.r.e.e.e.r.Z.F.~.~.P.P.P.~.P.P.",
"P.P.P.P.U.x.@.# $ g l O # ; = ; * * * : # X p S P  .;.S K w # _ z.G.n.e.e.i.e.D.G.~.~.~.P.P.P.P.P.P.",
"~.P.P.P.U.x.@.# + p g O # = = = = = * : # O p S P  .;.0 Q w # _ z.p.N.B.i.e.r.E.E.~.~.U.U.U.P.P.P.P.",
"~.(.(.U.(.x.#.# $ p l O # = = = = = * : # O p S P } ;.i Q q # ) z.r.N.Y.i.e.r.Y.E.~.P.U.U.U.P.P.P.P.",
"(.(.(.(.(.x.#.# 5 p l O # = # = = = * : # O i S P  .;.i z q # _ z.G.N.r.e.e.e.E.E.~.P.U.U.~.~.P.P.P.",
"(.(.(.(.(.v.$.# 5 p l O # = * = = * * : # O i H P  .;.0 z q # ) x.D.N.N.p.e.r.D.E.~.~.U.U.~.~.P.P.P.",
"(.(.(.U.(.v.#.# $ p l O # = * * * * * . # O i H P  .;.0 Q q O ( z.r.N.Y.p.e.r.D.E.~.~.U.U.~.~.P.P.P.",
"(.U.P.P.~.x.#.# $ p l X = = * * * * * * # O a H P  .;.0 Q q # ( g.Z.N.p.e.e.r.Y.E.~.P.U.U.U.~.~.P.P.",
"F.P.G.G.F.z.] # $ g l # - = ; * * * : : # X a S P  .>.0 Q q $ _ h.p.N.V.i.e.r.!.).P.P.U.U.~.~.G.P.~.",
").).L.K.Z.g.' # $ g l X - = ; : : * ; * # O a S P  . .0 Q q $ _ h.N.V.N.p.e.e.V.E.E.F.U.~.P.E.).P.P.",
"L.L.K.y.r.l.] # 5 g x O - = = = - # = # # O u S P  . .C Q q # ( d.V.V.n.e.e.e.e.N.G.F.F.~.P.D.~.P.P.",
"!.D.N.r.p.l.] # 5 p z X $ # O # # # % # # O u S P  .;.C Q q # _ l.N.n.e.e.e.t.e.N.G.~.~.~.~.E.E.~.~.",
"!.N.N.Z.Z.g.' $ 5 p h o $ # X O X X O O # $ u S P  .;.9 z q & _ l.n.e.e.e.e.e.i.N.Z.E.E.D.E._.G.F.E.",
"p.N.B.N.p.l.' # 5 p h r p p p g g g g t t t h S P } ;.i z q # / s.e.e.e.b.e.e.e.r.p.G.G.p.G._.N.D.G.",
"e.V.V.p.p.l.$.# 5 h h h g g p p p p g g l g h S J ` | S x e # / s.e.e.t.b.e.e.e.e.r.D.D.p.Z.D.p.D.G.",
"Y.V.V.V.f.l.' # $ p r p r t t r r u t t t t u u i ~ ~ u g q # / a.e.e.e.e.e.e.e.e.e.r.r.e.r.n.V.p.r.",
"V.p.i.V.p.j.$.- # # - - - - # # # # # # # # - # $ # # $ # # = / a.e.e.e.e.e.e.e.e.e.e.e.e.e.e.p.n.e.",
"i.e.e.e.i.j.%.2 3 3 j 3 3 3 3 3 3 3 3 3 3 3 3 3 3 3 2 3 3 3 3 ' a.e.e.e.e.e.e.e.e.e.e.e.e.e.e.i.b.e."
};
