/* XPM */
static char *_8e68a638cda4934814fbf3b0826a9f0aiMEXr8fifMFTwXo[] = {
/* columns rows colors chars-per-pixel */
"50 50 256 2 ",
"   c #0C0401",
".  c #0C0A04",
"X  c #080707",
"o  c #130401",
"O  c #1B0401",
"+  c #140B04",
"@  c #1C0B03",
"#  c #1B0C0A",
"$  c #140B0A",
"%  c #13130C",
"&  c #1A120A",
"*  c #1A1515",
"=  c #0B140F",
"-  c #240301",
";  c #2C0303",
":  c #230D01",
">  c #2B0D01",
",  c #290B0A",
"<  c #360806",
"1  c #2C1402",
"2  c #2B150A",
"3  c #26160A",
"4  c #321602",
"5  c #341A0C",
"6  c #371707",
"7  c #231B13",
"8  c #281916",
"9  c #361916",
"0  c #380913",
"q  c #3A2308",
"w  c #2C231C",
"e  c #2A2419",
"r  c #3A2415",
"t  c #33241C",
"y  c #392619",
"u  c #271D22",
"i  c #391F22",
"p  c #172F2F",
"a  c #2C2324",
"s  c #2A2B27",
"d  c #332B23",
"f  c #3B2C24",
"g  c #372624",
"h  c #373226",
"j  c #2A3A3A",
"k  c #2F3529",
"l  c #1A201F",
"z  c #481907",
"x  c #471716",
"c  c #571619",
"v  c #4F110C",
"b  c #651918",
"n  c #73120F",
"m  c #432908",
"M  c #422C1E",
"N  c #472519",
"B  c #553014",
"V  c #7A2618",
"C  c #793416",
"Z  c #6D2912",
"A  c #4A1C22",
"S  c #561925",
"D  c #661B25",
"F  c #751A2A",
"G  c #472B26",
"H  c #562727",
"J  c #493629",
"K  c #563829",
"L  c #572B31",
"P  c #4B3A31",
"I  c #563734",
"U  c #462530",
"Y  c #662727",
"T  c #782526",
"R  c #66372A",
"E  c #682833",
"W  c #752632",
"Q  c #673737",
"!  c #783935",
"~  c #7B3729",
"^  c #2D403E",
"/  c #494339",
"(  c #574538",
")  c #58422C",
"_  c #684837",
"`  c #754637",
"'  c #6B5539",
"]  c #734C2F",
"[  c #77603E",
"{  c #2C3E40",
"}  c #1D5159",
"|  c #28595C",
" . c #365A5B",
".. c #324847",
"X. c #3A615D",
"o. c #2C5E63",
"O. c #286569",
"+. c #376668",
"@. c #396E72",
"#. c #5B4E44",
"$. c #564E45",
"%. c #4B4E48",
"&. c #694C42",
"*. c #685749",
"=. c #775A47",
"-. c #785B56",
";. c #6C554F",
":. c #7A644C",
">. c #786758",
",. c #706757",
"<. c #486666",
"1. c #4F7173",
"2. c #766B65",
"3. c #736E69",
"4. c #5E5961",
"5. c #860915",
"6. c #8E191E",
"7. c #872618",
"8. c #8F321A",
"9. c #961B26",
"0. c #821B2B",
"q. c #882427",
"w. c #8B3528",
"e. c #993925",
"r. c #9A2937",
"t. c #863735",
"y. c #942C2A",
"u. c #A62C37",
"i. c #AE362E",
"p. c #A11E24",
"a. c #CB393A",
"s. c #89493B",
"d. c #895339",
"f. c #994E34",
"g. c #A64632",
"h. c #A85638",
"j. c #B25133",
"k. c #976A34",
"l. c #936C3A",
"z. c #AC6E3C",
"x. c #A0421C",
"c. c #C67A3C",
"v. c #903644",
"b. c #A83344",
"n. c #CA3944",
"m. c #D63845",
"M. c #884849",
"N. c #995747",
"B. c #8C524B",
"V. c #A65B46",
"C. c #A94E49",
"Z. c #89684A",
"A. c #96694A",
"S. c #977445",
"D. c #886A55",
"F. c #877358",
"G. c #96795A",
"H. c #976C57",
"J. c #B1744D",
"K. c #B35164",
"L. c #897866",
"P. c #977A67",
"I. c #897170",
"U. c #AB7B6A",
"Y. c #815B6A",
"T. c #C46747",
"R. c #C67A46",
"E. c #CB7552",
"W. c #C55746",
"Q. c #BD823C",
"!. c #9E845D",
"~. c #A8875B",
"^. c #B78852",
"/. c #9C856D",
"(. c #988777",
"). c #898176",
"_. c #A88768",
"`. c #B79367",
"'. c #AA8874",
"]. c #B38A75",
"[. c #A99277",
"{. c #BD997B",
"}. c #B69776",
"|. c #B88A66",
" X c #BDA17A",
".X c #C5884B",
"XX c #D98858",
"oX c #D19259",
"OX c #E6925D",
"+X c #D88763",
"@X c #C89C69",
"#X c #C5997A",
"$X c #D2926B",
"%X c #F09970",
"&X c #C9A37C",
"*X c #DCA47D",
"=X c #DCA97D",
"-X c #D7A47B",
";X c #DCA76E",
":X c #E2A37C",
">X c #E9A977",
",X c #FAA977",
"<X c #F1AF6C",
"1X c #DFA35A",
"2X c #4B7D84",
"3X c #917782",
"4X c #CC7995",
"5X c #548688",
"6X c #72989E",
"7X c #998E89",
"8X c #A89683",
"9X c #B99984",
"0X c #AE9594",
"qX c #BBA48B",
"wX c #B7A797",
"eX c #8AA6AA",
"rX c #B6A8A9",
"tX c #BCB0B1",
"yX c #C69984",
"uX c #CD8F8F",
"iX c #CCA58B",
"pX c #C8A688",
"aX c #D5A584",
"sX c #DDA582",
"dX c #DDAA83",
"fX c #D2AB8C",
"gX c #D7A888",
"hX c #DDB48C",
"jX c #D9B68A",
"kX c #C7A893",
"lX c #C8B398",
"zX c #DBB593",
"xX c #DCBA94",
"cX c #D6B699",
"vX c #CEAD8F",
"bX c #E1A582",
"nX c #E1AC83",
"mX c #E7A886",
"MX c #E3B485",
"NX c #E4B986",
"BX c #E4B68A",
"VX c #E4BA8B",
"CX c #EABB89",
"ZX c #E3BB93",
"AX c #E1B794",
"SX c #F7A887",
"DX c #CD90A7",
"FX c #CBB7AD",
"GX c #E6C698",
"HX c #D1C7BD",
"JX c #ECD3AD",
"KX c #DEC69A",
"LX c #A8CACE",
"PX c #BCE5E9",
"IX c #DCCBC6",
"UX c #E0D6D5",
/* pixels */
":X-X*XbX*X:X*X:X*XsXsXsXdX*X*X=X=X-XbXbXbXbX*X*X*X*X*XsX*X*XmX*X=X-XgXaX9X9XyXgXbXgX{.9XyXyXsX*X*X*X",
"*XbXsX*X*X-X*XsXnXnXdXnXdXMXMX=X=X*X*X*XsXbX*X*X*XsXsX*X*X*XsXsXaXaXpX].B 4 ` U.gXiX_ K R B aXaXsXsX",
"*X*X*XdX*X*X*X*XMXMXNXMXBXMXMXMXMX=X*X=XdXsX*X:X*X=X-XsX*X*X*X-X}.'.'.D.N x R B.U.P.G K Q R H.].-X*X",
"*X*XsX*XdXBXBXBXNXNX=XCXMXVXNXBXCXMXBXBX-X*XmX:X-X*X-XsXbXbXhX`.K 5 : 5 H H ` K , 8 J I _ &.N K #X*X",
":X:X-XMXhXhXhXVXBXNXCXMXBXZXdXdXMXBXVXVXdXdXbX:X:X*X-XdX*XhXB 1 : : 9 N x N G 9 , 7 $ g L Q N _ #XsX",
":X*X*XVXhX{.pXhXBXBXMXBXAXzXfX&XaXZXzXzXZXAXsXbXsXsX`.&XZXzXkXL.y r R R H G 5 w s s j s G N 9XiXaXsX",
"bXsXgXxXpX) ] hXVXBXjXjXxXcXZ.K :.qXcXcXcXzXiXfXfXfXK Z.cXcXvX[.K N ] d.G G % l j j ..j k 9 pXsXsXsX",
"sXsXgX}.K P.pXZXVXBXxXS.4 B vX9X- : O - - ; ; ; < < #XH.4 =.cXpX( G d.d.> + 4.<.X.<.X.p = o fX*X*X*X",
":XbXAX}.m Z.`.NXBXBXfX_.B B |.U.; ; ; < < < < < < < J.k.z ` kX'.P N d.d.> $ 3.1.| 1.6X..* o zXdXsX*X",
":XnXBX}.q Z.@X=XBXaX].yX~.J.J.V.b c c b D b c D b b V.f.b Y B._ 9 9 d.d.> . eX6X} 2XPX1.* + lXhXBXsX",
":XdXZX{.q Z.@XCXsXU.! uXmX%XW.i.n n 5.5.5.5.5.q.q.n h.g.V b c < , 9 B.B.2 * LX6X} 5XPX1.l X lXzXdXsX",
"*XMXjX}.q l.@Xz.C V T q.w.8.i.n.n.m.m.m.a.i.p.p.7.n %XXXq.q.D D x < R R @ .  .+.+.+.+. . . ./ :.#X*X",
"=XdXxX Xm S.oX.Xh.8.q.r.u.u.i.n.m.m.m.m.a.i.i.E.E.c.<XE.7.9.q.0.F Y z q + =  .1.6XeXeX1.o.+.k =.#X*X",
"*XMXhX}.B ~.;X;XXXx.7.u.u.u.n.n.n.m.m.a.a.i.i.,X<X<X<XXXy.9.9.r.r.q.v - o X  .5XLXLXLX5Xo. .^ *.yXsX",
"*XnXhXjX}.}.] J.;XR.T.e.6.9.6.9.9.6.9.p.j.W.j.,X<X<Xz.g.y.r.u.b.b.b.v.E - .  .@.2X5X5X@.O.+.j #.#XsX",
"bXnXBXhXcXqXK ] ~..X+Xh.g.i.y.i.g.g.i.g.T.R..X1X1X1Xx.w.y.b.K.K.K.K.t.E x 8 j | O.O.O.O.O.+.{ #.{.sX",
"dXdXdXjX{.L.f o r }.@X1XOXXXXXXXOXOXOXXXXXXXoX^.k.k.] s.N.K.uXDXDX4Xv.F W S X p +.O.O.O.O.o.j #.#XsX",
"sX-XdXjX:.t % . e :.S.^..X.X.X^.Q.z.c.R.J.z.k.l.R B D.U.DX0X-.3XDXDXv.F F D O s <.O.O.O.O.+.j $.{.sX",
":X*XgX9Xy % %   + r m l.J.z.k.k.k.k.k.k.d.B m m q 5 L.8XFX0XU Y.DXuXv.0.n D - s <.+.O.O.O.X.j $.{.*X",
":XbXgX{.: % . / ,.L.F.}.&X@X`.`.`.`.`.~.~.!.F.2.>.>.#.>.7XI.Y.-.M.M.T 7.6.F v g l j @.O.O. .j $.{.*X",
"sX*XaXyXJ P d *.8XJXJXKXGXVXjXGXJXJXJXjXvXlXwXwX(.).( ( ;.-.P.B.~ 8.8.8.e.e.~ c - l 1.O.|  ...$.{.*X",
"*XsXgXfXqX0X2.h / qXlX!._.~.~.~.ZXGXGXG.' ) / / h 7 wXL.5 M D.A.z.J.OX%X%X%XV.t.< i <.| |  .j $.{.*X",
"*XsXgXfXkX(.*.w J (./.G.!.~.G.~.aXfXvX[ J ( *./ * % 7X).) K ' Z.J..X+X+X+X+XC.f.b H %. . . .j $.{.*X",
"aX#XyX_.O o o d P y 5 /.P.G.D.D.Z.Z.F.M y ).rX3.% % s ,.lX'.> [ @X$X8.n V V g.h.J.s., s .. .j $.{.*X",
"{.N y 8 o 8 y ( &.J G 5 5 5 5 5 r K D.M o * * * X . k ,.JXqXq _ A.h.w.q.e.e.,X,X,X+Xx 8 % = l $.{.*X",
"8X@ + . @ 9 H _ _ K J 5 5 5 5 5 r J >.G o + $ X X . h 2.JXqXq ' A.N.w.q.i.g.,X<X,X.Xv < O o 8 ( {.dX",
"9Xo   o , H ! B.=._ _ N N N N M r G P J f g &   7 e [.vXJXlXZ.=._ R J.E.j.T.g.g.h.g.V b c N y ) #XdX",
"qXo     0 E M.N.=.&.&.I R R K I J G t J I P 8 & f J KXJXJXxXG.' 5 6 J.XXT.T.7.8.x.e.V V T R N ) &XBX",
"qXo   o < E N.s.R r 2 9 x < < 2 G G P y 9 f P P (./.}.fXJXxX_.[ y r J..X7.7.7.g.+XE.V.V.N.H.K _ &XMX",
"kXo   o , I M.M.H 9 2 G c c c x G J P r 5 y J J (./.}.pXJXcXG.' 8 r J..X8.w.7.f.J.A.d.d.d.d.D.U.jXBX",
"qXO o o # f I I g @ - M.C.b.v.! L I J K M 3 @ 3 L.F.G._.].G._ J 7 y |.-XE.E.J.t.; > - - @ O zXhXBXVX",
"cXkXqX(.o + @ @ # O ; M.r.r.t.Y x y y r y w w d 3 5 M ) =.=.K y & @ 4 z C C C v > @ P L.#.: xXVXBXVX",
"AXAXxXpXo   o O - ; ; v.t.W E H 9 9 9 t w w d a $ & t M ;.&.J y & + @ > C C C Z z 4 K [.,.1 xXVXVXNX",
"NXMXVXzX:.P 2 9 H E Q c v v 0 , O # @ + + $ % $ 7 w d h J G , , o o y _ #X$X$X$X|.Z.4 F.=.: xXVXVXNX",
"NXCXBXAXcX'.L H E Q Q A x < - O * & $ & & & % * 7 7 w e w 8 9 ; O - H R V.V.h.h.d.A.}.[.:.1 xXVXNXNX",
"CX=XBX#X4 x Y Y Y < - H L A 9 u d d d d h w d h + +   .   , L S 0 ; H Y b Z v z z ] AX}.=.q jXVXNXNX",
"BXVXjX`.> x b T Y ; - L S c 0 9 f h d d s s k s           , E S 0 0 L I H N x x 4 K lX[.>.:.jXjXNXNX",
"MXVXxX[.4 K B.N.! < - H D D S A G g g g a 7 % % .   o   O < W W D S 9 9 G J G G G G P ( 8XqXjXNXNXNX",
"MXVXcX[.o 2 6 H H < - L W F F W E L L I U J P ,.0X0XI.;.x c T T T E 2 # G J P P P f 3 ( wXcXZXCXNXNX",
"hX_.[.(.J J K _ _ 5 - L E F D D S A A G G I P I.IXUXU.B.c T C.C.h.N.5 # G G J f t w & f L._.ZXNXNXNX",
"pX- 1 (.qXpXpXpX'.M # g A x x 0 O O O o 3 J ( 2.IXUXL c b w.SX>X>X@Xr o t f a 8       X   o jXNXNXNX",
"qXO 3 (.FXcXcX/.;.*.$.I.I.I.I.2.2.3.2.2.;.*.#.>.IXUXH c B.V.$XoX.X^.5 + 7 7 7 * 7 * * $ + O xXNXNXNX",
"qX@ 7 7XHXHXFX*.s 3.3XrXrXFXtXFXFXtXtXFX0X2.*.2.HXIX8 G '.U.~.S.S.A.r   $ o X * a e a w 7 : zXBXBXMX",
"lXD.>.t e w w e % * u a u a u u u a g g f $.#.;.0XrX3 : 5 6 q 4 4 4 t a a d a u $ * 7 ( 0XcXZXBXBXBX",
"AXfXcX1 O O : 7 * % X       X X X   o O 9 I &.-.wXFX2 O O o o o O o w d t d g 8 X * #.F.cXAXBXCXBXBX",
"dXdXzX}.}.9X9X9X(./ * * : 3 # $ . X o 9 G L Q Q &.-.*.J o o   & 8 w d e 2 5 , #   / kXiXgXBXMX:XMXMX",
"=XMXBXdXhXAXhXfX9X-.t 9 4 q r :     o y I I I G , r P.:.1 4 2 y f d h 8 1 > 1 :   *.zXBXdXdXBX=XMXMX",
"BXdX=XMXnX*X*XaX].&.2 8X}._.D.J o 7 t M N N G N N N m H.cXcXvX9X*.J # 8 :.H.P._ o *.gX*X*X*X=XMXnX=X",
"nXbX*XbXbX-XdXiXP.G @ *.' ' ( r 7 #.P.'.'.].'.].'.'.].#XgXBXgXaX{.P.y & K ) ( G o *.gX*X*X*XsXnXbX=X",
"*X=X*X*X:X*XaX_.1 @   @ : : @ o f L.pXiXpXiXiXiXiXpXaXgXsX*X*XsXgXpXP o @ O : @ o *.aX*X*X*X*XsXbX*X"
};
