/* XPM */
static char *beaad4b8c0824aade1ca95749643dad9WXtFjBh5ElRiTHYR[] = {
/* columns rows colors chars-per-pixel */
"50 50 255 2 ",
"   c #0C0401",
".  c #0C0A03",
"X  c #0C0B0A",
"o  c #050605",
"O  c #130501",
"+  c #1B0400",
"@  c #140902",
"#  c #1B0C02",
"$  c #140C0B",
"%  c #1B0B0B",
"&  c #18060A",
"*  c #04120D",
"=  c #1B120D",
"-  c #1A1407",
";  c #031212",
":  c #0B1B1C",
">  c #0A1717",
",  c #191714",
"<  c #100E11",
"1  c #220202",
"2  c #230C02",
"3  c #290A07",
"4  c #350707",
"5  c #23130C",
"6  c #22190D",
"7  c #271508",
"8  c #361B09",
"9  c #221513",
"0  c #231A13",
"q  c #2C1B14",
"w  c #2A1817",
"e  c #341E1A",
"r  c #361A16",
"t  c #350F14",
"y  c #2E221B",
"u  c #282216",
"i  c #34231C",
"p  c #3C241C",
"a  c #39281A",
"s  c #3A2712",
"d  c #0E1E20",
"f  c #0B2326",
"g  c #162426",
"h  c #193537",
"j  c #2D2828",
"k  c #332522",
"l  c #3A2524",
"z  c #3D2C24",
"x  c #3D2D2A",
"c  c #342926",
"v  c #3C322B",
"b  c #393226",
"n  c #313533",
"m  c #391F20",
"M  c #460708",
"N  c #47181A",
"B  c #531210",
"V  c #69120B",
"C  c #761909",
"Z  c #7A1718",
"A  c #6B1414",
"S  c #46250A",
"D  c #442919",
"F  c #572719",
"G  c #4B3319",
"H  c #57331C",
"J  c #772405",
"K  c #6F2816",
"L  c #471D23",
"P  c #581D23",
"I  c #681C28",
"U  c #781924",
"Y  c #422D24",
"T  c #412D29",
"R  c #492627",
"E  c #562728",
"W  c #433124",
"Q  c #43322B",
"!  c #4A342C",
"~  c #483727",
"^  c #563528",
"/  c #453732",
"(  c #652724",
")  c #772529",
"_  c #6A3B26",
"`  c #762B34",
"'  c #72373B",
"]  c #6A3335",
"[  c #374138",
"{  c #5B4327",
"}  c #504537",
"|  c #6E4E36",
" . c #7E3D45",
".. c #1C5757",
"X. c #2C5355",
"o. c #245A5D",
"O. c #285759",
"+. c #35575A",
"@. c #2D4849",
"#. c #1D5F62",
"$. c #295F62",
"%. c #315D60",
"&. c #246365",
"*. c #2A6365",
"=. c #266C6D",
"-. c #2B6B6C",
";. c #2A6469",
":. c #346363",
">. c #36686A",
",. c #2A6C71",
"<. c #3C6C71",
"1. c #3B7277",
"2. c #535248",
"3. c #6C5144",
"4. c #786554",
"5. c #477374",
"6. c #486C6E",
"7. c #7A726C",
"8. c #880C1A",
"9. c #84141A",
"0. c #93161E",
"q. c #950F1E",
"w. c #8B3819",
"e. c #922B1A",
"r. c #8A1725",
"t. c #961A27",
"y. c #8D1E30",
"u. c #A51B29",
"i. c #852828",
"p. c #942426",
"a. c #8C3821",
"s. c #953922",
"d. c #8A2733",
"f. c #972635",
"g. c #90363A",
"h. c #A9242E",
"j. c #B1262F",
"k. c #A82735",
"l. c #B32A35",
"z. c #B82936",
"x. c #BB3539",
"c. c #AD3C36",
"v. c #A6271C",
"b. c #C32C37",
"n. c #D4353D",
"m. c #DB353D",
"M. c #CA363B",
"N. c #E1343D",
"B. c #8A4A2F",
"V. c #B05031",
"C. c #BD7C33",
"Z. c #B3673A",
"A. c #974D1D",
"S. c #C44B37",
"D. c #C17D34",
"F. c #C46F35",
"G. c #8E3743",
"H. c #B23B48",
"J. c #C83945",
"K. c #DC3944",
"L. c #D63844",
"P. c #E13842",
"I. c #92594D",
"U. c #B44C46",
"Y. c #856B56",
"T. c #916B55",
"R. c #AE7A46",
"E. c #B47C47",
"W. c #AC7054",
"Q. c #997B63",
"!. c #8D766E",
"~. c #AA7E7B",
"^. c #C64748",
"/. c #CF7058",
"(. c #E17861",
"). c #C68337",
"_. c #B78248",
"`. c #AF855A",
"'. c #97846A",
"]. c #9A8876",
"[. c #94897C",
"{. c #B48866",
"}. c #AA8C77",
"|. c #B28E7A",
" X c #AC9279",
".X c #BC957B",
"XX c #B9957A",
"oX c #A98669",
"OX c #9E825B",
"+X c #D18E4E",
"@X c #E89B5A",
"#X c #E89053",
"$X c #E8A54E",
"%X c #EBA656",
"&X c #F2A75B",
"*X c #F1B25A",
"=X c #CB9972",
"-X c #EA956A",
";X c #DCA47D",
":X c #DDAA7E",
">X c #D6A578",
",X c #D3A775",
"<X c #EBA865",
"1X c #F6AA66",
"2X c #E1A47D",
"3X c #E2A97C",
"4X c #F2B270",
"5X c #DFA551",
"6X c #4E7F83",
"7X c #578C8F",
"8X c #72A3A6",
"9X c #6A9B9F",
"0X c #9C8E86",
"qX c #AB9883",
"wX c #B79884",
"eX c #A98E83",
"rX c #B9A68E",
"tX c #BAA694",
"yX c #8FB2B4",
"uX c #B3A9A1",
"iX c #C29D8C",
"pX c #C9A788",
"aX c #D5A585",
"sX c #DBA683",
"dX c #DDAA83",
"fX c #D4A689",
"gX c #D4AA8C",
"hX c #D6AC87",
"jX c #DCB58A",
"kX c #C8AA93",
"lX c #D1AB93",
"zX c #CCB398",
"xX c #DCB693",
"cX c #DCBA94",
"vX c #D9B798",
"bX c #CEB18B",
"nX c #E0A581",
"mX c #E2AD83",
"MX c #E3AF8C",
"NX c #E4B485",
"BX c #E3B985",
"VX c #E4B58A",
"CX c #EAB68B",
"ZX c #E4BA8C",
"AX c #E9BA8A",
"SX c #E3BA94",
"DX c #F5A98A",
"FX c #D4BBA4",
"GX c #D5C6B2",
"HX c #E1C09D",
"JX c #95BEC2",
"KX c #ABD3D6",
"LX c #BDE4E9",
"PX c #D2EDEB",
"IX c #DEDDD0",
/* pixels */
"sXsX2X2X;X;X;X;X:X:X;XsXhXfXaXfXfXfXfXfXfXfXgXgXpXpXfXfXfXfXfXpXfXgXlXlXlXpX>X>X>X:X>X:XsXsXnX2X;X;X",
"sX;X;X;X;X;XsX;XmXmXmXVX.XXX.X.X|.XX|.|.|.|.|.}. XqX|.|.|. X X X XwXwXwXXXXXXXdXjXmX>X>XsXsX2X2X;X;X",
";X;X;X;X;XsXsX;XNXNXVXxX| } / / v v x v Q v v / v v v x v v v v v / / v Q W G vXSXCX3X;XsXdX>X;X;X;X",
";X;X;XdXmXVXCXVXBXZXcXzXb > > : : : d > > > : : > : : : d : > > : > : : : , 6 GXFXSXNXCXNXdX;X;X;X;X",
";X;X;X:XNXNXNXAXhXOX~ u +.O.:.<.>.>.6.>.O.O.>.<.<.<.<.<.<.:.+.+.:.:.:.:.:.X.2.. # }.SXNXAXNX:X:X;X;X",
"nXnX:XNXVXAXNXAXhX'.b * X...&.=.-.-.>.>.#.#.,.,.,.,.,.=.=.&.O.O.:.:.>.*.&.O.+.; . }.cXZXZXAXNX;X;X;X",
";X;X;XVXVXZXNXAXhX'.b ; O.o.=.-.6XJXyX8X&.=.,.,.=.=.,.=.=.&.o.>.yXyX8X*.;.o.X.>   ].cXZXVXNXmX;X;X;X",
"2X;X;XVXZXZXNXZXbX'.b * O.o.=.-.7XLXKXyX&.=.,.,.-.-.-.=.=.&.*.5.KXKXyX*.&...+.; . ].cXBXNXmX;X;X;X;X",
"2X3XVXSXZXZXNXZXbX'.a * +.o.&.-.1.8X9X7X;.=.>.<.6.5.5.>.-.&.&.>.9X9X7X&.&.o.+.; . '.jXBXAXCXVXsXnX;X",
"2X3XVXVXjXAXAXZXbX'.a * X.o.$.&.;.*.O.:.;.;.5.yXyXPXPX5.*.*.*.*.;.;.-.#.&.o.X.; . '.cXBXNX:XmXMXmXnX",
"2X:XVXZXBX:XBXBXbX'.c ; X.o.*.;.;.O.+.+.%.%.6.yXyXLXPX6.+.%.:.%.>.:.>.$...o.+.; . ].jXBXAXdXdXVXmXnX",
":XdXNXBXBXAXBXZXpXY.k o f f ..%.X.f d d f g g n j n [ g g f f g f f h O.O.O.+.; . ].cXBXNXAXVX;XsX;X",
">XdXNXBXBXBXNXZXpX4.y X o o h +.@.; X $ $ & & 3 2 q u @ # & % % 5 $ : @.X.@.@.; . ].cXVXCXmXmXmXdX;X",
"dXdXdXAXAXNXAXcXrX4.i , o o g n j c r N L N N M F 3.T.4 M N P P N N e j h h n X   ].xXAXCX2X;XCXmX;X",
";XmXVXAXZXZXjX| } ~ k c $   $ & r ] ` ) ) U U ) B.=XMXB A U d.d.U I P 3 X * < o   '.SXVX;XmXAX:XmX;X",
";XmXVXVXNXZXcXS 7 a Y T # O 3 4 B G.d.p.y.t.t.p.V.-XDXC Z t.k.k.t.y.) 4 3 O       '.xXdXmXmXdX:X:X;X",
";XmXNXAXBXZXvXD r R R E 4 4 ` G.d.f.t.t.r.r.h.J.x.x.c.p.r.t.J.L.n.J.H.g. .t O     '.hXdXVXmX:XmX3X2X",
";X;XdXNXBXjXzXD r R P ( M M d.H.f.t.t.t.t.q.u.J.M.M.x.t.0.u.L.m.m.n.J.k.G.M + O O !.xXNX;XmXCX:X2X;X",
"dX>X;XCXVXSXzXD N ' G.g.d.d.f.k.k.l.l.h.u.u.z.L.n.n.L.z.z.z.n.m.m.L.J.h.f.I N 3 + '.xXVXdXMXVX>X;X;X",
";XdX;XVXfXbXzXp e ' G.g.k.k.k.k.l.l.l.k.h.h.z.L.K.m.n.b.b.b.n.n.n.M.J.k.f.U P t 2 !.pXpXlXpXaXdX;X;X",
"2X;X;XhXs u 6 @ & 3 4 A H.x.x.l.l.u.k.u.8.q.u.K.P.N.m.L.L.b.u.u.j.j.j.^.U.i.A 4 + % q 6 w 7 T.aXsX;X",
";XnX;XgX5 X X   O O 1 B U.M.x.l.h.h.t.t.8.8.u.K.N.N.m.K.L.z.q.t.h.h.j.S.U.e.V M 1 O O       T.aXsX;X",
";XsX;XgX# X X   + 1 4 V U.S.v.v.v.0.t.t.r.8.u.L.P.N.m.m.L.z.q.t.f.p.v.V.V.C V M 4 1 O O     Y.gXsXsX",
"sXaXaXlX# . X O 3 ' ` i.S.V.#X-X(.C 8.r.r.t.j.K.K.m.P.n.K.z.0.9.r.p.e.DXDXZ.V.) ) ] R m % O Y.pXaXsX",
"pX|.|.qXW v u $ 4 _ i.s.F.S.#X(./.C 8.r.y.t.j.L.L.L.L.L.L.z.r.r.r.r.e.1X<XZ.V.a.i.` P L e p !.}.{.aX",
"wXD W ! tXuX7.0 N I.U.V.-X@XZ.s.s.Z 9.r.y.t.h.z.b.b.b.b.b.j.r.r.r.9.C +X+X+X-XV.p.d.P ] !.tX0Xs S .X",
"iX2 = , IXIX0Xr N W.W.Z.4X1XV.J Z Z r.y.f.t.u.x.x.z.z.l.l.k.y.y.Z Z J +XD.&X1XV.p.d.P 3.0XIXuX  + wX",
"iX8 $ , GXGXtX!.T.( ( B.4X1X+XV.s.V Z Z r.9.8.t.t.0.t.0.t.r.U U Z V J -X5X&X1XA.9.U I.!.qXFX0X  + tX",
"kX7 @ 0 zXwXqXqX}.2 3 { 4X*X&X<X/.V A Z Z Z 9.9.9.Z 9.Z Z Z Z Z Z K J 4X1X*X<Xw.K ( ~.eXrXtX!.  + rX",
"rX7 - 6 tXqX X X[.# # { 4X*X%X&X+Xw.w.a.a.w.s.s.s.s.s.s.s.w.s.w.w.w.w.4X4X<X=XB.( E ~.eXqXtX!.  O rX",
"rX7 # 6 0X].2.u = $ @ { ,X5X$X$X%X&X<X<X%X<X&X&X&X&X&X&X&X@X&X@X@X@X@X+X+XB._ E E R 5 z 4.'.4.O O rX",
"pXG G } !.7.} , = = @ ~ =X+X+X+X5X$X%X*X$X%X$X$X$X%X$X$X$X$X$X$X$X5X+XE.`.| ^ r q w @ y 3.!.4.s s pX",
"jXcXcXFX# = , j k 0 6 7 8 8 S S Z.).).).).).).).).D.C.C.C.D.C.D.D.D.E.K _ 8 + i z Q 0 9 9 5 Y.FXSXjX",
"BXBXAXHX# . , j c 0 5 7 q r r S I.R._.E._._._._.E.E.R.R.R.R.R.R.R.R.W.H ^ 7 # i l Q w 0 $ # Y.cXSXAX",
"BXBXBXxX@ . < < 0 y k y q q i a a 8 8 8 8 8 S S S G G G G S 8 8 8 8 D ! ! q O k Y Y w 9 $ O Y.cXZXVX",
"ZXjXjXvX2 $ $ $ % y c k q 7 l z k @ O @ O # q r r r p p p 7 # O # # 2 ! / 9 O k Q Y q 0 =   4.vXxXZX",
"vXpXkXtXr r w & 5 a i l 9 5 l Q z y q q e q i p p p D D Y e e q u y i T / % $ i T z q 0 =   3.FXvXcX",
"kX^ Y ! E E L 1 + l l x O O i Q Q Q z Y z T l l Y D D Y Y l T Y W z Y T x 9   y l Q i w % & 6 W G pX",
"rX# O + ] ( P 4 t p l c o   p ! ! ! ! / Q z v l Y Y Y Y Y a ! Q ! ! ! l k % O w x l e r 3 1 O O + tX",
"rX#   2 ( ( ( ' ^ 3 O $     y z Y ! ! ! i @ O O O O O O + # a l a p k l z # O O   # Y E ' ' R O + tX",
"rX# @ # F K K ) E 3 + O     j x T ! ! ! a @ O O O @ O O @ # z l l l l c l #     o O R ( ` ' N + + tX",
"rX# O 2 T.I.I.I.I.3 #   . o $ $ k / Q Q W v Q z k $   0 k a Y l e e i k y @   .   O E I I I N 1 2 rX",
"pX2 2 8 Q.T.I.T.Y.2 O   . X o o 0 / Q / ! ! Q Q l & O k T T p p r r e y i - @   O 1 F A I I L + 2 rX",
"xXpXpXwXH ^ ^ ^ ~ 5 = $ $ $ X o = 0 0 q q q i T l e w l z z p p 2 3 6 2.} 0 @ W | | B.g.` P t % # tX",
"xXhXdXSX2 O @ @ # 6 9 9 & $ .       O O O O q T l x k l l l z i O   9 7.7.x 5 3.oX{.W.I.] L w % 2 tX",
"dXdXmXjX+ # & @ @ # 2 2 2 2 O             O y Q x x l x Q x / x $ $ , !.[./ # Y..X.X{.T.3.p q + 2 pX",
":XmXCXdXhXvXzX8 s }.=X,X,XhXG O $ $ . X $ X             O             $   O O O O O + # O + Y.zXxXxX",
"NXNX>XNXVXaXfX_ { OX`._.`.{.D @ q z Y z z v z v W Y W z z W Y Y W Y Y z D D Y Y Y W D a a D Q.xXjX>X",
"mX;X;XmXdXsXaX=X}.Y.| { { { 6 @ 3.wX.XXX.XXXwXwX.X.X.X.X.X.X.X.X.X.X.X.X.X.X.X.X.XXX.X.XXX.X>XsXdXdX",
"dX;X;XnXsX;XsXaX.X| q # # 5   # 4.lXaXaXsXsXsXaXaXsXhXhXdXsXaXsXsXsXhXsXsXsXsXsXhXsXhXhXsX;XsXsX2X;X"
};
