/* XPM */
static char *_9cb86c017df4731c8e8c88a4680ec8a9UqXllES8NsgF4La[] = {
/* columns rows colors chars-per-pixel */
"50 50 79 1 ",
"  c #3B332F",
". c #4F3F37",
"X c #453F3B",
"o c #4A3F38",
"O c #503F37",
"+ c #47403B",
"@ c #4B433E",
"# c #53453E",
"$ c #59473E",
"% c #5C483F",
"& c #4D4641",
"* c #4F4943",
"= c #524741",
"- c #584740",
"; c #544943",
": c #5C4B43",
"> c #544E49",
", c #5B4F48",
"< c #55524D",
"1 c #5C524C",
"2 c #575450",
"3 c #5B5651",
"4 c #5D5A55",
"5 c #5F5C58",
"6 c #614E45",
"7 c #614F48",
"8 c #635047",
"9 c #61534B",
"0 c #63534B",
"q c #665349",
"w c #67544B",
"e c #60554F",
"r c #65574F",
"t c #6A534A",
"y c #6B544A",
"u c #6C554B",
"i c #6B564D",
"p c #6E574E",
"a c #6D584F",
"s c #625750",
"d c #605852",
"f c #625B55",
"g c #615D56",
"h c #655C55",
"j c #695951",
"k c #6C5B53",
"l c #6F5A52",
"z c #6F5C52",
"x c #625E59",
"c c #665E58",
"v c #645F5A",
"b c #715B51",
"n c #63605B",
"m c #64615C",
"M c #65615D",
"N c #65635E",
"B c #6B635D",
"V c #6A635E",
"C c #71655E",
"Z c #676560",
"A c #696762",
"S c #6B6763",
"D c #6D6762",
"F c #6D6A65",
"G c #6F6C67",
"H c #6F6D68",
"J c #726761",
"K c #716B66",
"L c #706C67",
"P c #706D68",
"I c #746E69",
"U c #73706B",
"Y c #73706C",
"T c #77736E",
"R c #77746E",
"E c #79726C",
"W c #797671",
"Q c #806C63",
"! c #807D77",
/* pixels */
"rq:6:6q:::iq6rq::0ILPPFF1;1PPPD1;;1111hh;;1;;:1TPK",
"q86:6866666q66q6::$68tfv:600:0r:::::::iw::8:0::166",
"666:6yt66666q6866:.tq$34::::::6q6::0:::::::::0::l6",
"8666qtu66tqq6666:6:ti6h4::::0:$0:::::::::06:::0:6w",
"q66686p6:6q666l666:8q611$::::::::00::::::::0::::z$",
"686666p66868666:$q%66611:::::i:::::6q::::::r::::l6",
"66q666:6666666666666:6j::::0:$$$:::::6::0:i78::0qq",
";;;,j0;;=;=,,;;;=:==;,<,:0::::::$:r:::::6q:1:::>>;",
"PULV:eUPGFFTPFPWATRAAPUnn444mg443nAm54444nm33g4LYT",
":::0:$:6%::$$::$::vm@@@&@&&@&;&@@;*;4;;>&$;<x:6:::",
":::6::::0$::$r:66:1x&&@@*;&&&&&@&&@&@&&@;@@>4:6:::",
"::::q::::$6:%::q::r5 ;&;;&&&@&@&@&&&&&@&=&&>46:::6",
":::::q:::::$:6:tq:dm&&;@;;=&&@@;++*&&@@&=@@>g:6:68",
":::::::::66::Qqyiq13*&@@@@;&&&>&@@;;=&@@;&@>x:::6:",
"::::::6:06i::86:w:14@+;@=;&&&&@&+@@&;&<&@&@>my::::",
"::::66:$::::6q6::613@&&&@@*&@f&X@@&@+&@@*&&>3:::::",
"ZVAAFAmmKmmKVVVVmmAH4333<>><>433;><<3<2<<<4mxgVAAZ",
"!0i8::0l:::jq:6:::::::VVVTFCr::::hJJJJVVVsy666pq:6",
"Vq::$:l::$::6q::::::::$::xh68866aq6606qq:66668q$$q",
"f::::::::::::::::::::::::fs6qq66yp0yq66qp6q66:66qi",
"m::::::::l:0::::::::::600m10:6:666qwqwq8666666666y",
"g:::::::060::r:0:::::::::51q8q6q8668q6q8:6666866:6",
"31::::0::q:::6qr8:r:6::6:518yqq6w:6q88q666686::66$",
"g1i0:6:::07::66q8:::r$::651qqlqqq88y8qa6666ii66666",
"AmVvV1>;;*>1>;;>;;&;>*1::41qi0qrw8w01;;*>;>*>>>CC1",
"1,=@=;IxLFAFPHHDPPEPKFA;1EV;1;;;;1<vPPRHFPPFGP>=@@",
"==;=###=;==@=g4;#=@#;:=;::,:1;:;::;;;143=====;=:@@",
";;@#==1:;=@#=4v=;:=#==;:11,1:;,;;;:;=:33=#;;==1;@=",
"@@1:;;==:==;;3m;:===##=;;:;;h:;;;:=;;:44;===;;=@;@",
"@1==;=;;=@==#;3;;;##;#;=;;;;1:;;=;;;;#vx;=;@==d===",
"=;;=#==;;#=;=>3=;###;==;0;:;::;;;:;1=,:f:=;@;=1;==",
"#;==;===,@=@#14;:=##=#=;1;;::;;1=:;;:;;f===,==;;#;",
"@&;=:1**=1#=;<3&&@@&&==&;1=;:;=;;=;;;;,1=====@@@@@",
"UWm5xFUWgm43mFPPHHFPFFFPHAFmxxvmmULPmggAgxf3fDFFGA",
":6T&&&;@&;&*@@&@@+;;@>;&;@@Fs6080a08q6q00666q666:6",
"68m;;@&;;&=@=*&@@&=>X;;&=&=ne:wq8q6866q688ql668666",
"q6x&@&&&&3;>;@@@&&@@@&&&&;&x1riqqw806#6q:qiq6::6q:",
"q6x@&f*&&;>==&@@&@@=>;1&=;&neiibwq866qq8q6qb66q868",
"60g&&+f&&;;==@@@=&@@;&o&;&*x166p6qw6i66w860q666q66",
"86x@@&=&&&;&@@&@&@&@=;=;=&@Ae06yayq:8q00qqq806666q",
"q83;@@+;@@&@@&=@&#@@@@&&&==518qb8O8bqqqq0itq:q8q:8",
"VxAn45mAm4mmm4<4VVfAmmAFZx5Ax334441433<<4VVfgVVLmm",
"i:::::#::0q0:1m=::6=#=;$;;;1VVVDVVVDDDFF::::6:::::",
"::::::r:::::::1=::6:=#::;;;;=;;=;;;:;;34:::6q:q6::",
":::r:::0:::r:,3=;6:;;;;;;;::;=;11;;:::vx::::q:8:q0",
"0::::::::::#:14::6$;==;:;;:,;;;;::;;;=f4::::6-$:::",
":7:$:0:::::::11#==#;,:;;0:;;::;:;:e:;;<4::6:::::::",
"6:0::::$6:6::14==#=:::;=;;;o0;;o::;:;=>g:::::::6::",
"00$$::7$-=$::13#@:=;=:;;==;=;;;;:;:;;;;3::::-::::0",
"1CJVVVhVVCVVhmx1h;****&;=;;>**>;:::e,:13::0:,::1;;"
};
